<?xml version="1.0" encoding="utf-8"?>
<!-- Generator: Adobe Illustrator 25.0.0, SVG Export Plug-In . SVG Version: 6.00 Build 0)  -->
<svg version="1.1" id="Layer_1" xmlns="http://www.w3.org/2000/svg" xmlns:xlink="http://www.w3.org/1999/xlink" x="0px" y="0px"
	 viewBox="0 0 620 417.1" style="enable-background:new 0 0 620 417.1;" xml:space="preserve">
<style type="text/css">
	.st0{fill:#E0E0E0;}
	.st1{fill:#FFFFFF;}
	.st2{fill:#FAFAFA;}
	.st3{fill:#263238;}
	.st4{fill:#455A64;}
	.st5{fill:#EBEBEB;}
	.st6{fill:#FFBE9D;}
	.st7{fill:#EB996E;}
	.st8{fill:#A7DFD4;}
	.st9{opacity:0.1;}
	.st10{fill:#B78876;}
	.st11{fill:#AA6550;}
	.st12{opacity:0.3;}
	.st13{fill:#A36853;}
	.st14{fill:#8F5039;}
	.st15{fill:#FFAD9D;}
	.st16{opacity:0.2;}
	.st17{fill:#ED9482;}
</style>
<g id="freepik--background-complete--inject-2">
	<path class="st0" d="M552.9,305.2c0-1.6-0.1-117.5-0.2-304.9l0.2,0.2L5.1,0.5l0,0l0.3-0.3c0,107.8,0,210.9,0,304.9l-0.2-0.2
		L552.9,305.2L5.2,305.4H4.9v-0.2c0-94,0-197.1,0-304.9V0h0.3L553,0.1h0.2v0.2C553,187.7,553,303.6,552.9,305.2z"/>
	<rect x="5.1" y="0.3" class="st0" width="547.8" height="23.3"/>
	<path class="st1" d="M23,11.2c0,2.1-1.7,3.8-3.8,3.8s-3.8-1.7-3.8-3.8c0-2.1,1.7-3.8,3.8-3.8c0,0,0,0,0,0C21.3,7.5,23,9.2,23,11.2
		C23,11.2,23,11.2,23,11.2z"/>
	<path class="st1" d="M34.6,11.2c0,2.1-1.7,3.8-3.8,3.8s-3.8-1.7-3.8-3.8c0-2.1,1.7-3.8,3.8-3.8c0,0,0,0,0,0
		C33,7.5,34.6,9.2,34.6,11.2C34.6,11.2,34.6,11.2,34.6,11.2z"/>
	<path class="st1" d="M46.3,11.2c0,2.1-1.7,3.8-3.8,3.8c-2.1,0-3.8-1.7-3.8-3.8c0-2.1,1.7-3.8,3.8-3.8l0,0
		C44.6,7.5,46.3,9.1,46.3,11.2C46.3,11.2,46.3,11.2,46.3,11.2z"/>
</g>
<g id="freepik--Page--inject-2">
	<rect x="46.2" y="46.8" class="st2" width="554.1" height="369.4"/>
	<rect x="46.2" y="46.8" class="st3" width="554.1" height="23.6"/>
	<path class="st3" d="M600.2,70.5c0-0.5,0-7.5-0.1-23.6l0.1,0.1l-554,0.2l0,0l0.3-0.3v23.6l-0.3-0.3L600.2,70.5L46.2,70.7h-0.3V46.6
		h0.3l554,0.2h0.1v0.1C600.3,63,600.2,70,600.2,70.5z"/>
	<path class="st0" d="M64.3,57.9c0,2.1-1.7,3.8-3.8,3.8c-2.1,0-3.8-1.7-3.8-3.8c0-2.1,1.7-3.8,3.8-3.8c0,0,0,0,0,0
		C62.6,54.1,64.3,55.8,64.3,57.9z"/>
	<path class="st0" d="M76.1,57.9c0,2.1-1.7,3.8-3.8,3.8c-2.1,0-3.8-1.7-3.8-3.8c0-2.1,1.7-3.8,3.8-3.8c0,0,0,0,0,0
		C74.3,54.1,76,55.8,76.1,57.9C76.1,57.9,76.1,57.9,76.1,57.9z"/>
	<path class="st0" d="M87.8,57.9c0,2.1-1.7,3.8-3.8,3.8c-2.1,0-3.8-1.7-3.8-3.8c0-2.1,1.7-3.8,3.8-3.8l0,0
		C86.1,54.1,87.8,55.8,87.8,57.9z"/>
	<path class="st4" d="M201.7,138.7h-22l-4.2,10.2h-11.2l21.1-47.4h10.8l21.2,47.4h-11.5L201.7,138.7z M198.3,130.4l-7.5-18.1
		l-7.5,18.1H198.3z"/>
	<path class="st4" d="M261.3,130.6c0,11.4-7.9,18.8-18.1,18.8c-4.9,0-8.8-1.6-11.5-4.7v4.2h-10.1V98.6h10.6v17.7
		c2.7-3,6.4-4.4,11-4.4C253.4,111.9,261.3,119.2,261.3,130.6z M250.6,130.6c0-6.3-4-10.1-9.3-10.1s-9.3,3.8-9.3,10.1
		s4,10.1,9.3,10.1S250.6,136.9,250.6,130.6z"/>
	<path class="st4" d="M265.6,130.6c0-11,8.5-18.8,20-18.8s20,7.8,20,18.8s-8.4,18.8-20,18.8S265.6,141.6,265.6,130.6z M295,130.6
		c0-6.3-4-10.1-9.3-10.1s-9.3,3.8-9.3,10.1s4.1,10.1,9.3,10.1S295,136.9,295,130.6L295,130.6z"/>
	<path class="st4" d="M349.4,112.4v36.4h-10v-4.3c-2.9,3.2-7,5-11.3,4.9c-9.1,0-15.6-5.1-15.6-16.4v-20.6h10.6v19
		c0,6.1,2.7,8.8,7.4,8.8c4.9,0,8.4-3.1,8.4-9.8v-18L349.4,112.4z"/>
	<path class="st4" d="M382.7,147.1c-2.6,1.6-5.6,2.4-8.6,2.3c-8.6,0-13.6-4.4-13.6-13.1v-15h-5.6v-8.1h5.6v-8.9h10.6v8.9h9.1v8.1
		h-9.1v14.8c0,3.1,1.7,4.8,4.5,4.8c1.5,0,3-0.5,4.3-1.4L382.7,147.1z"/>
	<path class="st4" d="M444.5,112.4v36.4h-10v-4.3c-2.9,3.2-7,5-11.3,4.9c-9.1,0-15.6-5.1-15.6-16.4v-20.6h10.6v19
		c0,6.1,2.7,8.8,7.4,8.8c4.9,0,8.4-3.1,8.4-9.8v-18L444.5,112.4z"/>
	<path class="st4" d="M450.9,145.5l3.5-7.6c3.8,2.3,8.2,3.5,12.6,3.5c4.9,0,6.7-1.3,6.7-3.3c0-6-22,0.1-22-14.4
		c0-6.9,6.2-11.8,16.9-11.8c5,0,10.6,1.1,14,3.2l-3.5,7.5c-3.2-1.8-6.8-2.7-10.5-2.7c-4.7,0-6.8,1.5-6.8,3.4c0,6.2,22,0.2,22,14.6
		c0,6.8-6.3,11.6-17.2,11.6C460.5,149.4,454.2,147.7,450.9,145.5z"/>
	<path class="st5" d="M536.3,416.2c-21.4-22.5-52.8-33.5-83.8-33.2c-22.7,0.1-46.3,6.9-67.4-1.4c-19.5-7.7-31.9-26.5-47.1-41
		c-23.6-22.3-54.8-34.9-87.4-35.1c-21.8-0.1-45.8,4.9-63.8-7.4c-12.1-8.3-18.4-22.7-26.9-34.7c-25-35.2-73.1-49.9-113.4-34.3v187
		L536.3,416.2z"/>
	<path class="st3" d="M600.2,416.2c0-1.7-0.1-144.2-0.2-369.4l0.2,0.2h-554l0,0l0.3-0.3c0,131.5,0,256.7,0,369.4l-0.2-0.2l554.1,0.2
		l-554.1,0.2H46v-0.2c0-112.7,0-237.8,0-369.4v-0.3h0.3h554h0.2v0.2C600.3,272,600.2,414.5,600.2,416.2z"/>
	<path class="st3" d="M115.6,127.6c0,0.4-2.7,0.7-6.1,0.7s-6.1-0.3-6.1-0.7s2.7-0.7,6.1-0.7S115.6,127.3,115.6,127.6z"/>
	<path class="st3" d="M122.1,111.1c0.4,0,0.7,2.8,0.7,6.2s-0.3,6.2-0.7,6.2s-0.7-2.8-0.7-6.2S121.7,111.1,122.1,111.1z"/>
	<path class="st3" d="M128.9,127.3c0-0.4,2.7-0.7,6.1-0.7s6.1,0.3,6.1,0.7s-2.7,0.7-6.1,0.7S128.9,127.6,128.9,127.3z"/>
	<path class="st3" d="M122.5,143.8c-0.4,0-0.7-2.8-0.7-6.2s0.3-6.2,0.7-6.2s0.7,2.8,0.7,6.2S122.8,143.8,122.5,143.8z"/>
	<path class="st3" d="M132.3,136.7c-0.3,0.2-1.5-0.7-2.7-2.2s-1.9-2.8-1.6-3s1.5,0.7,2.7,2.2S132.6,136.5,132.3,136.7z"/>
	<path class="st3" d="M131.7,117.9c0.3,0.3-0.5,1.5-1.8,2.7s-2.5,2.1-2.7,1.8s0.5-1.5,1.8-2.8S131.5,117.7,131.7,117.9z"/>
	<path class="st3" d="M117.8,122.7c-0.2,0.3-1.4-0.3-2.6-1.3s-1.9-2-1.7-2.3s1.4,0.3,2.6,1.3S118,122.4,117.8,122.7z"/>
	<path class="st3" d="M117.2,131c0.3,0.3-0.4,1.5-1.6,2.7s-2.3,2-2.5,1.8s0.4-1.4,1.5-2.7S117,130.7,117.2,131z"/>
	<path class="st3" d="M459.2,95.6c0,0.2-1.5,0.4-3.5,0.4s-3.5-0.2-3.5-0.4s1.5-0.4,3.5-0.4S459.2,95.4,459.2,95.6z"/>
	<path class="st3" d="M462.9,86.2c0.2,0,0.4,1.6,0.4,3.5s-0.2,3.5-0.4,3.5s-0.4-1.6-0.4-3.5S462.6,86.2,462.9,86.2z"/>
	<path class="st3" d="M466.8,95.4c0-0.2,1.5-0.4,3.5-0.4s3.5,0.2,3.5,0.4s-1.5,0.4-3.5,0.4S466.8,95.6,466.8,95.4z"/>
	<path class="st3" d="M463.1,104.8c-0.2,0-0.4-1.6-0.4-3.5s0.2-3.5,0.4-3.5s0.4,1.6,0.4,3.5S463.3,104.8,463.1,104.8z"/>
	<path class="st3" d="M468.7,100.7c-0.2,0.1-0.8-0.4-1.5-1.2s-1.1-1.6-0.9-1.7s0.8,0.4,1.5,1.2S468.8,100.6,468.7,100.7z"/>
	<path class="st3" d="M468.3,90.1c0.2,0.1-0.3,0.9-1,1.6s-1.4,1.2-1.5,1s0.3-0.8,1-1.6S468.2,89.9,468.3,90.1z"/>
	<path class="st3" d="M460.4,92.8c-0.1,0.2-0.8-0.2-1.5-0.7s-1.1-1.1-1-1.3s0.8,0.1,1.5,0.7S460.6,92.6,460.4,92.8z"/>
	<path class="st3" d="M460.1,97.5c0.1,0.1-0.2,0.8-0.9,1.5s-1.3,1.1-1.4,1s0.2-0.8,0.9-1.5S460,97.4,460.1,97.5z"/>
	<path class="st3" d="M302.1,174.3c-1.7,0.4-3.6,0.4-5.3,0C298.6,173.8,300.4,173.8,302.1,174.3z"/>
	<path class="st3" d="M305,167c0.4,1.8,0.4,3.6,0,5.4C304.6,170.6,304.6,168.8,305,167z"/>
	<path class="st3" d="M307.9,174.1c1.7-0.4,3.6-0.4,5.3,0C311.5,174.5,309.7,174.5,307.9,174.1z"/>
	<path class="st3" d="M305.1,181.3c-0.4-1.8-0.4-3.6,0-5.4C305.5,177.7,305.5,179.5,305.1,181.3z"/>
	<path class="st3" d="M309.4,178.2c-0.1,0.1-0.6-0.3-1.2-0.9s-0.9-1.2-0.7-1.3s0.6,0.3,1.2,0.9S309.5,178.1,309.4,178.2z"/>
	<path class="st3" d="M309.2,170c0.1,0.1-0.2,0.6-0.8,1.2s-1.1,0.9-1.2,0.8s0.2-0.6,0.8-1.2S309,169.9,309.2,170z"/>
	<path class="st3" d="M303.1,172.1c-0.1,0.1-0.6-0.1-1.1-0.6s-0.9-0.9-0.7-1s0.6,0.1,1.1,0.6S303.2,172,303.1,172.1z"/>
	<path class="st3" d="M302.9,175.7c0.1,0.1-0.2,0.6-0.7,1.2s-1,0.9-1.1,0.8s0.2-0.6,0.7-1.2S302.7,175.6,302.9,175.7z"/>
	<path class="st0" d="M442.9,185.5c0,0.2-1.5,0.4-3.5,0.4s-3.5-0.1-3.5-0.4s1.5-0.4,3.5-0.4S442.9,185.3,442.9,185.5z"/>
	<path class="st0" d="M446.6,176.1c0.2,0,0.4,1.6,0.4,3.5s-0.2,3.5-0.4,3.5s-0.4-1.6-0.4-3.5S446.4,176.1,446.6,176.1z"/>
	<path class="st0" d="M450.5,185.2c0-0.2,1.5-0.4,3.5-0.4s3.5,0.2,3.5,0.4s-1.5,0.4-3.5,0.4S450.5,185.4,450.5,185.2z"/>
	<path class="st0" d="M446.8,194.6c-0.2,0-0.4-1.6-0.4-3.5s0.2-3.5,0.4-3.5s0.4,1.6,0.4,3.5S447,194.6,446.8,194.6z"/>
	<path class="st0" d="M452.4,190.6c-0.2,0.1-0.9-0.4-1.5-1.2s-1.1-1.6-0.9-1.7s0.8,0.4,1.5,1.2S452.6,190.5,452.4,190.6z"/>
	<path class="st0" d="M452.1,179.9c0.1,0.1-0.3,0.8-1,1.6s-1.4,1.2-1.5,1s0.3-0.8,1-1.6S451.9,179.8,452.1,179.9z"/>
	<path class="st0" d="M444.2,182.7c-0.1,0.2-0.8-0.1-1.5-0.7s-1.1-1.1-1-1.3s0.8,0.2,1.5,0.7S444.3,182.5,444.2,182.7z"/>
	<path class="st0" d="M443.9,187.4c0.1,0.1-0.2,0.8-0.9,1.5s-1.3,1.2-1.4,1s0.2-0.8,0.9-1.5S443.7,187.2,443.9,187.4z"/>
	<path class="st0" d="M260.7,96.2l0.5,1.1c0.8,1.9,2.3,3.4,4.2,4.1l1.2,0.5l-1.1,0.4c-1.9,0.8-3.4,2.3-4.2,4.2l-0.3,0.8l-0.5-1
		c-0.9-1.8-2.4-3.2-4.3-3.9l-1-0.4l1.3-0.6c1.7-0.8,3-2.3,3.7-4L260.7,96.2z"/>
	<path class="st0" d="M85.1,177.1l0.3,0.7c0.5,1.3,1.5,2.2,2.8,2.8l0.8,0.3l-0.8,0.3c-1.3,0.5-2.3,1.5-2.8,2.8l-0.2,0.5l-0.3-0.6
		c-0.6-1.2-1.6-2.1-2.8-2.6l-0.7-0.2l0.9-0.4c1.1-0.5,2-1.5,2.5-2.6L85.1,177.1z"/>
	<path class="st0" d="M527.6,107.4l0.3,0.7c0.5,1.3,1.5,2.2,2.8,2.8l0.8,0.3l-0.7,0.3c-1.3,0.5-2.3,1.5-2.8,2.8l-0.2,0.5l-0.3-0.7
		c-0.6-1.2-1.6-2.1-2.8-2.6l-0.7-0.2l0.9-0.4c1.1-0.5,2-1.5,2.5-2.6L527.6,107.4z"/>
	<path class="st3" d="M528.9,137.7l0.5,1.1c0.8,1.9,2.3,3.4,4.2,4.1l1.2,0.5l-1.1,0.5c-1.9,0.8-3.4,2.3-4.2,4.2l-0.3,0.8l-0.5-1
		c-0.9-1.8-2.4-3.2-4.3-3.9l-1-0.4l1.3-0.6c1.7-0.8,3-2.2,3.7-3.9L528.9,137.7z"/>
	<path class="st3" d="M344.2,89.7l0.2,0.5c0.4,0.9,1.1,1.6,2,1.9l0.5,0.2l-0.5,0.2c-0.9,0.4-1.6,1.1-2,2l-0.1,0.4l-0.2-0.5
		c-0.4-0.8-1.1-1.5-2-1.8l-0.5-0.2l0.6-0.3c0.8-0.4,1.4-1,1.8-1.9L344.2,89.7z"/>
	<path class="st3" d="M204.8,172.6l0.3,0.6c0.5,1.1,1.4,2,2.5,2.5l0.7,0.3l-0.7,0.3c-1.2,0.5-2.1,1.4-2.5,2.6l-0.2,0.5l-0.3-0.6
		c-0.5-1.1-1.4-1.9-2.6-2.3l-0.6-0.2l0.8-0.4c1-0.5,1.8-1.3,2.2-2.4L204.8,172.6z"/>
</g>
<g id="freepik--character-1--inject-2">
	<path class="st3" d="M178.2,190.8c-0.2,3.2-4.4,7.5-3.1,10.4c2.4,5.4,1,11.9-2.1,17s-7.7,9-12.2,12.8c0.2-7.9-0.5-15.8-2.1-23.5
		c-0.5-2.4-1.3-5.1-3.5-6.2c-2.9-1.4-6.5,0.6-9.4-0.6c-3.1-1.4-3.8-5.6-6.4-7.8c-2.4-1.9-5.9-1.7-8.8-0.8s-5.6,2.6-8.6,3.3
		s-6.6,0.1-8.3-2.5c-1-1.6-0.3-0.6-1.3-2.2c0,0-5.9,0.2-7.9-6.6c0,0-2.8-7.6,3.4-10.9c0,0,1.4-13.7,15.2-7.6c4,1.8,8.7-3.9,12.5-2
		c3.2,1.6,4.2,6.1,7.4,7.8c3.7,1.9,8-0.9,12.1-1.1c5.5,0,10,4.5,10,10c0,0,0.6-2.7,5.1-1.5S178.5,184.5,178.2,190.8z"/>
	<path class="st6" d="M172.3,212.9c0.1-1.6-0.2-3.1-0.8-4.5c-0.6-1.2-2.8-3.8-5.1-4l0.4-14.1c0.1-2.9-2.1-5.4-5-5.7l-27.7-2.9
		c-9.3-1-17.6,5.7-18.5,15c0,0.2,0,0.5-0.1,0.7c-0.7,10.6-1.1,23.7,0.2,31.6c2.5,16,14.8,18,14.8,18l-0.3,11.2
		c-0.5,11.9,8.4,19,17.6,19s17.7-7.9,17.4-19.7l0.9-36c1.6-0.1,3-0.9,4.1-2C171.5,217.6,172.3,215.3,172.3,212.9z"/>
	<path class="st3" d="M121.5,206c0,1.1,0.9,2,2,2.1c1.1,0.1,2-0.8,2.1-1.9c0-1.1-0.8-2-1.9-2.1c0,0,0,0-0.1,0
		C122.5,204.1,121.6,204.9,121.5,206z"/>
	<path class="st3" d="M118.2,204.1c0.2,0.3,1.8-0.9,4-0.9s3.8,1.1,4.1,0.8c0.1-0.1-0.1-0.6-0.9-1.1c-1-0.7-2.1-1-3.2-1
		c-1.1,0-2.3,0.3-3.2,1C118.3,203.5,118,204,118.2,204.1z"/>
	<path class="st3" d="M142.8,206.4c0,1.1,0.9,2,2,2.1c1.1,0.1,2-0.8,2.1-1.9c0-1.1-0.9-2-2-2.1C143.8,204.5,142.9,205.3,142.8,206.4
		z"/>
	<path class="st3" d="M139.8,204.5c0.2,0.3,1.8-0.9,4-0.9s3.8,1.1,4.1,0.8c0.1-0.1-0.1-0.6-0.9-1.1c-1-0.7-2.1-1-3.2-1
		c-1.1,0-2.3,0.3-3.2,1C139.9,203.9,139.7,204.4,139.8,204.5z"/>
	<path class="st3" d="M131.8,220.9c-1.2-0.4-2.4-0.6-3.6-0.6c-0.6,0-1.1-0.2-1.2-0.5c0-0.6,0.1-1.2,0.4-1.7l1.7-4.3
		c2.3-6.1,4-11.1,3.7-11.2s-2.3,4.8-4.6,10.9c-0.6,1.5-1.1,2.9-1.6,4.3c-0.4,0.7-0.5,1.5-0.3,2.2c0.2,0.4,0.5,0.7,0.9,0.8
		c0.3,0.1,0.7,0.1,1,0.1C129.4,221,130.6,221,131.8,220.9z"/>
	<path class="st7" d="M130.3,247c7.5,0.1,14.9-1.9,21.4-5.7c0,0-5.5,12-21.5,10.5L130.3,247z"/>
	<path class="st3" d="M138.8,200.7c0.2,0.6,2.4,0.3,5,0.6s4.7,1,5,0.5c0.1-0.3-0.2-0.8-1.1-1.4c-1.1-0.7-2.4-1.2-3.7-1.3
		c-1.3-0.2-2.7,0-3.9,0.5C139.2,199.9,138.8,200.4,138.8,200.7z"/>
	<path class="st3" d="M117.8,199c0.4,0.5,1.9,0,3.7,0s3.4,0.3,3.7-0.2c0.2-0.3-0.1-0.8-0.8-1.2c-1.9-1.2-4.2-1.1-6,0.2
		C117.9,198.2,117.6,198.7,117.8,199z"/>
	<path class="st7" d="M132.3,233.3c0,0,0.1-0.3,0.6-0.6c0.6-0.4,1.3-0.5,2-0.5c0.7,0,1.4,0.2,2,0.5c0.4,0.3,0.6,0.5,0.6,0.6
		c-0.8-0.3-1.7-0.5-2.6-0.6C134,232.8,133.2,233,132.3,233.3z"/>
	<path class="st7" d="M164.9,217.1c0.5-0.2,1-0.5,1.5-0.7c1.1-0.7,1.8-2,1.9-3.3c0-1.3-0.6-2.6-1.7-3.4c-0.5-0.3-1-0.5-1.5-0.6
		c-0.1-0.1,0.7-0.3,1.7,0.3c1.3,0.8,2,2.2,2,3.7c0,0.8-0.3,1.6-0.7,2.3c-0.4,0.5-0.9,1-1.4,1.3C166.1,217.1,165.5,217.2,164.9,217.1
		z"/>
	<path class="st3" d="M112.3,177.8c-2.6,6.9,3.6,11.9,8.3,13c6.7,1.6,13.8-2.7,18.4-0.9c3.4,1.3,6.6,4,10.2,3.4
		c1.8-0.3,3.5-1.3,5.2-0.8c2.2,0.6,3.1,3.3,3,5.5c-0.1,2.8-1,5.6-0.6,8.4s2.8,5.6,5.5,4.9c2.6-0.9,4.4-3.3,4.5-6
		c0.3-3.9-0.4-8.4-0.2-12.3c0.2-3.4,0.2-7.1-2-9.8s-5.9-3.3-9.2-3.8c-14.3-2-28.7-2.7-43.2-2.3"/>
	<path class="st4" d="M103.9,179.3c-0.1-0.2-0.1-0.5-0.1-0.7c0-0.7,0.1-1.4,0.4-2.1c0.5-1,1.4-1.8,2.4-2.3c0.7-0.3,1.4-0.3,2.1-0.2
		c0.8,0.1,1.5,0.3,2.3,0.3c0.8,0,1.6-0.1,2.4-0.5c0.8-0.4,1.5-1,2.2-1.6c0.7-0.6,1.4-1.3,2.3-1.9c0.9-0.6,1.9-1.1,2.9-1.3
		c2.3-0.3,4.6,0.1,6.7,1.1c2.1,1.2,4.1,2.6,5.9,4.2c1.8,1.6,3.7,3,5.9,4c1,0.4,2.1,0.6,3.2,0.5c1-0.2,2.1-0.5,3-1
		c1.8-1.1,3.6-1.9,5.6-2.6c1.7-0.5,3.6-0.6,5.4-0.2c1.5,0.3,2.8,1.1,3.9,2.1c0.8,0.8,1.4,1.7,1.9,2.8c0.3,0.7,0.4,1.4,0.4,2.1
		c0,0.2,0,0.4,0,0.6c0,0.1,0,0.2,0,0.2c0-0.9-0.2-1.9-0.5-2.7c-0.4-1-1.1-1.9-1.9-2.6c-1.1-1-2.4-1.6-3.8-1.9
		c-1.7-0.3-3.5-0.3-5.2,0.2c-1.9,0.7-3.7,1.5-5.5,2.6c-1,0.5-2.1,0.9-3.2,1c-1.2,0.1-2.4-0.1-3.5-0.5c-2.2-1-4.3-2.4-6.1-4.1
		c-1.8-1.6-3.7-3-5.8-4.2c-1.9-1-4.2-1.4-6.4-1.1c-2.1,0.4-3.6,1.8-5,3.1c-0.7,0.6-1.5,1.2-2.3,1.6c-0.8,0.4-1.7,0.6-2.6,0.5
		c-0.8-0.1-1.6-0.3-2.3-0.4c-0.7-0.1-1.4,0-2,0.2c-1,0.4-1.8,1.2-2.3,2.1c-0.3,0.6-0.5,1.3-0.5,2C103.9,179,104,179.3,103.9,179.3z"
		/>
	<path class="st4" d="M111.6,190.4c-0.2,0.1-0.5,0.1-0.7,0c-0.7-0.1-1.3-0.6-1.6-1.2c-0.5-1-0.6-2.1-0.4-3.1
		c0.2-1.4,0.8-2.7,1.6-3.9c1-1.4,2.4-2.5,4.1-3.1c1.9-0.7,3.9-0.7,5.8-0.1c2,0.8,3.9,1.8,5.6,3.2c1.8,1.4,3.8,2.5,5.9,3.3
		c2.2,0.6,4.5,0.4,6.6-0.4c2-0.7,3.9-1.6,5.7-2.7c1.7-1,3.4-1.9,5.1-2.7c1.6-0.7,3.2-1.1,4.9-1.3c2.5-0.2,5,0.6,6.9,2.3
		c0.5,0.5,0.9,1,1.2,1.6c0.1,0.2,0.2,0.4,0.2,0.7c-0.4-0.8-0.9-1.5-1.6-2.1c-1.9-1.6-4.3-2.3-6.7-2.1c-1.7,0.2-3.3,0.6-4.8,1.3
		c-1.7,0.8-3.4,1.7-5.1,2.7c-1.8,1.1-3.8,2.1-5.8,2.8c-2.2,0.8-4.6,1-6.9,0.4c-2.2-0.8-4.2-1.9-6-3.4c-1.6-1.3-3.5-2.4-5.4-3.1
		c-1.8-0.6-3.8-0.5-5.6,0.1c-1.6,0.6-2.9,1.6-3.9,2.9c-0.8,1.1-1.4,2.4-1.6,3.7c-0.3,1-0.2,2.1,0.3,3c0.3,0.6,0.8,1,1.4,1.2
		C111.2,190.4,111.4,190.4,111.6,190.4z"/>
	<path class="st4" d="M172.9,217c0,0,0.4-0.5,0.9-1.4c0.7-1.3,1.1-2.8,1.2-4.3c0-1-0.1-2-0.4-3c-0.4-1.1-0.9-2.2-1.6-3.1
		c-0.7-1-1.5-2.1-2.3-3.3c-0.8-1.2-1.3-2.7-1.3-4.2c0.1-1.5,0.6-2.9,1.3-4.1c0.6-1.1,1-2.4,1.1-3.7c0.1-2.2-1.1-4.3-2.9-5.5
		c-1.3-0.8-2.8-1.1-4.3-0.8c-0.5,0.1-1.1,0.2-1.6,0.4c0.1-0.1,0.2-0.2,0.4-0.2c0.4-0.2,0.8-0.3,1.2-0.4c1.5-0.3,3.1-0.1,4.5,0.7
		c2.1,1.2,3.3,3.4,3.2,5.8c-0.1,1.4-0.5,2.7-1.1,3.9c-0.7,1.2-1.1,2.6-1.3,3.9c0,1.4,0.5,2.7,1.2,3.9c0.7,1.2,1.5,2.2,2.2,3.3
		c0.7,1,1.3,2.1,1.6,3.3c0.3,1,0.4,2.1,0.3,3.2c-0.1,1.5-0.5,3-1.3,4.3c-0.2,0.4-0.5,0.7-0.8,1C173,216.9,172.9,217,172.9,217z"/>
	<path class="st3" d="M131,205.4c-0.1-0.8-0.2-1.7-0.4-2.5c-1.4-5.4-6.9-8.7-12.4-7.3c-0.3,0.1-0.6,0.2-0.9,0.3
		c-1.9,0.7-3.5,1.9-4.6,3.5c-2.6,3.5-2.6,8.3,0,11.8c0.6,0.8,1.3,1.5,2.1,2.1c0.8,0.6,1.6,1,2.5,1.4c3.2,1.2,6.8,0.7,9.5-1.4
		c1.8-1.4,3.2-3.3,3.8-5.5C130.8,207,130.9,206.1,131,205.4c0.1,0.8,0,1.7-0.2,2.5c-0.5,2.3-1.9,4.4-3.8,5.9
		c-2.8,2.2-6.6,2.8-9.9,1.6c-1-0.3-1.9-0.8-2.7-1.4c-0.9-0.6-1.6-1.4-2.2-2.2c-2.7-3.7-2.7-8.8,0-12.5c1.2-1.7,2.9-3,4.9-3.7
		c1.8-0.6,3.7-0.8,5.5-0.4c4,0.8,7.2,3.8,8.1,7.8C131,203.7,131,204.5,131,205.4z"/>
	<path class="st3" d="M154.4,205.4c-0.1-0.8-0.2-1.7-0.4-2.5c-1.4-5.4-6.9-8.7-12.4-7.3c-0.3,0.1-0.6,0.2-0.9,0.3
		c-1.9,0.7-3.5,1.9-4.7,3.5c-2.6,3.5-2.6,8.3,0,11.8c0.6,0.8,1.3,1.5,2.1,2.1c0.8,0.6,1.6,1,2.5,1.4c5.3,1.9,11.1-0.8,13-6.1
		c0.1-0.3,0.2-0.5,0.3-0.8C154.2,207,154.3,206.2,154.4,205.4c0,0.8,0,1.7-0.2,2.5c-0.5,2.3-1.8,4.4-3.7,5.8
		c-2.8,2.2-6.6,2.8-9.9,1.6c-1-0.3-1.9-0.8-2.7-1.4c-0.9-0.6-1.6-1.4-2.2-2.2c-2.7-3.7-2.7-8.8,0-12.5c1.2-1.7,3-2.9,4.9-3.7
		c1.8-0.6,3.7-0.8,5.5-0.4c4,0.8,7.2,3.8,8.1,7.8C154.4,203.7,154.5,204.5,154.4,205.4z"/>
	<path class="st3" d="M134.4,203.6L134.4,203.6L134.4,203.6v0.1l0,0l0,0l0,0V203.6L134.4,203.6v0.1c-0.6,0.1-1.1,0.2-1.7,0.2
		c-1,0-1.8-0.1-1.8-0.3s0.8-0.3,1.8-0.3C133.3,203.4,133.9,203.4,134.4,203.6v0.1l0,0V203.6L134.4,203.6L134.4,203.6L134.4,203.6
		L134.4,203.6L134.4,203.6L134.4,203.6z"/>
	<path class="st3" d="M166.8,205.9c-2.1,0.1-4.2,0.1-6.3-0.2c-2.1-0.1-4.2-0.3-6.3-0.7c2.1-0.1,4.2,0,6.3,0.2
		C162.6,205.3,164.7,205.5,166.8,205.9z"/>
	<path class="st3" d="M141,220.3c0.2,0.5,0.2,1.1,0.1,1.6c-0.4,2.8-2.9,4.7-5.7,4.6c-0.6,0-1.1-0.1-1.6-0.4c0-0.1,0.6,0.1,1.6,0
		c2.5-0.1,4.7-1.9,5.3-4.3C141,220.9,140.9,220.3,141,220.3z"/>
	<path class="st3" d="M101.4,292.1c0,0.1,0,0.2,0,0.3v0.9c0,0.9,0,2.1,0.1,3.6c0,3.2,0,7.7,0.1,13.3c0,11.2-0.3,26.7-1.2,43.8
		s-1.8,32.5-2.4,43.8c-0.3,5.6-0.5,10.1-0.7,13.3c-0.1,1.5-0.1,2.7-0.2,3.6c0,0.4-0.1,0.7-0.1,0.9c0,0.1,0,0.2,0,0.3
		c0-0.1,0-0.2,0-0.3c0-0.2,0-0.5,0-0.9c0-0.9,0.1-2.1,0.1-3.6c0.1-3.1,0.2-7.7,0.5-13.3c0.5-11.2,1.4-26.7,2.2-43.8
		s1.3-32.6,1.4-43.8c0-5.6,0.1-10.1,0.1-13.3c0-1.5,0-2.8,0.1-3.6v-0.9C101.3,292.3,101.4,292.2,101.4,292.1z"/>
	<path class="st8" d="M198,274.9c-5.4-6.2-15.9-7.1-20.6-3.8s-7.2,9.1-7.7,14.8s1,11.5,3.2,16.8c3.5,8.5,8.7,15.4,16.4,24.2l20,26.2
		l-38.6,37.6l16,25.2l32.8-26.4l27.1-28.7"/>
	<path class="st3" d="M58.6,355.7c0.6-0.5,1.3-0.8,2.1-1c1.8-0.6,3.6-0.9,5.5-0.8c1.9,0.1,3.7,0.6,5.4,1.3c0.7,0.3,1.4,0.7,2,1.2
		c0,0.1-0.8-0.4-2.1-0.9c-1.7-0.7-3.5-1.1-5.3-1.2c-1.8-0.1-3.6,0.1-5.4,0.6C59.4,355.4,58.7,355.8,58.6,355.7z"/>
	<path class="st8" d="M203.2,280.8L203.2,280.8c-13.4-17.8-27.9-16.4-35.3-16.6v-7.8c-5.4,0-12.9,4.9-16.8,8.4l-3.8,5.2l0,0
		c-2-5.8-6.6-10.3-12.4-12.2c-2.1-0.7-4.2-1.1-6.4-1.4v7c-18.1,0.5-27.8,5.5-39.8,19.4c-0.6,0.7-1.9,2-3.3,3.3l0,0l-35.7,42
		c-7.3,8.1-14,19.2-12.4,30l0,0c1.7,12.2,8.8,20.2,22.4,29.3l37.6,24.4L97,416h89.7c0,0,60.9-44.9,62.3-61.5
		C250.3,341.4,229.3,313.5,203.2,280.8z M98.7,376.1l-26.3-19.6l28.4-29.4L98.7,376.1z M184.9,377.6l-0.7-14.5l3.8-38.2
		c7.5,8.6,21.4,25.7,21.4,28.2L184.9,377.6z"/>
	<path class="st3" d="M167.9,264.2c-0.2,0.4-0.4,0.8-0.7,1.2c-0.5,0.7-1.2,1.8-2.1,3.1c-2.3,3.4-5,6.6-7.9,9.5
		c-0.9,0.9-1.7,1.7-2.6,2.4l-0.4,0.4v-0.6c0-3.3-1.4-6.4-3.7-8.8c-0.6-0.7-1.4-1.3-2.3-1.6c-0.3-0.1-0.7,0-1,0.2
		c0.2-0.3,0.6-0.4,1-0.4c1,0.3,1.8,0.8,2.5,1.6c1.1,1,2,2.2,2.6,3.6c0.8,1.7,1.3,3.5,1.3,5.4l-0.4-0.2c0.8-0.8,1.7-1.6,2.5-2.4
		c2.9-2.9,5.5-6,7.9-9.3l2.2-3C167.2,264.9,167.5,264.6,167.9,264.2z"/>
	<path class="st3" d="M128.5,263.4c0.3,0.3,0.6,0.6,0.8,0.9l2,2.6c1.7,2.2,3.9,5.4,6.4,8.8l1.6,2.3l-0.4,0.1c0.5-1.6,1.2-3.2,2-4.6
		c0.7-1.2,1.7-2.2,2.9-2.9c0.8-0.5,1.7-0.7,2.6-0.7c0.3,0,0.7,0,1,0.1c0,0-0.3,0-1,0c-0.9,0.1-1.7,0.4-2.4,0.8
		c-1.1,0.7-2,1.7-2.7,2.8c-0.8,1.4-1.4,3-1.9,4.5l-0.2,0.5l-0.3-0.4l-1.6-2.3c-2.5-3.5-4.7-6.6-6.3-8.9c-0.7-1.1-1.4-2-1.9-2.7
		C128.9,264.1,128.7,263.8,128.5,263.4z"/>
	<g class="st9">
		<path d="M147.3,270.1c3,3.3,4.5,7.8,3.9,12.3c-0.2,1.5-0.4,3.4,1,4c0.9,0.4,2-0.3,2.8-0.9c5.8-4.7,10.6-10.6,14.1-17.2
			c0.3-0.5,0.5-1.1,0.5-1.8c0-0.6-0.5-1.2-1.2-1.2c-0.4,0.1-0.8,0.4-1,0.7c-4.2,4.8-8.8,9.8-12.9,14.6c0.2-2.7-0.6-5.3-2.3-7.4
			C150.6,271.1,148.8,269.1,147.3,270.1"/>
	</g>
	<path class="st3" d="M185.7,414.3c-0.1-0.1-0.2-0.3-0.3-0.4c-0.2-0.3-0.5-0.7-0.8-1.3l-3.1-4.8c-2.6-4.1-6.3-9.9-10.5-16.6
		l-0.1-0.2l0.1-0.1l9.4-9.4l20.4-20.2c2.6-2.5,4.7-4.6,6.2-6.1l1.7-1.6c0.2-0.2,0.4-0.4,0.6-0.5c-0.2,0.2-0.3,0.4-0.6,0.6
		c-0.4,0.4-1,1-1.6,1.7l-6.1,6.2L180.7,382c-3.3,3.3-6.5,6.4-9.4,9.3v-0.3c4.2,6.8,7.8,12.5,10.4,16.7c1.2,2,2.2,3.7,2.9,4.8
		c0.3,0.5,0.6,1,0.8,1.3C185.5,414,185.6,414.2,185.7,414.3z"/>
	<path class="st3" d="M174.6,274.4l-0.1,0.2l-0.5,0.5c-0.4,0.5-1,1.2-1.7,2.1c-2,2.7-3.3,5.8-3.8,9.1c-0.6,4.9,0.1,9.9,2.2,14.4
		c1.1,2.7,2.6,5.2,4.4,7.5c1.9,2.4,3.9,4.8,5.9,7.4c8.1,10.2,15,19.6,20.1,26.4l6,8.1c0.7,0.9,1.2,1.7,1.6,2.2l0.4,0.6l0.1,0.2
		c0,0-0.1,0-0.2-0.2l-0.4-0.5l-1.7-2.2c-1.5-1.9-3.6-4.6-6.1-8c-5.2-6.7-12.1-16.2-20.2-26.3c-2-2.5-4-5-5.9-7.4
		c-1.8-2.4-3.3-4.9-4.4-7.7c-2.1-4.6-2.9-9.7-2.1-14.7c0.8-4.3,2.8-8.2,5.9-11.2l0.5-0.5C174.6,274.4,174.6,274.4,174.6,274.4z"/>
	<path class="st2" d="M208.4,287.3c0,0-0.6,0.2-1.5,0.7c-1.3,0.7-2.5,1.6-3.6,2.7c-1.5,1.6-2.9,3.4-4,5.3c-1.4,2.4-2.9,4.7-4.5,7
		c-3.1,4.2-7.8,6.7-13,6.9c-1.5,0.1-3.1-0.1-4.6-0.4c-0.4-0.1-0.8-0.2-1.2-0.4c-0.1,0-0.3-0.1-0.4-0.2c2,0.5,4.1,0.7,6.1,0.6
		c2.2-0.2,4.4-0.7,6.4-1.7c2.4-1.2,4.6-3,6.2-5.2c1.8-2.3,3.1-4.8,4.5-6.9c1.2-1.9,2.6-3.7,4.1-5.4c1.1-1.1,2.3-2,3.7-2.7
		c0.4-0.2,0.8-0.3,1.2-0.5C208.1,287.3,208.2,287.3,208.4,287.3z"/>
	<path class="st2" d="M184.5,375.2h-0.2l-0.7-0.2c-0.3-0.1-0.7-0.1-1.1-0.2c-0.5-0.1-1-0.1-1.5-0.2c-3.3-0.1-6.5,0.3-9.6,1.2
		c-2.2,0.6-4.3,1.4-6.4,2.3c-2.2,1-4.5,2.2-7,3.4c-2.6,1.3-5.3,2.3-8.1,3.1c-1.5,0.4-3,0.6-4.5,0.7c-1.6,0.1-3.2,0-4.7-0.3
		c-3-0.7-5.9-1.9-8.6-3.5c-2.6-1.5-4.9-3.3-7.1-4.9c-4.4-3.3-8.6-6-12.5-7.2c-1.8-0.6-3.6-0.9-5.5-0.9c-1.4,0-2.8,0.1-4.1,0.5
		c-1.2,0.3-2.3,0.8-3.3,1.3l0.2-0.1l0.6-0.4c0.8-0.4,1.6-0.8,2.5-1c1.4-0.4,2.8-0.6,4.2-0.6c1.9,0,3.8,0.3,5.6,0.8
		c4.1,1.1,8.3,3.9,12.7,7.1c2.2,1.6,4.5,3.3,7.1,4.9c2.6,1.6,5.4,2.8,8.4,3.5c1.5,0.3,3.1,0.4,4.6,0.3c1.5-0.1,3-0.3,4.4-0.7
		c2.8-0.7,5.4-1.8,8-3c2.5-1.2,4.8-2.4,7-3.4c2.1-0.9,4.2-1.7,6.4-2.3c3.2-0.9,6.5-1.3,9.8-1.1C182.2,374.6,183.4,374.8,184.5,375.2
		z"/>
	<path class="st2" d="M85.7,366.3c0,0,0.1,0.1,0.1,0.4c0.1,0.3,0.1,0.7,0.1,1c0.1,1.2,0,2.5-0.2,3.7c-0.3,1.8-1,3.6-2.1,5.1
		c-1.4,1.8-3.1,3.3-5.1,4.4c-2,1.2-4.1,2.3-5.7,3.5c-1.5,1-2.8,2.3-3.9,3.7c-0.7,1-1.1,2.2-1.2,3.4c0,0.9,0.1,1.3,0.1,1.3
		c-0.1-0.1-0.1-0.2-0.1-0.3c-0.1-0.3-0.1-0.7-0.2-1c0-1.3,0.3-2.5,1-3.6c1-1.5,2.4-2.9,3.9-3.9c1.7-1.2,3.7-2.3,5.7-3.5
		c1.9-1.1,3.6-2.5,5-4.2c1.1-1.5,1.8-3.1,2.1-4.9c0.2-1.2,0.3-2.4,0.3-3.6C85.6,367.2,85.6,366.8,85.7,366.3z"/>
	<path class="st2" d="M236.6,324.9c-2.1,0.3-4,1-5.9,1.9c-2,1-3.8,2.3-5.3,4c-0.9,1-1.6,2.1-2.3,3.2c-0.7,1.2-1.1,2.6-1.8,3.9
		c-0.6,1.4-1.5,2.6-2.6,3.5c-1.1,0.9-2.3,1.5-3.6,2c-2.2,0.7-4.5,1-6.8,0.8c-1.5-0.1-3.1-0.3-4.6-0.5c-0.6-0.1-1.1-0.2-1.6-0.4
		c0.6,0,1.1,0.1,1.7,0.1c1.1,0.1,2.6,0.3,4.6,0.4c2.2,0.1,4.5-0.2,6.6-0.9c2.6-0.8,4.8-2.8,5.9-5.3c0.6-1.3,1.1-2.7,1.8-4
		c0.7-1.2,1.5-2.3,2.4-3.3c1.6-1.7,3.4-3.1,5.5-4.1c1.4-0.7,2.9-1.1,4.4-1.4c0.4-0.1,0.8-0.1,1.2-0.1
		C236.3,324.9,236.4,324.9,236.6,324.9z"/>
	<path class="st2" d="M186.9,333.4l-0.2,0.1l-0.7,0.1c-0.6,0.1-1.5,0.3-2.6,0.5c-3.3,0.5-6.6,0.7-9.9,0.7c-4.9,0-9.8-0.9-14.5-2.5
		c-2.7-1-5.4-2.2-7.9-3.7c-2.7-1.6-5.4-2.9-8.3-4c-1.5-0.5-3-0.9-4.5-1c-1.5-0.1-3,0-4.5,0.2c-2.8,0.6-5.5,1.5-8,2.9
		c-4.9,2.6-8.9,5.4-12.6,7.4c-2.9,1.7-6,2.9-9.2,3.6c-0.9,0.2-1.8,0.3-2.7,0.3h-0.7c-0.1,0-0.2,0-0.2,0h0.2l0.7-0.1
		c0.9-0.1,1.8-0.2,2.6-0.4c3.2-0.8,6.3-2,9.1-3.7c3.6-2,7.7-4.9,12.6-7.5c2.6-1.4,5.3-2.4,8.2-3c1.5-0.3,3.1-0.4,4.6-0.2
		c1.6,0.2,3.1,0.5,4.6,1c2.9,1.1,5.7,2.5,8.4,4.1c2.5,1.4,5.1,2.7,7.8,3.7c4.6,1.6,9.4,2.4,14.3,2.5c3.3,0.1,6.6-0.1,9.8-0.5
		c1.2-0.1,2.1-0.3,2.7-0.4l0.7-0.1C186.7,333.4,186.8,333.4,186.9,333.4z"/>
	<path class="st2" d="M89.1,339.2c0.1-0.5,0.1-1-0.1-1.5c-0.6-1.3-1.7-2.3-3.1-2.6c-0.9-0.3-1.9-0.4-2.9-0.6
		c-1.2-0.2-2.3-0.7-3.2-1.5c-1-0.9-1.7-2-2.2-3.2c-0.5-1.3-0.9-2.6-1.2-4c-0.3-1.3-0.6-2.6-1.1-3.9c-0.5-1.2-1.1-2.2-1.9-3.2
		c-1.3-1.7-2.9-3.1-4.8-4.1c-1.3-0.7-2.6-1.1-4-1.4c-1-0.2-1.6-0.2-1.6-0.3c0.1,0,0.3,0,0.4,0c0.4,0,0.8,0,1.2,0.1
		c1.5,0.2,2.9,0.6,4.2,1.3c2,1,3.7,2.4,5,4.1c0.8,1,1.5,2.1,2,3.3c0.5,1.3,0.9,2.6,1.2,4c0.3,1.3,0.6,2.6,1.1,3.9
		c0.5,1.1,1.2,2.2,2.1,3c0.9,0.7,1.9,1.2,3,1.4c1,0.3,2,0.4,2.9,0.7c1.5,0.4,2.7,1.4,3.2,2.9c0.1,0.4,0.1,0.8,0,1.2
		C89.3,338.9,89.2,339,89.1,339.2z"/>
	<path class="st2" d="M168.1,287.9c-0.9-0.5-1.9-0.9-2.9-1.2c-1.2-0.2-2.5-0.2-3.7,0c-1.6,0.3-3.2,0.8-4.7,1.6
		c-1.7,0.8-3.4,1.7-5.4,2.7c-2,1.1-4.2,2-6.4,2.7c-2.5,0.6-5.1,0.7-7.7,0.2c-2.7-0.5-5.4-1.4-7.8-2.6c-5.1-2.5-9.4-5.8-13.5-8.4
		c-3.5-2.5-7.5-4.3-11.6-5.3c-2.8-0.7-5.8-0.7-8.6-0.1c-1,0.3-2,0.6-3,1c0.9-0.5,2-0.9,3-1.2c2.9-0.7,5.9-0.7,8.7-0.1
		c4.2,1,8.2,2.8,11.8,5.3c4.1,2.6,8.4,5.9,13.4,8.4c2.4,1.2,5,2.1,7.7,2.6c2.5,0.4,5,0.4,7.5-0.2c2.2-0.6,4.3-1.5,6.4-2.6
		c1.9-1,3.7-2,5.4-2.7c1.5-0.7,3.1-1.2,4.8-1.5c1.3-0.2,2.5-0.2,3.8,0.1c0.8,0.2,1.5,0.5,2.2,0.9
		C167.7,287.6,167.9,287.7,168.1,287.9z"/>
	<path class="st6" d="M162.5,414.8l2.8,1.4h16l3.2-2.6l-11.6-19.3c-1.4,0.6-7.7,1.6-9.7,2.3c-1.8,0.6-3.6,0.9-5.4,0.9
		c-2.1,0-4.1-0.1-6.2-0.5l-0.4-0.1c-0.3-0.1-0.6-0.2-0.9-0.2c-1.7-0.1-3.1,1.7-2.1,3.1s5.7,3.3,11.7,3.2h0.3c5.3,0,0.4,4.4-2.7,7.1
		c-1.1,0.9-1.7,2.3-1.5,3.8c0,0.5,0.3,1,0.7,1.3C157.9,416,162.5,414.8,162.5,414.8z"/>
	<path class="st3" d="M97.2,412.4c0-0.1,0-0.2,0-0.3c0-0.2,0-0.5,0-0.8c0-0.8,0.1-1.8,0.1-3.2c0.1-2.8,0.3-6.8,0.5-11.7
		c0.4-9.9,1-23.6,1.6-38.6s1-28.8,1.3-38.6c0.1-4.9,0.2-8.9,0.2-11.7c0-1.4,0.1-2.4,0.1-3.2c0-0.3,0-0.6,0-0.8c0-0.1,0-0.2,0-0.3
		c0,0.1,0,0.2,0,0.3c0,0.2,0,0.5,0,0.8c0,0.8,0,1.8,0,3.2c0,2.8,0,6.8-0.1,11.7c-0.1,9.9-0.5,23.6-1.1,38.7s-1.2,28.8-1.8,38.6
		c-0.3,4.9-0.5,8.9-0.7,11.7c-0.1,1.4-0.2,2.4-0.2,3.2l-0.1,0.8C97.1,412.2,97.1,412.3,97.2,412.4z"/>
	<path class="st3" d="M140.7,414.3c0-0.1,0-0.2,0-0.4c0-0.3-0.1-0.6-0.1-1.1l-0.3-4.2c-0.1-1.8-0.3-4.1-0.4-6.7s-0.3-5.5-0.3-8.8
		s-0.1-6.9-0.1-10.7c0-1.9,0-3.9,0-6s0.1-4.2,0.1-6.3c0.2-8.6,0.7-18.1,1.4-28.1c1.4-19.9,3.2-37.9,4.3-51c0.6-6.5,1-11.8,1.3-15.4
		c0.1-1.8,0.3-3.2,0.4-4.2c0.1-0.5,0.1-0.8,0.1-1.1s0.1-0.4,0.1-0.4c0,0.1,0,0.2,0,0.4l-0.1,1.1c-0.1,1-0.2,2.4-0.3,4.2
		c-0.2,3.6-0.6,8.9-1.2,15.5c-1.1,13-2.8,31-4.2,51c-0.7,10-1.2,19.5-1.4,28.1c0,2.2-0.1,4.3-0.2,6.3s0,4-0.1,6
		c-0.1,3.8,0,7.4,0,10.7s0.1,6.2,0.2,8.8s0.2,4.8,0.3,6.7s0.1,3.2,0.2,4.2v1.1C140.7,414.1,140.7,414.2,140.7,414.3z"/>
	<path class="st3" d="M148.1,315.8c-0.1,0,0.5-0.3,1.1,0.2c0.4,0.3,0.5,0.8,0.5,1.3c-0.2,0.8-1,1.3-1.8,1.1c-0.4-0.1-0.7-0.3-1-0.7
		c-0.2-0.4-0.2-0.9,0.1-1.4C147.4,315.7,148,315.8,148.1,315.8c-0.1,0.1-0.5,0.2-0.7,0.8c-0.1,0.3-0.1,0.7,0,1
		c0.4,0.5,1,0.5,1.5,0.2c0.2-0.1,0.3-0.3,0.4-0.5c0-0.3-0.1-0.7-0.3-0.9C148.5,315.9,148.1,315.9,148.1,315.8z"/>
	<path class="st3" d="M145.2,360.7c-0.1,0,0.5-0.3,1.1,0.2c0.4,0.3,0.5,0.8,0.5,1.3c-0.1,0.6-0.6,1.1-1.2,1.1
		c-0.6,0.1-1.2-0.2-1.5-0.7c-0.2-0.4-0.2-0.9,0.1-1.4C144.6,360.6,145.2,360.7,145.2,360.7c-0.1,0.1-0.5,0.2-0.7,0.8
		c-0.2,0.3-0.2,0.7,0,1c0.3,0.5,0.9,0.6,1.4,0.3c0.2-0.1,0.4-0.4,0.5-0.6c0-0.3-0.1-0.7-0.3-0.9
		C145.7,360.7,145.2,360.8,145.2,360.7z"/>
	<path class="st2" d="M217,391.6c-0.5,0-0.9-0.1-1.3-0.2c-1.2-0.3-2.4-0.6-3.5-1.1c-3.8-1.7-6.9-4.5-9-8c-1.1-2-1.9-4.1-2.5-6.2
		c-0.5-1.7-1.2-3.4-2.2-4.9c-0.7-1-1.5-1.9-2.5-2.5c-0.7-0.5-1.2-0.6-1.2-0.6c0.1,0,0.2,0,0.3,0.1c0.3,0.1,0.6,0.2,0.9,0.4
		c1.1,0.6,2,1.5,2.7,2.5c1,1.5,1.8,3.2,2.4,5c0.6,2.1,1.4,4.2,2.5,6.1c2,3.5,5.1,6.3,8.7,8C213.8,390.6,215.4,391.2,217,391.6z"/>
</g>
<g id="freepik--character-2--inject-2">
	<path class="st4" d="M319.4,416.2l-17-49.3l7.9-47.3c2.3-12.8,3.6-24,0.1-30.4c-9.2-17.1-20.2-18.7-35.4-22.6
		c-3.1-0.8-26.9-1.6-29.5-1c-20.6,2.3-33.8,13.2-41,31l-7.8,31.6l-10.8,33c-1.8,3.9-5.3,6.7-9.5,7.7L135,383l0.4,8.1l-0.4,11
		l55.3-10.4c11.1-2.1,22.3-6.2,25.5-16.9l6-17.6c2.9,7.5,6.1,14.3,6.1,14.3l-4,44.4L319.4,416.2z"/>
	<path class="st4" d="M305.2,328.5l-15.8,52.8c-2.4,8.2-8.8,14.6-17,17.1L206.6,416l-8.7-22.7l59.4-22.1l14.6-52.9
		c0,0,3.4-29.6,30.1-28.1"/>
	<path class="st3" d="M302.1,290.2h-0.8c-0.5,0-1.3-0.1-2.3,0c-3,0.1-6,0.7-8.8,1.8c-2,0.8-3.9,1.9-5.7,3.2
		c-2.1,1.6-3.9,3.4-5.4,5.5c-3.7,5.2-6,11.2-6.9,17.5l0,0c-4,14.7-9,32.7-14.5,52.9v0.1h-0.1L198,393.5l0.1-0.3l1.6,4
		c2.4,6.4,4.9,12.7,7.2,18.7l-0.3-0.2l56.5-15l6.4-1.7c1-0.3,2.1-0.5,3.1-0.8c1-0.3,2-0.7,2.9-1.1c5.5-2.5,9.9-6.8,12.4-12.3
		c0.8-1.7,1.4-3.4,1.9-5.2c1.1-3.5,2.1-6.8,3-10c3.9-12.7,6.9-23,9.1-30l2.5-8.1l0.6-2.1c0.1-0.5,0.2-0.7,0.2-0.7s-0.1,0.2-0.2,0.7
		s-0.3,1.2-0.6,2.1c-0.5,1.9-1.4,4.6-2.4,8.1l-8.9,30.1c-0.9,3.2-1.9,6.5-3,10c-0.5,1.8-1.1,3.6-1.9,5.3c-0.8,1.8-1.8,3.5-3,5
		c-2.5,3.3-5.8,5.9-9.6,7.6c-1,0.4-2,0.8-3,1.1c-1,0.3-2.1,0.6-3.1,0.9l-6.4,1.7l-56.5,15.1l-0.2,0.1l-0.1-0.2
		c-2.3-6-4.7-12.3-7.2-18.7l-1.6-4l-0.1-0.2l0.2-0.1l59.4-22.1l-0.1,0.2c5.6-20.2,10.6-38.2,14.6-52.9l0,0
		c0.9-6.4,3.3-12.4,7.1-17.6c1.6-2.1,3.4-4,5.5-5.6c1.8-1.3,3.7-2.4,5.7-3.2c2.8-1.1,5.8-1.7,8.9-1.7c0.8,0,1.6,0,2.3,0L302.1,290.2
		z"/>
	<path class="st3" d="M260.6,359.3c-0.3,0.1-0.5,0.1-0.8,0.1c-0.7,0-1.4-0.1-2.1-0.2c-2.3-0.5-4.5-1.7-6.2-3.3
		c-1.8-1.6-3.2-3.6-4.1-5.8c-0.2-0.4-0.3-0.8-0.4-1.2c-0.1-0.3-0.2-0.6-0.2-0.9c-0.1-0.5-0.1-0.8-0.1-0.8s0.3,1.1,1,2.7
		c1,2.1,2.3,4,4.1,5.5c1.7,1.6,3.8,2.7,6,3.3C259.5,359.2,260.6,359.2,260.6,359.3z"/>
	<path class="st3" d="M221.6,319.1c-0.1,0.5-0.3,1.1-0.5,1.5c-0.4,1-1,2.4-1.6,4.2c-1.3,3.5-3.1,8.5-3.3,14.3
		c-0.1,2.7,0.3,5.4,1.1,8c0.7,2.1,1.6,4.1,2.7,6c0.8,1.3,1.6,2.5,2.5,3.7c0.4,0.4,0.7,0.9,1,1.3c0,0-0.1-0.1-0.3-0.3
		s-0.5-0.5-0.8-0.9c-1-1.1-1.9-2.4-2.7-3.6c-1.2-1.9-2.1-3.9-2.9-6.1c-0.8-2.6-1.2-5.4-1.1-8.1c0.3-5,1.5-9.9,3.5-14.4
		c0.7-1.8,1.4-3.2,1.8-4.1C221,320.1,221.3,319.6,221.6,319.1z"/>
	<path class="st3" d="M263.1,378.2c-0.6-1.5-1.4-2.8-2.4-4.1c-1.1-1.1-2.3-2.2-3.7-3c0.5,0,1,0.2,1.4,0.5c2.1,1.1,3.7,3,4.5,5.2
		C263.1,377.2,263.2,377.7,263.1,378.2z"/>
	<path class="st10" d="M199.1,396.4c0,0-18.8,1.7-18.6,13.9l23.4-1.2L199.1,396.4z"/>
	<path class="st3" d="M229.5,191.7c-1.7,8.3-3.4,16.7-4.9,25c-2,10.6-3.8,21.6-0.8,32c1.6,5.7,4.7,10.8,7.6,15.9
		c1.7,2.9,3.5,5.9,6.5,7.4c4,2,9.2,0.4,12.4-2.8s4.9-7.6,6-12c2.2-8.5,2.6-17.4,3-26.2s0.5-18-2-26.5s-8.1-16.6-16.3-20"/>
	<path class="st3" d="M230.8,185c2.4-1.8,5.2-2.9,8.2-3.1c2.4-4.9,8.1-7.1,13.4-8.1c7.8-1.5,7-1.7,14.3,1.5s17.7,12.3,19,20.2
		c1.2,6.9,3.4,13.6,6.6,19.9c2,4.1,5.9,7,8.2,11c2.5,4.4,2.9,9.7,1,14.4c-1.9,4.5-5.9,8.5-5.5,13.4c0.2,2.8,0.1,4.9,1.2,7.5
		c3.8,8.8,2,20.6-6.1,25.7s-19.9,3.3-26.2-4c-5.5-6.3-6.5-15.3-6-23.7c0.5-8.3,2.4-16.6,1.9-25"/>
	<path class="st3" d="M240.1,416l-0.1-2.9l-42.4-4.5l-18.6-53.4l-79.6-1.8l24.1,62.6C162.9,416.3,201.8,416.3,240.1,416z"/>
	<path class="st1" d="M143.6,385.5c1.1,2,3.7,2.7,5.7,1.5c2-1.1,2.7-3.7,1.5-5.7c-1.1-2-3.7-2.7-5.7-1.5c0,0,0,0,0,0
		C143.2,381,142.5,383.5,143.6,385.5z"/>
	<path class="st10" d="M259.5,287.1c9.5,0,18.1-8.1,17.8-20.2l1.7-69l0,0c0.1-3-2.2-5.5-5.2-5.9l-28.4-3c-9.5-1-18,5.9-19,15.4
		c0,0.2,0,0.5-0.1,0.7c-0.7,10.9-1.1,24.3,0.2,32.4c2.6,16.4,15.2,18.5,15.2,18.5l-0.3,11.5C240.9,279.8,250,287.1,259.5,287.1
		L259.5,287.1z"/>
	<path class="st3" d="M232.7,214.1c0,1.1,0.9,2.1,2,2.1c1.1,0.1,2.1-0.7,2.2-1.8c0,0,0,0,0-0.1c0-1.1-0.9-2.1-2-2.1
		C233.7,212.1,232.8,213,232.7,214.1C232.7,214.1,232.7,214.1,232.7,214.1z"/>
	<path class="st3" d="M229.2,212.2c0.3,0.3,1.9-0.9,4.1-0.9s3.9,1.1,4.2,0.9c0.1-0.1-0.1-0.6-0.9-1.1c-1-0.7-2.2-1-3.3-1
		c-1.2,0-2.3,0.4-3.3,1.1C229.3,211.6,229.1,212.1,229.2,212.2z"/>
	<path class="st3" d="M254.5,214.5c0,1.1,0.9,2.1,2,2.1c1.1,0.1,2.1-0.7,2.2-1.8c0,0,0,0,0-0.1c0-1.1-0.9-2.1-2-2.1
		C255.6,212.6,254.6,213.4,254.5,214.5C254.5,214.5,254.5,214.5,254.5,214.5z"/>
	<path class="st3" d="M251.5,212.6c0.3,0.3,1.9-0.9,4.1-0.9s3.9,1.1,4.2,0.9c0.1-0.1-0.1-0.6-0.9-1.1c-1-0.7-2.1-1-3.3-1
		c-1.2,0-2.3,0.4-3.3,1.1C251.6,212,251.3,212.5,251.5,212.6z"/>
	<path class="st3" d="M243.3,229.4c-1.2-0.4-2.4-0.6-3.7-0.7c-0.6-0.1-1.1-0.2-1.2-0.6c0-0.6,0.1-1.2,0.4-1.7
		c0.5-1.4,1.1-2.9,1.7-4.4c2.4-6.3,4.1-11.4,3.8-11.5s-2.4,4.9-4.8,11.2c-0.6,1.5-1.1,3-1.6,4.4c-0.4,0.7-0.5,1.5-0.3,2.3
		c0.2,0.4,0.5,0.7,1,0.9c0.3,0.1,0.7,0.1,1,0.1C240.8,229.5,242,229.5,243.3,229.4z"/>
	<path class="st11" d="M241.7,256.2c7.7,0.1,15.3-1.9,22-5.9c0,0-5.3,11.3-21.7,9.7L241.7,256.2z"/>
	<path class="st11" d="M244.2,234.8c0.9-1.1,2.3-1.7,3.6-1.5c1,0.1,1.9,0.6,2.6,1.4c0.6,0.8,0.7,1.9,0.2,2.7c-0.7,0.8-1.9,1.1-3,0.8
		c-1.1-0.4-2-1-2.9-1.7c-0.3-0.2-0.5-0.4-0.6-0.7c-0.2-0.3-0.2-0.6,0-0.9"/>
	<path class="st3" d="M249.9,230.9c-0.4,0-0.4,2.4-2.5,4.2s-4.7,1.5-4.7,1.8c0,0.1,0.6,0.5,1.7,0.5c1.5,0,2.9-0.5,4-1.4
		c1.1-0.9,1.8-2.1,1.9-3.5C250.4,231.5,250.1,230.9,249.9,230.9z"/>
	<path class="st3" d="M250.5,208.6c0.2,0.6,2.5,0.3,5.1,0.6s4.8,1,5.1,0.5c0.2-0.3-0.2-0.8-1.1-1.4c-1.1-0.7-2.5-1.2-3.8-1.3
		c-1.4-0.2-2.7,0-4,0.5C250.9,207.9,250.4,208.4,250.5,208.6z"/>
	<path class="st3" d="M230.1,205.6c0.4,0.5,2,0,3.8,0s3.5,0.3,3.8-0.2c0.2-0.3-0.1-0.8-0.8-1.3c-1.9-1.2-4.3-1.1-6.2,0.2
		C230.1,204.9,229.9,205.4,230.1,205.6z"/>
	<path class="st3" d="M226.7,202.5c6.2-3.6,12.2-6.9,16-12.9c2.1,6,6.3,9,11.8,12.2s11.7,5.1,17.8,6.9c-3.1,3-3.5,7.9-2.8,12.1
		s2.3,8.3,2.6,12.6c0.4,5.7-1.8,11.4-1.9,17.1c-0.2,7.9,3.3,15.3,6.7,22.5l14.8-8.6l-2.1-38.5l0.2-27.2l-23.1-21.5l-29.2,3.2
		L226.7,202.5z"/>
	<path class="st8" d="M223.4,283.4c7.5,7.6,6.7,21.1,15,27.9c5.1,4.2,12.5,4.5,18.7,2.5s11.4-6.4,16.2-10.8s9.3-9.3,14.8-12.9
		c5.3-3.5,14.4-5.7,15.6-11.9c0.9-4.6-3.9-10-4.8-14.6c-1.4-7.3,6.4-12.9,7.7-20.2c2.6-14.5-5.1-31.6-13.1-44s-12.5-26.4-32.8-27.5
		c-18.1-0.8-30.5,7.9-36.5,20.5c-3,6.3-3.7,13.4-4.3,20.4c-1.4,16.3-2.1,33.6,5.4,48.1c1.6,3,3.4,6.8,1.3,9.5
		c-1.9,2.4-6.3,2.3-7.5,5.2S221.1,281.1,223.4,283.4z M246,186.7c2.4-0.1,9.6,0,17.7,10.7c4.8,6.4,4.8,16.8,4.7,25.8
		c-0.1,6.7,0,23.8,0,23.8s1.1,21.5-6.2,23.4c-9,2.3-16.8,0.7-23.5-5.7s-10.5-15.4-12.1-24.5s-2.4-18.5-1.2-27.6
		c0.6-5.6,2.5-11.1,5.5-15.9C234.2,191.4,239.7,187.7,246,186.7z"/>
	<g class="st12">
		<path d="M302.1,271c-6,3.3-10.1,8.1-15,12.9s-10.3,9.4-17,11.1s-14.7-0.3-18-6.3c18.8,3.2,40.6-11.8,47-29.7
			c-0.4,1.6-0.4,3.2-0.1,4.8C299.9,266.2,300.9,268.6,302.1,271z"/>
	</g>
	<g class="st12">
		<path d="M227.4,266c1.3,4.9,4.6,9.1,9.1,11.5c1,0.4,2,1,2.9,1.7c0.9,0.7,1.2,1.9,0.9,3c-0.7,1.1-2,1.6-3.2,1.2
			c-1.2-0.5-2.2-1.2-3-2.1c-3.3-3.2-6.6-6.4-7.6-10.8c0.5-0.6,0.9-1.4,1.1-2.2C227.6,267.5,227.5,266.8,227.4,266z"/>
	</g>
	<path class="st3" d="M297.6,262.5c-0.1,0.2-0.2,0.4-0.3,0.6c-0.2,0.4-0.5,0.9-0.9,1.6c-1.2,2-2.5,3.8-3.9,5.6
		c-2.1,2.7-4.4,5.2-6.9,7.5c-3,2.8-6.5,5.2-10.2,7.1c-2,0.9-4,1.6-6.1,2.2c-1.9,0.6-3.9,1-5.9,1.3c-3.3,0.5-6.8,0.7-10.1,0.4
		c-2.3-0.2-4.5-0.6-6.7-1.3c-0.8-0.2-1.4-0.5-1.8-0.6c-0.2-0.1-0.4-0.1-0.6-0.2c0,0,0.9,0.2,2.4,0.6c2.2,0.6,4.4,0.9,6.7,1.1
		c3.3,0.2,6.7,0.1,10-0.5c2-0.3,3.9-0.8,5.8-1.3c2-0.6,4-1.3,6-2.1c3.7-1.8,7.1-4.2,10.1-7c2.5-2.3,4.8-4.7,6.9-7.3
		c1.4-1.8,2.8-3.6,4-5.5c0.5-0.7,0.8-1.2,1-1.6C297.3,262.8,297.4,262.7,297.6,262.5z"/>
	<path class="st3" d="M251.5,281.1c-0.4,0.2-0.8,0.3-1.2,0.3c-1.1,0.2-2.2,0.3-3.3,0.3c-7.6,0-14.6-4.2-18.2-10.9
		c-0.5-1-1-2-1.3-3.1c-0.1-0.4-0.2-0.8-0.3-1.2c0.6,1.4,1.2,2.8,1.9,4.1c3.6,6.5,10.4,10.6,17.9,10.7
		C249.8,281.4,251.5,281,251.5,281.1z"/>
	<path class="st3" d="M247.6,305.9c0.2-0.1,0.4-0.1,0.6-0.1c0.4-0.1,1-0.2,1.7-0.4c2.1-0.4,4.1-1,6.1-1.7c6.5-2.3,12.7-5.6,18.3-9.8
		c5.6-4.2,10.8-8.7,15.8-13.6l4.5-4.4c0.5-0.5,0.9-0.9,1.2-1.2c0.1-0.1,0.3-0.3,0.5-0.4c-0.1,0.2-0.2,0.3-0.4,0.5l-1.2,1.3
		c-1,1.1-2.5,2.6-4.4,4.5c-4.9,5-10.1,9.6-15.7,13.8c-5.6,4.2-11.8,7.5-18.5,9.7c-2,0.7-4.1,1.2-6.1,1.5c-0.7,0.1-1.3,0.2-1.7,0.2
		C248,305.8,247.8,305.9,247.6,305.9z"/>
</g>
<g id="freepik--character-3--inject-2">
	<path class="st4" d="M599.8,326.8l-35.3-41.6l-0.1,0.1c-1.4-1.4-2.6-2.6-3.2-3.3c-12.2-14.2-21.9-19-40.6-19.3l0,0l-36.4,0.8
		c-6.8,0.6-22.1-2.3-36.3,16.5l0,0c-25.9,32.4-46.6,59.9-45.4,72.9c1.5,16.5,64.2,63.4,64.2,63.4l86.2-0.1l-0.2-6.6l37.2-24.1
		c13.4-9.1,20.4-17,22.1-29C613.6,345.8,607,334.8,599.8,326.8z M441.8,351.6c0-2.5,13.6-18.5,21-27l3.8,36.8l-0.7,14.4L441.8,351.6
		z M551.2,374.3l-2-48.5l0,0l28.1,29.1L551.2,374.3z"/>
	<path class="st0" d="M433.6,378.7l63.7-31.5c1.7-0.8,3.7-0.1,4.6,1.6l20.6,41.7c0.8,1.7,0.1,3.7-1.6,4.6l-63.7,31.5
		c-1.7,0.8-3.7,0.1-4.6-1.6L432,383.2C431.2,381.6,431.9,379.5,433.6,378.7z"/>
	<path class="st1" d="M477,382.9c1.9-1.1,4.3-0.6,5.4,1.3c1.1,1.9,0.6,4.3-1.3,5.4c-1.9,1.1-4.3,0.6-5.4-1.3c0,0,0,0,0,0
		C474.6,386.5,475.1,384,477,382.9z"/>
	<path class="st3" d="M548.6,291.2c0,0.1,0,0.2,0,0.3c0,0.2,0,0.5,0,0.9c0,0.9,0,2,0,3.6c0,3.1,0.1,7.6,0.1,13.1
		c0.1,11.1,0.5,26.4,1.3,43.3s1.7,32.2,2.2,43.3c0.2,5.5,0.4,10,0.5,13.1c0,1.5,0.1,2.7,0.1,3.6c0,0.4,0,0.7,0,0.9
		c0,0.1,0,0.2,0,0.3c0-0.1,0-0.2,0-0.3c0-0.2,0-0.5-0.1-0.9c0-0.9-0.1-2-0.2-3.6c-0.2-3.1-0.4-7.6-0.7-13.1
		c-0.6-11.1-1.4-26.4-2.4-43.3s-1.2-32.3-1.2-43.4c0-5.5,0-10,0.1-13.1c0-1.5,0-2.7,0-3.6c0-0.4,0-0.7,0-0.9
		C548.5,291.4,548.6,291.3,548.6,291.2z"/>
	<path class="st4" d="M458.8,269.4c4.6-3.4,9.9-2.3,14.6,1s7.2,9,7.6,14.7s-1,11.4-3.2,16.6c-3.5,8.4-8.6,15.2-16.3,23.9l-19.8,26
		l38.1,37.2l-15.8,24.9l-31.9-25.7c-10.9-9.2-20.2-18.6-27-28.4"/>
	<path class="st3" d="M405.2,359.7l0.2,0.3l0.7,0.9c0.6,0.8,1.5,2,2.7,3.5c3.4,4.3,7.1,8.3,11,12.2c2.5,2.5,5.4,5.2,8.5,8
		s6.8,5.6,10.6,8.7l25.4,20.4l-0.4,0.1c4.9-7.8,10.2-16.2,15.8-25v0.3L460,369.9l-18.5-18l-0.2-0.1l0.1-0.2
		c7-9.1,13.6-17.9,19.8-25.9l0,0c3.8-4.1,7.3-8.5,10.4-13.1c2.9-4.2,5.2-8.7,6.9-13.5c1.6-4.2,2.4-8.7,2.2-13.3
		c-0.2-3.8-1.3-7.5-3.4-10.7c-1.7-2.6-4-4.7-6.8-6.1c-2-1.1-4.3-1.6-6.6-1.5c-1.4,0.1-2.8,0.5-4,1.2c-0.9,0.5-1.3,0.8-1.3,0.8
		l0.3-0.2c0.3-0.2,0.6-0.4,0.9-0.6c1.3-0.7,2.6-1.1,4.1-1.3c2.3-0.2,4.6,0.3,6.7,1.4c2.8,1.4,5.2,3.5,6.9,6.1
		c2.1,3.3,3.3,7,3.5,10.9c0.2,4.5-0.6,9-2.1,13.3c-1.7,4.8-4,9.4-6.9,13.6c-3.2,4.6-6.7,9-10.5,13.2l0,0c-6.2,8.1-12.8,16.8-19.8,26
		v-0.3l18.5,18l19.7,19.2l0.2,0.1l-0.1,0.2c-5.6,8.8-10.9,17.2-15.8,24.9l-0.1,0.2l-0.2-0.2l-25.4-20.5c-3.8-3.1-7.4-5.9-10.5-8.7
		s-6-5.5-8.5-8c-3.9-3.9-7.6-8-11-12.3c-1.2-1.5-2-2.7-2.6-3.5c-0.3-0.4-0.5-0.7-0.6-0.9S405.2,359.7,405.2,359.7z"/>
	<path class="st3" d="M591,354.1c-0.7-0.2-1.3-0.4-2-0.6c-3.2-1-6.7-0.8-9.7,0.5c-0.6,0.3-1.3,0.6-1.9,0.8c0.5-0.5,1.1-0.9,1.8-1.2
		c3.1-1.6,6.7-1.8,10-0.5C589.8,353.4,590.4,353.7,591,354.1z"/>
	<path class="st13" d="M487.8,412.6l-6.9,3.5c-3.4,1.7-7.6,1.2-10.5-1.2l-4.3-3.5l12-18.9c1.4,0.6,7.2,1.4,9.2,2.1
		c1.7,0.6,3.6,0.9,5.4,0.9c2,0,4.1-0.1,6.1-0.5c0.1,0,0.3-0.1,0.4-0.1c0.3-0.1,0.6-0.2,0.9-0.1c1.7-0.2,3.1,1.6,2.1,3
		s-5.6,3.3-11.6,3.1h-0.3c-5.2,0-0.4,4.4,2.7,7c1.1,0.9,1.7,2.3,1.5,3.8c0,0.5-0.3,1-0.7,1.3C492.3,413.8,487.8,412.6,487.8,412.6z"
		/>
	<path class="st13" d="M503.9,280.1c-9.2,0-17.5-7.8-17.4-19.5l-1.7-66.5h0.2c-0.1-2.9,2.1-5.3,5-5.6l27.4-2.9
		c9.2-1,17.4,5.7,18.4,14.8c0,0.2,0,0.5,0.1,0.7c0.7,10.5,1.1,23.4-0.2,31.3c-2.5,15.8-14.6,17.8-14.6,17.8l0.3,11
		C521.8,273,512.9,280.1,503.9,280.1L503.9,280.1z"/>
	<path class="st3" d="M529.7,209.7c0,1.1-0.9,2-2,2c-1.1,0.1-2-0.7-2.1-1.8c0,0,0,0,0-0.1c0-1.1,0.9-2,2-2
		C528.7,207.9,529.6,208.7,529.7,209.7z"/>
	<path class="st3" d="M533,207.8c-0.2,0.3-1.8-0.9-4-0.9s-3.8,1.1-4,0.8s0.1-0.6,0.8-1.1c0.9-0.7,2.1-1,3.2-1c1.1,0,2.2,0.3,3.2,1
		C532.9,207.3,533.1,207.7,533,207.8z"/>
	<path class="st3" d="M508.6,210.1c0,1.1-0.8,2-1.9,2c0,0,0,0-0.1,0c-1.1,0.1-2-0.8-2.1-1.8c0-1.1,0.8-2,1.9-2c0,0,0,0,0.1,0
		C507.6,208.2,508.5,209,508.6,210.1z"/>
	<path class="st3" d="M511.6,208.3c-0.2,0.3-1.8-0.9-4-0.9s-3.8,1.1-4,0.8c-0.1-0.1,0.1-0.6,0.8-1.1c0.9-0.7,2.1-1,3.2-1
		c1.1,0,2.2,0.3,3.2,1C511.5,207.7,511.7,208.1,511.6,208.3z"/>
	<path class="st3" d="M519.5,224.4c1.1-0.4,2.3-0.6,3.5-0.6c0.6-0.1,1.1-0.2,1.2-0.5c0-0.6-0.1-1.2-0.4-1.6
		c-0.5-1.4-1.1-2.8-1.7-4.2c-2.3-6-3.9-11-3.7-11.1s2.3,4.7,4.6,10.8c0.6,1.5,1.1,2.9,1.6,4.3c0.4,0.7,0.5,1.4,0.3,2.2
		c-0.2,0.4-0.5,0.7-0.9,0.8c-0.3,0.1-0.6,0.1-1,0.1C521.9,224.6,520.7,224.6,519.5,224.4z"/>
	<path class="st14" d="M521,250.2c-7.4,0.1-14.8-1.8-21.2-5.6c0,0,5.5,11.9,21.3,10.4L521,250.2z"/>
	<path class="st3" d="M512.5,204.4c-0.2,0.6-2.4,0.3-5,0.6s-4.6,1-5,0.5c-0.2-0.3,0.2-0.8,1-1.4c2.3-1.4,5-1.7,7.6-0.8
		C512.2,203.7,512.7,204.2,512.5,204.4z"/>
	<path class="st3" d="M532.2,201.5c-0.4,0.5-1.9,0-3.7,0s-3.3,0.3-3.7-0.2c-0.2-0.2,0.1-0.7,0.8-1.2c0.9-0.6,1.9-0.9,3-0.8
		c1.1,0,2.1,0.4,2.9,1C532.2,200.8,532.4,201.3,532.2,201.5z"/>
	<path class="st3" d="M485,209.2c2.7-0.5,4.8,0.4,5.6,3c1.1,4,0.4,5.9,0.5,8.6l4-1.2c-1-9.1,1.3-15.9,0.3-25
		c5.6,1.8,13.2-1.6,15.6-7.4c4.8,3.5,11.2,4,16.5,1.2c1.3,2.4,4.1,3.7,6.8,3.2c3-0.9,6.2-5.1,7-8.1c1.6-5.4,0.8-13.3-3.6-16.8
		s-13.3-2.7-16.7,1.8c-1.4,1.8-1.5,5.1-3.7,5.5c-2,0.4-3.7-1-5.5-1.9c-5.5-2.8-13.2,0.9-14.6,6.9c-4.6-2.8-10.3-4.6-15.5-3.1
		s-9.3,7.2-7.6,12.4c0.7,2.1,2.4,4,2.6,6.2c0.3,4.4-4.9,8.3-3.2,12.3c0.9,2.3,3.7,3.3,4.9,5.4c1.4,2.4,0.5,5.3,0.6,8.1
		c0.2,4.6,2.5,11.3,6.9,12.6"/>
	<path class="st13" d="M485.4,209.2c-1.4,0.2-2.5,1.1-3,2.4c-0.6,1.2-0.9,2.5-0.8,3.9c-0.1,2.1,0.6,4.2,1.9,5.8
		c1.4,1.6,3.6,2.2,5.6,1.4"/>
	<path class="st14" d="M488.1,219.3c0,0-0.6,0.3-1.5-0.1c-0.5-0.2-1-0.6-1.4-1c-0.4-0.6-0.7-1.3-0.7-2c0-0.7,0.1-1.4,0.4-2
		c0.3-0.5,0.7-0.9,1.1-1.3c0.8-0.5,1.5-0.5,1.5-0.5c-0.4,0.2-0.8,0.5-1.2,0.8c-0.9,0.7-1.3,1.9-1.2,3c0.1,1.1,0.7,2.1,1.7,2.6
		C487.2,219,487.7,219.2,488.1,219.3z"/>
	<path class="st2" d="M512.5,232.2c2,1.4,5.8,0.6,7.2-1.4c-3.1-1.7-5.9-3.7-8.4-6.1C511.4,224.6,508.5,229.3,512.5,232.2z"/>
	<path class="st11" d="M519,236.8c-0.8-0.3-1.7-0.5-2.5-0.6c-0.9,0.1-1.7,0.3-2.5,0.6c0,0,0.2-0.3,0.6-0.6c1.2-0.7,2.7-0.7,3.9,0
		C518.9,236.5,519.1,236.7,519,236.8z"/>
</g>
<g id="freepik--character-4--inject-2">
	<path class="st15" d="M494.7,300.8c4.2-6.2,8.1-12.7,11.5-19.4c4.1-7.9,3.4-8.3,2.4-8.6c-2.7-1-7.8,13.6-8.5,9.8s8.3-17,5.5-17.8
		c-3.7-1.1-8.8,14.2-9.3,15.4s-2.3,0.5-1.8-0.6c0.8-1.6,8.4-18.6,4.8-19.7c-2-0.6-2.7,3.1-2.7,3.1s-6,16.5-7.7,15.9
		s1.5-10.4,2.8-13.6s0.3-5.1-1.5-4.6c-1.3,0.4-5.5,10.1-6.8,13.4s-4.4,12.1-6.4,6.4c0-0.1-0.1-0.2-0.1-0.3c-1.8-5.7-5-9.5-6.7-10
		s-2.9,1.4-2.2,3c0.1,0.3,0.2,0.5,0.4,0.8c0.1,0.1,0.2,0.2,0.3,0.4c1,1.8,1.8,3.7,2.4,5.6c0.6,1.7,0.9,3.6,0.9,5.4
		c0,2.1,1,8.3,0.9,9.9"/>
	<path class="st8" d="M472,292.7l-24.2,48c0,0-13.7-39.6-21.1-55.3c-2.8-6-8.5-10.2-13.9-12.9v-0.1l-1.1-0.5
		c-3.9-1.9-8-3.3-12.2-4.2c-25.5-7.3-49.6-4.8-77.4,5c0,0-14.5,3.9-21.5,22.7c-6.3,17-13.4,43-14.6,47.6
		c-8.7,29.2,3.7,45.4,20.9,43.4c7.1-1.1,13.1-7,15.8-9.3l9.1-8.6l0.2,6.6L322,416.2l104.7-0.2l-18.9-48.5l4.2-22.2l7.2,17.1
		c6.4,15.2,24,22.4,39.2,16c7-2.9,12.6-8.4,15.7-15.3l24.5-61.7L472,292.7z"/>
	<path class="st3" d="M345.9,352.6c-0.3,0.5-0.6,0.9-0.9,1.4c-0.6,0.8-1.6,2-2.8,3.5c-2.4,2.9-5.9,6.8-9.9,11s-7.9,7.7-10.8,10.1
		c-1.4,1.2-2.6,2.2-3.5,2.8c-0.4,0.4-0.9,0.7-1.3,1c0.4-0.4,0.8-0.8,1.2-1.1c0.8-0.7,2-1.7,3.4-3c2.8-2.5,6.6-6.1,10.6-10.2
		s7.5-8,10-10.8c1.2-1.4,2.2-2.6,2.9-3.4C345.1,353.3,345.5,352.9,345.9,352.6z"/>
	<path class="st3" d="M408.2,366c0-0.2,0-0.4,0-0.6c0.1-0.4,0.2-0.9,0.3-1.6l1.1-5.8c0.9-4.9,2.2-11.7,3.2-19.2
		c0.3-1.9,0.5-3.7,0.7-5.5c0.2-1.7,0.3-3.4,0.3-5.1c-0.2-2.9-0.6-5.8-1.3-8.6c-0.5-2.4-1-4.4-1.3-5.8c-0.1-0.7-0.2-1.2-0.3-1.6
		c0-0.2,0-0.4,0-0.6c0.1,0.2,0.1,0.4,0.1,0.5c0.1,0.4,0.2,0.9,0.4,1.6c0.3,1.4,0.9,3.3,1.5,5.7c0.7,2.8,1.2,5.8,1.4,8.7
		c0.1,1.7,0,3.5-0.3,5.2c-0.2,1.8-0.4,3.6-0.7,5.5c-1,7.6-2.3,14.4-3.3,19.2c-0.5,2.4-0.9,4.4-1.2,5.8c-0.1,0.6-0.3,1.1-0.4,1.6
		C408.3,365.6,408.3,365.8,408.2,366z"/>
	<path class="st3" d="M445.7,352.5c0.4-3.9,1.1-7.8,2.2-11.7c-0.1,2-0.4,4-0.9,5.9C446.7,348.7,446.3,350.6,445.7,352.5z"/>
	<path class="st3" d="M449.4,353.9c-0.5-2.2-0.8-4.5-1-6.8c-0.4-2.3-0.5-4.5-0.5-6.8c0.5,2.2,0.8,4.5,1,6.8
		C449.2,349.3,449.4,351.6,449.4,353.9z"/>
	<path class="st3" d="M372.1,416c-0.1,0-0.3-16.1-0.3-35.9s0.1-35.9,0.3-35.9s0.3,16.1,0.3,35.9S372.2,416,372.1,416z"/>
	<g class="st16">
		<path d="M411.4,314.5c4.9,9.4,9.2,18.8,9.6,29.4c0.3,8.2-3,15.1,0.4,22.6c-0.2,0.1-3.1-6.4-4.4-9.4c-2.6-6.3-5-11.9-5-11.9
			s1.8-14.1,2-16.5S411.4,314.5,411.4,314.5z"/>
	</g>
	<g class="st16">
		<path d="M289.9,362.3c0,4.7-2.9-10.9-0.2-14.7c1.9-2.7,5.2-4,8.4-4.8s6.5-1.3,9.4-3c3.7-2.2,6-6,8.6-9.4s6-17.8,10.2-18.1v21
			c-10.2,6.6-20.7,12.5-31.6,17.7C291.6,353.9,289.8,358,289.9,362.3z"/>
	</g>
	<g class="st16">
		<path d="M332,368.7c6.9-3.9,11.9-9,19.6-10.3c7.5-1.3,15.1,0,22.7-0.5c-0.4-3.8-0.8-7.6-1.2-11.4l-21.6-0.2L332,368.7z"/>
	</g>
	<path class="st3" d="M326.3,312.1c0.1,0,0.3,4.7,0.3,10.4s-0.1,10.4-0.3,10.4c-0.3-3.5-0.4-7-0.3-10.4
		C326,319.1,326.1,315.6,326.3,312.1z"/>
	<path class="st3" d="M289.9,362.2c-0.2-0.6-0.2-1.2-0.1-1.9c0.1-1.5,0.5-3,1.1-4.4c0.6-1.4,1.4-2.7,2.5-3.8
		c0.4-0.5,0.9-0.9,1.4-1.2c-1.3,1.6-2.5,3.3-3.4,5.2C290.5,358.1,290.1,360.1,289.9,362.2z"/>
	<path class="st3" d="M294.2,351.3c0.5-0.1,1.1-0.3,1.6-0.6c1-0.4,2.4-1,4.2-1.8c3.5-1.6,8.3-4,13.3-7s9.5-6,12.6-8.2
		c1.5-1.1,2.8-2.1,3.6-2.8c0.4-0.3,0.9-0.7,1.3-1.1c-0.5,0.3-1,0.6-1.4,0.9l-3.7,2.6c-3.1,2.2-7.6,5.1-12.6,8.1s-9.8,5.4-13.2,7.1
		l-4.1,2C295.1,350.7,294.6,351,294.2,351.3z"/>
	<path class="st3" d="M425.6,222.5c-1.7-2.2-4.5-4-5-6.8c-0.7-3.7,3-7.1,2.3-10.9c-0.4-2.5-2.8-4.3-5.1-5.3s-5-1.4-7.2-2.8
		c-2.6-1.7-4.6-4.2-5.7-7.1c-0.3-0.8-0.6-1.6-0.9-2.4c-0.2-1.8-0.6-3.5-1.2-5.2c-0.1-0.4-0.2-0.9-0.2-1.3l0.1,1
		c-0.3-0.8-0.8-1.6-1.3-2.3c-1.8-2.4-5.5-3.8-8-2.1l1.2-0.8c-3.1-7.5-9.8-12.8-17.8-14c-1.5-0.2-3-0.3-4.5-0.1
		c-5.4-0.3-13.2,1.3-16.5,3.4c-4.2,2.7-8.5,6.3-10.6,10.8c-1.1,2.4-1.9,5.2-4,6.9c-2.9,2.2-6.9,1.3-10.4,1.7
		c-5.9,0.7-11,5.2-13,10.8c-1.9,5.7-1.3,11.9,1.6,17.2c0.6,1.1,1.4,2.5,0.9,3.7c-0.5,0.9-1.3,1.6-2.2,2c-2.4,1.2-4.3,3.2-5.4,5.7
		c-1,2.5-0.6,5.6,1.4,7.4c1.7,1.4,4.1,1.7,6.1,0.9c-0.6,1.5-0.9,3.1-0.9,4.7c-0.1,3.6,1.8,7,4.9,8.8c3.1,1.6,7.5,0.8,9.4-2.2
		c0,6.8,5.4,12.3,12.2,12.4c2.4,0,4.8-0.7,6.8-2c1.5-1,3-2.3,4.8-2s2.7,2,3.9,3.2c3.2,3.3,8.7,3.7,12.9,1.8c4.2-1.9,7.3-5.7,9.5-9.7
		c2.3,3.4,6.9,4.3,10.3,2.1c1.4-0.9,2.4-2.3,3-3.9c4.2,5.4,12,6.4,17.5,2.2c2.9-2.2,4.7-5.6,4.8-9.3c5.6-0.8,9.4-6,8.6-11.6
		C427.3,225.6,426.6,224,425.6,222.5L425.6,222.5z M325,225.6C325,225.6,325,225.6,325,225.6l0.1-0.1L325,225.6z"/>
	<path class="st15" d="M388.4,250.7c0,0,12.8-2.1,15.5-18.8c1.3-8.3,0.9-21.9,0.2-33.1c-0.6-9.7-9-17.1-18.7-16.5
		c-0.2,0-0.5,0-0.7,0.1l-29,3.1c-3,0.3-5.3,2.9-5.3,6l3,72.6c-2.1,0.5-6.9,1.5-9.2,2.2c0,0,22.4,50.1,27.9,49.5s27.4-48,27.4-48
		c-3.8-1.2-7.7-2.1-11.6-2.9C387.8,260.2,388,255.4,388.4,250.7z"/>
	<path class="st3" d="M397.6,207.9c0,1.2-0.9,2.1-2.1,2.2c-1.1,0.1-2.1-0.7-2.2-1.8c0-0.1,0-0.1,0-0.2c0-1.2,0.9-2.1,2.1-2.2
		C396.5,205.9,397.5,206.8,397.6,207.9C397.6,207.9,397.6,207.9,397.6,207.9z"/>
	<path class="st3" d="M401.1,206c-0.3,0.3-1.9-0.9-4.2-0.9s-4,1.2-4.2,0.9c-0.1-0.1,0.1-0.6,0.9-1.2c1-0.7,2.2-1,3.4-1
		c1.2,0,2.4,0.4,3.3,1.1C401,205.3,401.3,205.8,401.1,206z"/>
	<path class="st3" d="M375.4,208.4c0,1.2-0.9,2.1-2.1,2.2c-1.1,0.1-2.1-0.7-2.2-1.8c0-0.1,0-0.1,0-0.2c0-1.2,0.9-2.1,2.1-2.2
		C374.3,206.3,375.3,207.2,375.4,208.4C375.4,208.3,375.4,208.3,375.4,208.4z"/>
	<path class="st3" d="M378.5,206.4c-0.3,0.3-1.9-0.9-4.2-0.9s-4,1.2-4.2,0.9c-0.1-0.1,0.1-0.6,0.9-1.2c1-0.7,2.2-1.1,3.4-1.1
		c1.2,0,2.4,0.4,3.3,1.1C378.4,205.7,378.6,206.3,378.5,206.4z"/>
	<path class="st3" d="M386.9,223.5c1.2-0.4,2.5-0.6,3.8-0.7c0.6-0.1,1.1-0.2,1.2-0.6c0.1-0.6-0.1-1.2-0.4-1.8
		c-0.6-1.4-1.1-2.9-1.7-4.5c-2.4-6.4-4.2-11.6-3.9-11.7s2.4,5,4.8,11.4l1.7,4.5c0.4,0.7,0.5,1.5,0.3,2.3c-0.2,0.4-0.5,0.7-1,0.9
		c-0.3,0.1-0.7,0.1-1,0.1C389.4,223.6,388.1,223.6,386.9,223.5z"/>
	<path class="st17" d="M388.4,250.7c-7.9,0.1-15.6-2-22.4-6c0,0,5.4,11.5,22.1,9.9L388.4,250.7z"/>
	<path class="st17" d="M380.4,227.1c0.5-0.4,1.1-0.6,1.7-0.7c0.6-0.1,1.3,0.2,1.6,0.7c0.1,0.2,0.1,0.4,0.2,0.6
		c0.3,0.5,1,0.3,1.6,0.5c0.9,0.4,1.3,1.3,0.9,2.2c0,0,0,0,0,0c-0.4,0.8-1.1,1.4-2,1.7c-1.1,0.5-2.4,0.6-3.6,0.5
		c-0.9,0-1.7-0.4-2.2-1.1c-0.5-0.9-0.4-2,0.2-2.9c0.6-0.8,1.4-1.5,2.3-2"/>
	<path class="st3" d="M380.1,225.1c0.4,0,0.4,2.5,2.5,4.2s4.8,1.5,4.8,1.9c0,0.2-0.6,0.5-1.7,0.5c-1.5,0-2.9-0.5-4-1.4
		c-1.1-0.9-1.8-2.2-2-3.6C379.6,225.7,379.9,225.1,380.1,225.1z"/>
	<path class="st3" d="M379.5,202.4c-0.2,0.6-2.5,0.3-5.2,0.6s-4.9,1.1-5.2,0.5c-0.2-0.3,0.2-0.9,1.1-1.5c2.4-1.5,5.3-1.8,8-0.9
		C379.1,201.6,379.6,202.1,379.5,202.4z"/>
	<path class="st3" d="M400.3,200.7c-0.4,0.5-2,0-3.9,0s-3.5,0.4-3.9-0.2c-0.2-0.3,0.1-0.8,0.8-1.3c1.9-1.2,4.4-1.1,6.3,0.2
		C400.3,200,400.5,200.5,400.3,200.7z"/>
	<path class="st3" d="M394.3,179.9c-2.6,12.2-14.6,20.1-26.8,17.5c-0.2,0-0.4-0.1-0.6-0.1c-1,7.5-5.8,13.9-12.7,16.9
		c4.6,8.4,6.5,18,5.4,27.5c-0.5,4-1.7,8.3-4.7,11c-4.6,4.2-12.5,3.1-16.9-1.2c-4.3-4.2-5.8-10.7-4.6-16.5s4.9-11,9.5-14.8
		c-5.8-1-9.6-6.5-8.7-12.2c0.4-2.3,1.5-4.4,3.2-5.9c1.3-1.2,3-2.2,4-3.7s1.2-3.2,1.7-4.8c1.5-4.2,5.2-7.1,8.8-9.8
		c3-2.3,6.4-4.6,10.1-4.6c2,0,4,0.7,6,0.4c2.8-0.4,4.9-2.5,7.2-4c3.2-2.4,7.1-3.4,11-3c3.9,0.6,7.5,3.5,8.2,7.3"/>
	<path class="st3" d="M392.8,181.6c-0.6,3.2,1,6.5,3.4,8.8s5.4,3.7,8.4,5c-1-3.2-2.5-6.2-4.3-9c-1.9-2.8-4.8-4.8-8.1-5.5"/>
	<path class="st2" d="M319.4,220.1c-0.1-0.3-0.1-0.7-0.1-1c0.1-1,0.7-1.9,1.5-2.6c1.3-1,2.9-1.4,4.6-1.2c1.9,0,3.9,0.6,6.2,0.5
		c2.5-0.2,4.8-1.6,6.1-3.8c0.7-1.2,1.1-2.5,1.1-3.9c0.1-1.4,0-2.9,0-4.5c0-1.6,0.5-3.2,1.5-4.6c1-1.3,2.4-2.4,4-3
		c3.1-1.4,6.7-1.4,10.2-2.1c1.7-0.3,3.4-0.9,4.9-1.7c1.4-0.9,2.6-2.1,3.6-3.4c2-2.7,3.3-5.7,5-8.2c4.4-6.6,12.8-9.3,20.2-6.6
		c1.5,0.5,2.9,1.3,4.2,2.2c1.1,0.8,2.1,1.7,3,2.8c-0.1-0.1-0.1-0.1-0.2-0.2l-0.5-0.6c-0.7-0.7-1.5-1.3-2.3-1.9
		c-3-2.1-6.6-3.2-10.3-3.1c-5.5,0.2-10.5,3-13.6,7.5c-1.8,2.5-3,5.5-5,8.2c-1,1.4-2.3,2.6-3.8,3.6c-1.5,0.9-3.2,1.5-5,1.8
		c-3.5,0.6-7,0.7-10.1,2c-1.5,0.6-2.8,1.6-3.8,2.8c-0.9,1.3-1.4,2.8-1.4,4.3c-0.1,1.5,0,3-0.1,4.5c0,1.5-0.5,2.9-1.2,4.1
		c-1.4,2.3-3.8,3.7-6.4,3.9c-2.4,0.1-4.5-0.5-6.3-0.5c-1.6-0.2-3.1,0.2-4.4,1.1c-0.8,0.6-1.3,1.5-1.5,2.4
		C319.3,219.4,319.3,219.8,319.4,220.1z"/>
	<polygon class="st3" points="344.2,297.3 345.3,323.9 347.9,349.4 376.3,348.2 374.2,297.9 	"/>
	<polygon class="st4" points="340,297.2 341.1,323.9 343.8,349.4 372.1,348.2 370.1,297.8 	"/>
	<path class="st15" d="M337.4,352.6c7.5-0.3,15-1.1,22.4-2.4c8.8-1.4,8.7-2.2,8.4-3.2c-0.8-2.7-15.5,1.9-12.9-0.9s18.6-3.5,17.6-6.3
		c-1.3-3.6-16.6,1.5-17.9,1.8s-1.8-1.6-0.6-1.8c1.7-0.3,19.9-4.4,18.7-7.9c-0.7-2-4.1-0.3-4.1-0.3s-16.8,5-17.3,3.3s9.2-5,12.6-5.9
		s4.3-2.8,2.7-4c-1.1-0.8-11.4,1.6-14.7,2.6s-12.3,3.7-8.9-1.3c0.1-0.1,0.1-0.2,0.1-0.2c3.5-4.8,4.6-9.7,4-11.4s-2.9-1.5-3.7,0
		c-0.2,0.2-0.3,0.5-0.3,0.8c0,0.1-0.1,0.3-0.1,0.4c-0.8,1.9-1.8,3.6-3,5.3c-1,1.5-2.3,2.8-3.8,3.9c-1.7,1.2-6,5.8-7.4,6.6"/>
	<polygon class="st8" points="330.9,330.2 345.9,352.6 321.2,377.7 322,336.9 	"/>
</g>
</svg>
