<?xml version="1.0" encoding="utf-8"?>
<!-- Generator: Adobe Illustrator 25.0.0, SVG Export Plug-In . SVG Version: 6.00 Build 0)  -->
<svg version="1.1" id="Capa_1" xmlns="http://www.w3.org/2000/svg" xmlns:xlink="http://www.w3.org/1999/xlink" x="0px" y="0px"
	 viewBox="0 0 480.02 480.02" style="enable-background:new 0 0 480.02 480.02;" xml:space="preserve">
<style type="text/css">
	.st0{fill:#3C3950;}
</style>
<g>
	<g>
		<path class="st0" d="M444.01,144.02h-32c-1.87,0-3.68,0.65-5.12,1.85l-45.78,38.15h-29.1v-32c-0.02-2.33-1.07-4.53-2.86-6.01
			c36.48-24.88,45.88-74.62,21-111.1s-74.62-45.88-111.1-21c-11.63,7.93-20.95,18.78-27.04,31.47
			C192.9,5.58,145.14-11.19,105.34,7.92c-39.8,19.11-56.57,66.87-37.46,106.67c6.08,12.67,15.39,23.51,27,31.43
			c-1.8,1.48-2.85,3.68-2.86,6.01v48H68.99l-31.03-7.76c-4.29-1.07-8.63,1.53-9.7,5.82c-0.16,0.64-0.24,1.29-0.24,1.94v48
			c0,4.42,3.58,8,8,8c0.65,0,1.31-0.08,1.94-0.24l31.03-7.76h23.02v48c0,4.42,3.58,8,8,8h80v16h-8c-4.42,0-8,3.58-8,8s3.58,8,8,8
			h3.69l-59,132.75c-1.79,4.04,0.03,8.77,4.06,10.56s8.77-0.03,10.56-4.06l61.89-139.25h10.8v136c0,4.42,3.58,8,8,8s8-3.58,8-8v-136
			h10.8l61.89,139.25c1.79,4.04,6.52,5.86,10.56,4.06s5.86-6.52,4.06-10.56l-59-132.75h3.69c4.42,0,8-3.58,8-8s-3.58-8-8-8h-8v-16
			h80c4.42,0,8-3.58,8-8v-32h29.1l45.78,38.15c1.44,1.2,3.25,1.85,5.12,1.85h32c4.42,0,8-3.58,8-8v-144
			C452.01,147.6,448.43,144.02,444.01,144.02z M60.01,233.77l-16,4v-27.5l16,4V233.77z M92.01,232.02h-16v-16h16V232.02z
			 M236.22,144.02H187.8c10.3-7.71,18.6-17.78,24.21-29.36C217.62,126.24,225.92,136.31,236.22,144.02z M76.01,80.02
			c0-35.35,28.65-64,64-64s64,28.65,64,64s-28.65,64-64,64C104.68,143.98,76.05,115.35,76.01,80.02z M228.01,320.02h-32v-16h32
			V320.02z M316.01,288.02h-208v-128h208V288.02z M284.01,144.02c-35.35,0-64-28.65-64-64c0.04-35.33,28.67-63.96,64-64
			c35.35,0,64,28.65,64,64C348.01,115.37,319.36,144.02,284.01,144.02z M356.01,248.02h-24v-48h24V248.02z M436.01,288.02h-21.1
			l-42.9-35.75v-56.5l42.9-35.75h21.1V288.02z"/>
	</g>
</g>
<g>
	<g>
		<path class="st0" d="M140.01,48.02c-17.67,0-32,14.33-32,32s14.33,32,32,32s32-14.33,32-32S157.68,48.02,140.01,48.02z
			 M140.01,96.02c-8.84,0-16-7.16-16-16s7.16-16,16-16s16,7.16,16,16S148.85,96.02,140.01,96.02z"/>
	</g>
</g>
<g>
	<g>
		<path class="st0" d="M284.01,48.02c-17.67,0-32,14.33-32,32s14.33,32,32,32s32-14.33,32-32S301.68,48.02,284.01,48.02z
			 M284.01,96.02c-8.84,0-16-7.16-16-16s7.16-16,16-16s16,7.16,16,16S292.85,96.02,284.01,96.02z"/>
	</g>
</g>
<g>
	<g>
		<path class="st0" d="M292.01,176.02h-160c-4.42,0-8,3.58-8,8v80c0,4.42,3.58,8,8,8h160c4.42,0,8-3.58,8-8v-80
			C300.01,179.6,296.43,176.02,292.01,176.02z M284.01,256.02h-144v-64h144V256.02z"/>
	</g>
</g>
<g>
	<g>
		<rect x="188.01" y="216.02" class="st0" width="16" height="16"/>
	</g>
</g>
<g>
	<g>
		<rect x="220.01" y="216.02" class="st0" width="16" height="16"/>
	</g>
</g>
<g>
	<g>
		<rect x="252.01" y="216.02" class="st0" width="16" height="16"/>
	</g>
</g>
<g>
	<g>
		<rect x="156.01" y="216.02" class="st0" width="16" height="16"/>
	</g>
</g>
</svg>
