<svg xmlns="http://www.w3.org/2000/svg" xmlns:xlink="http://www.w3.org/1999/xlink" viewBox="0 0 1300 1300"><defs><style>.cls-1{fill:#b5d692;}.cls-2{isolation:isolate;}.cls-3{fill:url(#radial-gradient);}.cls-4{fill:url(#radial-gradient-2);}.cls-5{fill:url(#radial-gradient-3);}.cls-6{fill:url(#radial-gradient-4);}.cls-7{fill:url(#radial-gradient-5);}.cls-8{fill:url(#radial-gradient-6);}.cls-9{mix-blend-mode:color-dodge;}.cls-10{fill:url(#linear-gradient);}.cls-11{fill:url(#linear-gradient-2);}.cls-12{fill:url(#linear-gradient-3);}.cls-13{fill:url(#linear-gradient-4);}.cls-14{fill:url(#linear-gradient-5);}.cls-15{fill:url(#linear-gradient-6);}.cls-16{fill:url(#linear-gradient-7);}.cls-17{fill:url(#linear-gradient-8);}.cls-18{fill:url(#linear-gradient-9);}.cls-19{fill:url(#linear-gradient-10);}.cls-20{fill:url(#linear-gradient-11);}.cls-21{fill:url(#linear-gradient-12);}.cls-22{fill:url(#linear-gradient-13);}.cls-23{fill:url(#linear-gradient-14);}.cls-24{fill:url(#linear-gradient-15);}.cls-25{fill:url(#linear-gradient-16);}.cls-26{fill:url(#linear-gradient-17);}.cls-27{fill:url(#linear-gradient-18);}.cls-28{clip-path:url(#clip-path);}.cls-29{fill:#16440a;}.cls-30{clip-path:url(#clip-path-2);}.cls-31{clip-path:url(#clip-path-3);}.cls-32{clip-path:url(#clip-path-4);}.cls-33{font-size:107.42px;fill:#00386c;font-family:MongolianBaiti, Mongolian Baiti;letter-spacing:0.26em;}.cls-34,.cls-35{fill:#e5e277;}.cls-34{letter-spacing:0.26em;}.cls-35{letter-spacing:0.22em;}</style><radialGradient id="radial-gradient" cx="621.07" cy="489.05" r="217.21" gradientUnits="userSpaceOnUse"><stop offset="0" stop-color="#1b52c0"/><stop offset="0.98" stop-color="#020a23"/></radialGradient><radialGradient id="radial-gradient-2" cx="613.43" cy="427.25" r="162.82" xlink:href="#radial-gradient"/><radialGradient id="radial-gradient-3" cx="665.85" cy="419.46" r="139.67" xlink:href="#radial-gradient"/><radialGradient id="radial-gradient-4" cx="535.84" cy="403.78" r="139.99" xlink:href="#radial-gradient"/><radialGradient id="radial-gradient-5" cx="730.36" cy="664.56" r="76.15" xlink:href="#radial-gradient"/><radialGradient id="radial-gradient-6" cx="757.63" cy="588.6" r="35.17" xlink:href="#radial-gradient"/><linearGradient id="linear-gradient" x1="529.08" y1="233.46" x2="536.91" y2="233.46" gradientUnits="userSpaceOnUse"><stop offset="0"/><stop offset="0.08" stop-color="#000608"/><stop offset="0.2" stop-color="#00151c"/><stop offset="0.34" stop-color="#002e3f"/><stop offset="0.5" stop-color="#00516e"/><stop offset="0.68" stop-color="#007daa"/><stop offset="0.72" stop-color="#0088b9"/><stop offset="0.93" stop-color="#0bf"/></linearGradient><linearGradient id="linear-gradient-2" x1="518.15" y1="246.14" x2="538.42" y2="246.14" xlink:href="#linear-gradient"/><linearGradient id="linear-gradient-3" x1="508.02" y1="263.47" x2="549.89" y2="263.47" xlink:href="#linear-gradient"/><linearGradient id="linear-gradient-4" x1="709.07" y1="431.49" x2="731.46" y2="431.49" xlink:href="#linear-gradient"/><linearGradient id="linear-gradient-5" x1="744.02" y1="465.64" x2="748.38" y2="465.64" xlink:href="#linear-gradient"/><linearGradient id="linear-gradient-6" x1="498.65" y1="389.41" x2="784.86" y2="389.41" xlink:href="#linear-gradient"/><linearGradient id="linear-gradient-7" x1="486.54" y1="402.92" x2="787.89" y2="402.92" xlink:href="#linear-gradient"/><linearGradient id="linear-gradient-8" x1="475.91" y1="410.53" x2="733.14" y2="410.53" xlink:href="#linear-gradient"/><linearGradient id="linear-gradient-9" x1="466.85" y1="414.05" x2="714.81" y2="414.05" xlink:href="#linear-gradient"/><linearGradient id="linear-gradient-10" x1="459.49" y1="396.18" x2="645.45" y2="396.18" xlink:href="#linear-gradient"/><linearGradient id="linear-gradient-11" x1="455.03" y1="423.95" x2="683.28" y2="423.95" xlink:href="#linear-gradient"/><linearGradient id="linear-gradient-12" x1="451.99" y1="456.82" x2="745.78" y2="456.82" xlink:href="#linear-gradient"/><linearGradient id="linear-gradient-13" x1="450.63" y1="491.62" x2="754.97" y2="491.62" xlink:href="#linear-gradient"/><linearGradient id="linear-gradient-14" x1="451.24" y1="491.56" x2="722.17" y2="491.56" xlink:href="#linear-gradient"/><linearGradient id="linear-gradient-15" x1="454.75" y1="536.18" x2="759.63" y2="536.18" xlink:href="#linear-gradient"/><linearGradient id="linear-gradient-16" x1="463.42" y1="544.63" x2="735.11" y2="544.63" xlink:href="#linear-gradient"/><linearGradient id="linear-gradient-17" x1="487.54" y1="511.66" x2="576.36" y2="511.66" xlink:href="#linear-gradient"/><linearGradient id="linear-gradient-18" x1="698.23" y1="663.91" x2="708.39" y2="663.91" xlink:href="#linear-gradient"/><clipPath id="clip-path"><path class="cls-1" d="M611.79,601.13q-6.49-4.64-12.95-8.54-3.32-2-6.6-3.85c-52.49-29.27-101.14-25.23-131.17-17.59a250.71,250.71,0,0,1,11.49-85c39.19,48.06,75.37,71,112.14,96q5,3.38,10,6.85C600.39,592.9,606.07,596.91,611.79,601.13Z"/></clipPath><clipPath id="clip-path-2"><path class="cls-1" d="M685,780c-11.19,38-33.91,71.64-59,102.3a52.49,52.49,0,0,0,5.4-18.74c2.77-15.2,4.11-39.22-3.83-70.58-.25-1-.51-2-.77-3q-1.85-6.86-4.29-14.16c-.35-1-.71-2.07-1.08-3.12s-.69-1.93-1.05-2.91-.68-1.86-1-2.8-.7-1.83-1.06-2.75c-.45-1.13-.9-2.27-1.37-3.42-.34-.83-.68-1.65-1-2.48-.2-.48-.4-1-.61-1.44a305,305,0,0,0-14.09-28.67q-1.67-3-3.43-6-1.39-2.4-2.86-4.83c-.87-1.45-1.77-2.91-2.68-4.38q-5.57-8.91-12.06-18.2-1.34-1.92-2.72-3.84c-.76-1.06-1.53-2.11-2.3-3.17-1.13-1.55-2.29-3.1-3.46-4.67l0,0q-1.47-2-3-3.94c-.82-1.08-1.66-2.16-2.51-3.24q-1.86-2.38-3.78-4.78A583.62,583.62,0,0,0,518.78,623q-2.64-2.64-5.37-5.29l-.08-.08q-2.69-2.61-5.44-5.24-12.66-12.07-27-24.54c-1.93-1.67-3.89-3.36-5.87-5q-3.48-3-7.06-6-3.35-2.79-6.78-5.61l-.13-.11a179,179,0,0,1,46.46-5.52c.8,0,1.62,0,2.43,0,1.43,0,2.86.1,4.31.17l1.78.1.64,0,.25,0c1.17.08,2.34.18,3.52.28.68.05,1.36.12,2,.19l2.15.23,1.56.18,2,.25.31,0,1.81.26c.88.13,1.76.26,2.65.41l3.22.55.09,0,1.87.35c1.51.29,3,.61,4.57,1l.11,0,1.09.24.71.16,1.52.36.32.08c.83.2,1.65.41,2.48.63l.58.15c.82.21,1.64.44,2.47.67l1.91.55,1.68.5,1.69.52,1,.32.27.09c1.26.41,2.53.83,3.81,1.28.57.19,1.13.39,1.7.6.82.29,1.64.59,2.47.91l.32.12c.69.25,1.38.52,2.08.79l.31.12,2.3.92,2.14.9,1.79.76.48.22,1.69.75,2.05.94,1.76.83,2.43,1.18c.82.41,1.64.82,2.46,1.25s1.45.74,2.17,1.13l.85.45c.9.48,1.81,1,2.71,1.48l.16.09c1.1.61,2.19,1.24,3.29,1.88s2.2,1.29,3.3,2h0q6.45,3.92,12.95,8.54l2.72,2a273.66,273.66,0,0,1,28.37,24.47l.13.12,1.38,1.39q4.51,4.59,9,9.58h0c.53.57,1.05,1.15,1.57,1.74h0c.1.1.19.21.29.32,4.49,5.14,8.71,10.43,12.55,15.8h0q1.74,2.43,3.36,4.88,1.22,1.83,2.37,3.67C694.58,698.75,696.14,742,685,780Z"/></clipPath><clipPath id="clip-path-3"><path class="cls-1" d="M461.07,571.15h0s76.91,66.73,131.56,194h0c14.48,14,25.7,31.11,31.28,50,4.65,15.78,9,32.54,7.41,48.32C638.91,822,635.75,714.26,461.07,571.15Z"/></clipPath><clipPath id="clip-path-4"><path class="cls-1" d="M461.07,571.15C463,621,480.38,669.59,515.69,704.28c16.54,16.25,52.43,39.91,70.18,54.82q3.48,2.94,6.76,6.1h0C538,637.88,461.07,571.16,461.07,571.15Z"/></clipPath></defs><g class="cls-2"><g id="Camada_1" data-name="Camada 1"><path class="cls-3" d="M721.49,746.74c3.78-39.25-12.43-82.24-45.43-119.53q-1.14-1.31-2.31-2.58C660.39,610,644.26,595.76,623,579.8c-11.75-8.82-24-17.39-35.85-25.68-8.29-5.81-16.87-11.81-25.17-17.82-35.32-25.59-74.12-57.71-94.15-101.95a158.23,158.23,0,0,1,66.26-203,63.21,63.21,0,0,0-.34,16.22l-.87-.39,1.85,6.76a80.61,80.61,0,0,0,3.86,13.1c6.69,17.25,19.94,35.36,39.39,53.83,21,19.94,50.29,42.26,76.13,61.94,7.23,5.51,14,10.71,20.32,15.58,33.12,25.69,58,45.65,76.75,68.62,20.46,25.06,31.77,52.26,35.6,85.58,0,.21.13,1,.15,1.2a236.82,236.82,0,0,1-3,70.53C775,670.51,753,713.6,721.49,746.74Z"/><path class="cls-4" d="M723.7,573.05l-1,.52a128.84,128.84,0,0,0-11.88,7.25l-1.23.86a106.07,106.07,0,0,0-14.86,12.62c-.34.35-.68.7-1,1.06a88.6,88.6,0,0,0-15.18,21.71q-.37.75-.72,1.5c-1.11,2.34-2.13,4.76-3,7.26-.44,1.17-.85,2.36-1.23,3.56-.76-.85-1.51-1.71-2.28-2.55C656.17,610.27,639,595.91,621,582.43l.07,0Q615.92,576.68,611,571q-2.84-3.3-5.58-6.57-1.38-1.63-2.73-3.27Q596,553,589.79,545.07h0l-.38-.49-1.92-2.48c-.64-.83-1.28-1.66-1.9-2.49l-.25-.33a.83.83,0,0,1-.08-.12l0,0q-7.51-9.89-14.2-19.5l-1.8-2.61q-7.49-10.86-13.94-21.36h0c-.85-1.38-1.69-2.75-2.51-4.13h0l-.19-.31q-2.44-4.06-4.74-8.06-1.23-2.14-2.43-4.28c-.78-1.4-1.55-2.78-2.3-4.16s-1.53-2.82-2.28-4.23l-1.92-3.66q-2.21-4.24-4.24-8.41c-.54-1.12-1.08-2.23-1.61-3.34q-2.19-4.57-4.18-9.06c-.5-1.13-1-2.26-1.48-3.38a.18.18,0,0,1,0-.09c-.56-1.28-1.11-2.56-1.63-3.83s-1-2.3-1.42-3.45q-1.6-3.93-3.06-7.79h0c-.14-.36-.27-.71-.4-1.07-.23-.59-.44-1.18-.66-1.77h0c-.38-1-.75-2.06-1.11-3.08q-.46-1.29-.9-2.55c-.41-1.19-.81-2.37-1.2-3.55-.34-1-.67-2-1-3-.15-.45-.29-.9-.43-1.35-.22-.69-.44-1.39-.65-2.08q-.89-2.84-1.68-5.64c-.22-.77-.44-1.54-.65-2.31,0-.15-.09-.3-.13-.45h0c-.23-.85-.46-1.68-.68-2.52q-1-3.71-1.84-7.34c-.19-.77-.36-1.53-.53-2.29q-.83-3.59-1.52-7.09c-.2-1-.4-2-.58-3-.11-.58-.22-1.16-.32-1.73h0l-.09-.52c-.11-.59-.21-1.17-.31-1.75h0c-.19-1.14-.38-2.28-.55-3.41-.12-.75-.24-1.49-.34-2.23-.23-1.51-.43-3-.62-4.49-.3-2.35-.57-4.67-.79-7-.08-.79-.15-1.58-.22-2.36s-.13-1.4-.18-2.09h0c-.06-.75-.11-1.5-.16-2.24,0-.52-.07-1-.1-1.54s-.07-1.08-.1-1.62-.05-.85-.06-1.27c-.06-1.17-.11-2.34-.15-3.5s-.07-2.22-.08-3.31c0-.61,0-1.21,0-1.81,0-1.44,0-2.87,0-4.28v-.68c0-.79,0-1.57.05-2.35v-.28l0-1.27c0-.12,0-.23,0-.34,0-1,.07-1.93.12-2.89s.1-2.1.17-3.14c0-.75.09-1.49.15-2.23s.1-1.33.16-2c0-.21,0-.41.05-.62.05-.7.12-1.4.19-2.1.16-1.73.35-3.44.56-5.13.1-.82.21-1.64.32-2.45.07-.58.15-1.15.24-1.72.12-.83.24-1.66.37-2.49.38-2.46.81-4.88,1.27-7.23.09-.47.19-.94.28-1.41s.22-1.07.34-1.6.23-1.09.35-1.62c.17-.76.34-1.52.52-2.27s.35-1.49.54-2.22c.12-.54.26-1.06.39-1.59.08-.29.15-.58.23-.87l.51-1.9.51-1.82c.19-.68.38-1.35.58-2,.35-1.17.71-2.32,1.07-3.45.19-.61.38-1.2.58-1.79l.48-1.42c.23-.69.47-1.37.71-2.05s.48-1.35.73-2c.17-.49.35-1,.54-1.45,1.46-3.9,3-7.53,4.54-10.89.2-.46.42-.91.63-1.36h0c.45-.94.89-1.86,1.33-2.76.18-.38.37-.75.56-1.12l.35-.7c.28-.55.55-1.08.83-1.61.74-1.42,1.48-2.77,2.2-4.06q.29-.53.57-1l.16-.26h0c1.9-3.32,3.71-6.18,5.34-8.59.22-.34.45-.68.68-1s.56-.82.83-1.2l.42-.58h0a76.73,76.73,0,0,1,5-6.4l.07-.07,0,0a57.87,57.87,0,0,0-1.87,10.3c-.07.6-.11,1.21-.14,1.81a62.25,62.25,0,0,0,1.13,15.84h0s0,.06,0,.15c.15.75.31,1.5.49,2.24a76.91,76.91,0,0,0,3.24,10.42c.32,1.05.67,2.15,1,3.31.12.39.25.78.37,1.18,0,.08,0,.16.08.24l.72,2.23c.33,1,.67,2.07,1,3.16.29.88.59,1.78.91,2.71h0c.1.31.2.62.31.93.16.49.33,1,.49,1.47.06.17.12.33.17.5l.79,2.31.63,1.83h0c1.1,3.16,2.29,6.52,3.57,10.05.21.59.42,1.19.65,1.79l.94,2.58h0l1.06,2.85c.79,2.12,1.62,4.3,2.46,6.53q.63,1.65,1.29,3.33c.8,2.05,1.62,4.15,2.46,6.28.55,1.4,1.12,2.82,1.7,4.25v0q.87,2.16,1.77,4.36,1.82,4.44,3.77,9.06h0c.43,1,.87,2.05,1.32,3.08h0q3.79,8.89,8.1,18.37c.54,1.21,1.1,2.42,1.66,3.64,2.2,4.78,4.51,9.67,6.91,14.63h0c.54,1.12,1.08,2.23,1.64,3.36h0c.65,1.31,1.29,2.63,2,4,4.25,8.58,8.79,17.39,13.64,26.35.6,1.13,1.22,2.26,1.84,3.39q1.68,3.07,3.39,6.15l.48.86h0L611,424.5h0q3.42,6,7,12.13c.53.9,1.06,1.8,1.6,2.69q4.42,7.46,9.16,15c.63,1,1.26,2,1.9,3q1.9,3,3.86,6l2,3c1.31,2,2.64,4,4,6h0l.45.69c1.06,1.57,2.12,3.15,3.2,4.72q4.53,6.65,9.28,13.26.72,1,1.47,2,3.14,4.35,6.38,8.68,1.79,2.38,3.6,4.76,3.63,4.77,7.38,9.5l1.1,1.38,3.23,4c.22.27.44.55.67.82l2.9,3.55.32.38c1,1.21,2,2.42,3,3.63q2,2.42,4.08,4.81l1.18,1.38q7.11,8.24,14.61,16.29c1,1.11,2.06,2.21,3.1,3.3q5.81,6.15,11.85,12.15l.05.05Q721,570.46,723.7,573.05Z"/><path class="cls-5" d="M790.05,552.24c-1,.16-2,.33-2.95.51a1.57,1.57,0,0,0-.3,0c-.82.13-1.64.28-2.46.44-.22,0-.45.07-.67.12-1.5.28-3,.57-4.5.88-.83.15-1.65.32-2.47.5s-1.72.36-2.58.56l-.73.16-1.62.37c-1,.23-2,.47-3.07.72l-.62.15c-1.35.33-2.7.68-4,1s-2.85.76-4.26,1.16-2.82.81-4.22,1.24l-1.87.58-1.28.41c-.86.27-1.71.55-2.56.84q-2.55.84-5.06,1.77c-1.09.4-2.18.8-3.26,1.22h0l-2.18.86c-.59.23-1.19.48-1.78.73-.13,0-.25.1-.38.15h0l-2.17.93-1.77.78c-.94.42-1.88.85-2.81,1.29s-2,.94-3,1.42l-.26.13c-1,.51-2,1-3.05,1.57l0,0-.4.21q-2.69-2.59-5.34-5.23l-.05-.05q-6-6-11.85-12.15c-1-1.09-2.08-2.19-3.1-3.3q-7.5-8.05-14.61-16.29l-1.18-1.38q-2.05-2.4-4.08-4.81c-1-1.21-2-2.42-3-3.63l-.32-.38-2.9-3.55c-.23-.27-.45-.55-.67-.82l-3.23-4-1.1-1.38q-3.75-4.72-7.38-9.5-1.82-2.37-3.6-4.76-3.24-4.33-6.38-8.68l-1.47-2q-4.75-6.61-9.28-13.26c-1.08-1.57-2.14-3.15-3.2-4.72-.16-.23-.3-.46-.44-.68l0,0c-1.36-2-2.69-4-4-6l-2-3q-1.95-3-3.86-6c-.64-1-1.27-2-1.9-3q-4.72-7.51-9.16-15c-.54-.89-1.07-1.79-1.6-2.69q-3.6-6.09-7-12.13h0l-2.14-3.79h0c-.15-.29-.31-.57-.48-.86q-1.71-3.07-3.39-6.15c-.62-1.13-1.24-2.26-1.84-3.39-4.85-9-9.39-17.77-13.64-26.35-.66-1.33-1.3-2.65-2-4h0c-.56-1.13-1.1-2.24-1.64-3.36h0c-2.4-5-4.71-9.85-6.91-14.63-.56-1.22-1.12-2.43-1.66-3.64Q573,348.88,569.2,340h0c-.45-1-.89-2.06-1.32-3.08h0q-1.95-4.62-3.77-9.06-.9-2.21-1.77-4.36v0c-.58-1.43-1.14-2.85-1.7-4.25-.84-2.13-1.66-4.23-2.46-6.28-.44-1.12-.86-2.24-1.29-3.33-.84-2.23-1.67-4.41-2.46-6.53l-1.06-2.85h0l-.94-2.58c-.22-.6-.44-1.2-.65-1.79-1.28-3.53-2.47-6.89-3.57-10.05h0l-.63-1.83-.79-2.31c0-.17-.11-.33-.17-.5-.16-.49-.33-1-.49-1.47-.11-.31-.21-.62-.31-.93h0c-.32-.93-.62-1.83-.91-2.71-.36-1.09-.7-2.14-1-3.16l-.72-2.23c0-.08,0-.16-.08-.24-.12-.4-.25-.79-.37-1.18-.37-1.16-.72-2.26-1-3.31a98.2,98.2,0,0,0,5.92,12.46h0c.74,1.32,1.51,2.64,2.31,3.94C558,295.56,569,307.82,580.25,318.5c26.76,25.41,67.61,55.13,96.2,77.31,11.57,9,22.44,17.47,32.52,25.8l.1.08c8,6.58,15.44,13.07,22.39,19.61l0,0c4.41,4.16,8.61,8.34,12.58,12.59.53.56,1,1.13,1.56,1.69,18,19.67,31.32,40.89,38.84,67.72.14.47.27.95.39,1.43q1.56,5.72,2.76,11.79.14.71.27,1.44Q789.2,544.86,790.05,552.24Z"/><path class="cls-6" d="M621.09,582.46l-.07,0c-14.59-11-29.7-21.35-44.66-31.87q-5.79-4.06-11.53-8.17c-1.6-1.13-3.19-2.28-4.78-3.43-24.19-17.52-48-36.85-67.12-59.55q-2.76-3.27-5.39-6.64a182.22,182.22,0,0,1-22.7-37.07l0-.11c-.47-1-.93-2.09-1.37-3.14a157.87,157.87,0,0,1-8.09-24.34c-.2-.81-.4-1.62-.58-2.44a163.07,163.07,0,0,1-3.31-20.15c-.07-.7-.14-1.4-.2-2.1a165,165,0,0,1-.61-17.79c0-.63,0-1.25.06-1.88a158.2,158.2,0,0,1,1.3-16.12c.07-.58.15-1.16.23-1.73q1-7.47,2.81-14.8.18-.8.39-1.59c1.14-4.62,2.5-9.19,4.07-13.68l.09-.25c.14-.41.29-.82.44-1.22a155.71,155.71,0,0,1,6.83-16.08l.66-1.34a163,163,0,0,1,8.4-14.7l.8-1.23a163.36,163.36,0,0,1,9.83-13.44h0c.3-.38.61-.75.92-1.12a162.12,162.12,0,0,1,11.19-12.25l1-1q4-3.94,8.33-7.57l1.12-.94q4.38-3.64,9-7l1.21-.86q4.74-3.35,9.72-6.35l1.31-.78q4.13-2.41,8.39-4.59l0,0-.07.07a76.73,76.73,0,0,0-5,6.4h0l-.42.58c-.27.38-.55.78-.83,1.2s-.46.66-.68,1c-1.63,2.41-3.44,5.27-5.34,8.59h0c-.25.42-.49.84-.73,1.28-.72,1.29-1.46,2.64-2.2,4.06-.28.53-.55,1.06-.83,1.61l-.35.7c-.19.37-.38.74-.56,1.12-.44.9-.88,1.82-1.33,2.76h0c-.21.45-.43.9-.63,1.36-1.55,3.36-3.08,7-4.54,10.89-.19.48-.37,1-.54,1.45-.25.66-.49,1.33-.73,2s-.48,1.36-.71,2.05l-.48,1.42c-.2.59-.39,1.18-.58,1.79-.36,1.13-.72,2.28-1.07,3.45-.2.66-.39,1.33-.58,2l-.51,1.82-.51,1.9c-.08.29-.15.58-.23.87-.13.53-.27,1.05-.39,1.59q-.28,1.1-.54,2.22c-.18.75-.35,1.51-.52,2.27-.12.53-.24,1.07-.35,1.62s-.23,1.06-.34,1.6-.19.94-.28,1.41c-.46,2.35-.89,4.77-1.27,7.23-.13.83-.25,1.66-.37,2.49-.09.57-.17,1.14-.24,1.72-.12.81-.23,1.62-.32,2.45-.21,1.69-.4,3.4-.56,5.13-.07.7-.14,1.4-.19,2.1,0,.21,0,.41-.05.62-.06.66-.11,1.32-.16,2s-.11,1.48-.15,2.23c-.07,1-.12,2.09-.17,3.14s-.09,1.92-.12,2.89c0,.11,0,.22,0,.34,0,.42,0,.84,0,1.27v.28c0,.78,0,1.56-.05,2.35v.68c0,1.41,0,2.84,0,4.28,0,.6,0,1.2,0,1.81,0,1.09,0,2.2.08,3.31s.09,2.33.15,3.5c0,.42,0,.85.06,1.27s.06,1.08.1,1.62.06,1,.1,1.54c.05.74.1,1.49.16,2.24h0c.05.69.11,1.39.18,2.09s.14,1.57.22,2.36c.22,2.29.49,4.61.79,7,.19,1.49.39,3,.62,4.49.1.74.22,1.48.34,2.23.17,1.13.36,2.27.55,3.41h0c.1.58.2,1.16.31,1.75l.09.52h0c.1.57.21,1.15.32,1.73.18,1,.38,2,.58,3q.69,3.51,1.52,7.09c.17.76.34,1.52.53,2.29q.85,3.63,1.84,7.34c.22.84.45,1.67.68,2.52h0c0,.15.08.3.13.45.21.77.43,1.54.65,2.31q.79,2.81,1.68,5.64c.21.69.43,1.39.65,2.08.14.45.28.9.43,1.35.32,1,.65,2,1,3,.39,1.18.79,2.36,1.2,3.55q.44,1.26.9,2.55c.35,1,.73,2.05,1.11,3.08h0c.22.59.43,1.18.66,1.77.13.36.26.71.4,1.07h0q1.46,3.85,3.06,7.79c.45,1.15.93,2.3,1.42,3.45s1.07,2.55,1.63,3.83a.18.18,0,0,0,0,.09c.47,1.12,1,2.25,1.48,3.38q2,4.49,4.18,9.06c.53,1.11,1.07,2.22,1.61,3.34q2,4.17,4.24,8.41l1.92,3.66q1.13,2.11,2.28,4.23c.75,1.38,1.52,2.76,2.3,4.16s1.61,2.85,2.43,4.28q2.29,4,4.74,8.06l.19.31h0c.82,1.38,1.66,2.75,2.51,4.13h0q6.47,10.5,13.94,21.36l1.8,2.61q6.71,9.61,14.2,19.5l.11.14.25.33c.62.83,1.26,1.66,1.9,2.49l1.92,2.48.38.49h0Q596,553,602.72,561.16q1.35,1.64,2.73,3.27,2.74,3.27,5.58,6.57Q615.92,576.68,621.09,582.46Z"/><path class="cls-7" d="M787.12,625c-9.51,49.45-34,96.12-70.27,131.12,5.84-31.19-2.24-62.9-17.83-91l-.79-1.4a203.34,203.34,0,0,0-24.63-34.33c.38-1.2.79-2.39,1.23-3.56.9-2.5,1.92-4.92,3-7.26q.35-.75.72-1.5a88.6,88.6,0,0,1,15.18-21.71c.33-.36.67-.71,1-1.06a106.07,106.07,0,0,1,14.86-12.62l1.23-.86a128.84,128.84,0,0,1,11.88-7.25l1-.52q3.19,3.09,6.46,6.14l2.93,2.7q1.59,1.47,3.19,2.91l.44.4,2.38,2.13q1.93,1.74,3.9,3.43c.9.8,1.81,1.58,2.72,2.37q5.41,4.65,11,9.16l2.37,1.91q3.61,2.88,7.29,5.71l3.34,2.53c.78.6,1.57,1.19,2.35,1.76,1.92,1.43,3.85,2.84,5.8,4.25l3.14,2.24,3.17,2.22C785.14,623.6,786.13,624.28,787.12,625Z"/><path class="cls-8" d="M787.12,625a240.61,240.61,0,0,0,3.08-71.51c-.05-.41-.11-.8-.15-1.21-23.31,3.82-46.55,10.28-66.35,20.81A485.6,485.6,0,0,0,787.12,625Z"/><g class="cls-9"><path class="cls-10" d="M536.91,235.41c-.07.6-.11,1.21-.14,1.81l-3.08-2.7-1.27-1.12-.73-.63-2.61-2.29,1.31-.78L533,232l.24.2.64.57Z"/><path class="cls-11" d="M538.42,255.45l-4.32-3.78-8.43-7.39-5-4.36-2.54-2.23,1.21-.86,2.54,2.23,4.5,3.93h0l7,6.14,4.48,3.92s0,.06,0,.15C538.08,254,538.24,254.71,538.42,255.45Z"/><path class="cls-12" d="M545.81,278.71h0l-3.28-2.87h0L519.77,255.9l-9.26-8.11L508,245.61l1.12-.94,2.5,2.19,8.76,7.67h0l20.51,18h0l4,3.48,2.68,2.34h0c.74,1.32,1.51,2.64,2.31,3.94Z"/><path class="cls-13" d="M709.07,421.69c8,6.58,15.44,13.07,22.39,19.61Z"/><path class="cls-14" d="M748.38,475a2.18,2.18,0,1,1-4.35.29,2.14,2.14,0,0,1,1.31-2.12l-.93-14-.34-5.24c.53.56,1,1.13,1.56,1.69l.35,5.29.81,12.21A2.16,2.16,0,0,1,748.38,475Z"/><path class="cls-15" d="M784.86,524.76l-3.36.23-9.89.65-40-35.07-2.28-34.36L554.42,303l-39.73-34.8-13.57-11.89-2.47-2.16,1-1,2.47,2.16,13.07,11.45,38.13,33.39h0L730.71,455.51,733,489.88l39.14,34.27,9-.59h0l3.37-.23C784.61,523.8,784.74,524.28,784.86,524.76Z"/><path class="cls-16" d="M787.89,538l-3.31.22-17.81,1.18-52.48-46-1.85-28L569.2,340h0l-60.3-52.81L489,269.72l-2.45-2.15h0c.3-.38.61-.75.92-1.12l2.45,2.15,19.38,17,58.59,51.31h0l146,127.84,1.85,28,51.57,45.17,17-1.13,3.33-.22Q787.76,537.26,787.89,538Z"/><path class="cls-17" d="M733.14,537.72a2.18,2.18,0,1,1-3-1.84l-1-14.67-29.63-26L698.29,477,587.51,380h0L505,307.71,478.4,284.43l-2.49-2.19.8-1.23,2.49,2.19,26,22.79,80.64,70.62h0L699.7,476.31l1.21,18.25,29.63,25.95,1,15.27A2.19,2.19,0,0,1,733.14,537.72Z"/><path class="cls-18" d="M714.27,530.42a2.18,2.18,0,0,1-3.66-2.24l-32.1-28.12-1.15-17.4L611,424.51h0L503.23,330.15l-33.82-29.63-2.56-2.24.66-1.34,2.56,2.24,33.2,29.08L608.8,420.69l0,0L678.76,482l1.15,17.4,31.66,27.73a2.17,2.17,0,0,1,2.7,3.33Z"/><path class="cls-19" d="M644.91,477.26a2.13,2.13,0,0,1-.78.56,2.17,2.17,0,0,1-2.88-2.8L504,354.85l-41.86-36.67-2.69-2.35.09-.25c.14-.41.29-.82.44-1.22l2.66,2.33,41.18,36.06h0L640.47,472.4l0,0,1.72,1.5a2.17,2.17,0,0,1,2.7,3.33Z"/><path class="cls-20" d="M683.28,516.06a2.17,2.17,0,0,1-4.16,1l-5.78.38-5.17.34L507,376.59h0l-49.13-43L455,331.1q.18-.8.39-1.59L458.2,332l48.36,42.35h0l162.12,142,3.56-.24,6.79-.45a2.16,2.16,0,0,1,4.25.45Z"/><path class="cls-21" d="M745.78,565.41a2.17,2.17,0,0,1-4.16,1l-4.45.29h0l-3.29.22-36-31.5-9.15.61-20.13,1.33L512.43,400.57h0L455,350.23l-3-2.6c.07-.58.15-1.16.23-1.73l3,2.59L511.75,398,669.12,535.87l18.45-1.22,10.83-.72,36,31.5,7.14-.47h0a2.17,2.17,0,0,1,4.25.46Z"/><path class="cls-22" d="M754.43,618.74a2.17,2.17,0,0,1-3.66-2.24l-14.69-12.86-1.3-19.52-12-10.55-27.32-23.92-32.24,2.13L521.23,427.46h0l-67.37-59-3.23-2.83c0-.63,0-1.25.06-1.88l3.19,2.8,66.29,58.05h0L663.68,550.3l32.25-2.13,22.38,19.6.05.05,5.74,5,12.09,10.59.09,1.37,1.2,18.14,14.24,12.47a2.18,2.18,0,0,1,2.71,3.33Z"/><path class="cls-23" d="M722.17,597.38a2.18,2.18,0,1,1-3-1.84l-.4-5.88-9.11-8-24.14-21.15-31.82,2.11-119-104.24-79.57-69.69-3.64-3.19c-.07-.7-.14-1.4-.2-2.1l3.59,3.14L533,455.06,654.17,561.15l31.83-2.1,24.86,21.77,9.29,8.14.43,6.49A2.16,2.16,0,0,1,722.17,597.38Z"/><path class="cls-24" d="M759.63,664.37a2.18,2.18,0,1,1-3-1.84l-.86-12.89-62-54.28-13.57-11.89L657.28,585l-102-89.34L459.71,412l-4.38-3.84c-.2-.81-.4-1.62-.58-2.44l4.28,3.75,93.72,82.09,105,92L680.7,582l14.07,12.32L757.15,649l.89,13.48A2.16,2.16,0,0,1,759.63,664.37Z"/><path class="cls-25" d="M735.11,654.48a2.18,2.18,0,1,1-3-1.83l-.32-4.83-34.84-30.51-19.06,1.26-3.85.26-84.23-73.77-118.7-104-6.29-5.51c-.47-1-.93-2.09-1.37-3.14l6,5.23L585.22,539.13l89.3,78.21,4.06-.27,18.85-1.25,35.74,31.31.36,5.42A2.15,2.15,0,0,1,735.11,654.48Z"/><path class="cls-26" d="M549.59,527.12l26.77,23.44q-5.79-4.06-11.53-8.17l-71.9-63q-2.76-3.27-5.39-6.64l17.73,15.53h0l44.27,38.78Z"/><path class="cls-27" d="M708.39,663.77a2.16,2.16,0,0,1-4.15,1l-1.53.1-3.69.25-.79-1.4,3.71-.25,2.2-.14a2.15,2.15,0,0,1,1.93-1.59A2.18,2.18,0,0,1,708.39,663.77Z"/></g><path class="cls-1" d="M611.79,601.13q-6.49-4.64-12.95-8.54-3.32-2-6.6-3.85c-52.49-29.27-101.14-25.23-131.17-17.59a250.71,250.71,0,0,1,11.49-85c39.19,48.06,75.37,71,112.14,96q5,3.38,10,6.85C600.39,592.9,606.07,596.91,611.79,601.13Z"/><g class="cls-28"><path class="cls-29" d="M627.89,529.91l1.15.3c-.7,3.13-1.39,6.26-2.09,9.39-.74,3.33-1.5,6.65-2.23,10A759.47,759.47,0,0,1,595.79,650c-3.63,9.87-8.27,19.36-12.27,29.1a6.32,6.32,0,0,0,.09,4.59A66.37,66.37,0,0,0,588,691c11-43.84,27.1-85.67,51.41-124.32-2.74,12-5,24.2-8.33,36.07a533.47,533.47,0,0,1-33.66,89.52c-4.36,9-4.31,9,1.93,16.94,2.55-8.91,4.34-18.35,7.91-27,9-21.92,18.77-43.52,28.36-65.21,3.54-8,7.45-15.88,11.19-23.81l1.44.26c-1.2,8.1-1.75,16.37-3.72,24.28-6.2,24.7-15.46,48.35-25.85,71.57-2.86,6.36-5.29,12.92-8.23,19.23-1.54,3.31-3.75,6.31-5.93,9.91l6,10.21c2.63-10.43,4.08-21.16,8.07-30.87,6.86-16.73,15-33,23.15-49.13s17.09-32.28,26.21-49.4c-.26,3.93-.22,7.1-.7,10.17a194.14,194.14,0,0,1-15.63,50.49q-15.82,34.65-33.23,68.57c-3.52,6.84-2.68,11.77,2,17.38a32.41,32.41,0,0,0,1.23-3c8.76-30.24,21.71-58.6,37.6-85.74,5.12-8.73,8.89-18.24,13.11-27,1.91,8,1,16.87-1.59,25.44-5.58,18.82-14.13,36.39-23.52,53.55-7.34,13.44-15,26.74-22.73,40-2.41,4.13.51,6.44,1.69,9.15,15.21-25.42,30.59-50.59,45.31-76.14,3.67-6.39,5.2-14,7.91-21.63,1.86,10.34,1.51,20.24-1.88,29.58-9,24.91-20.67,48.43-39.46,67.68-2.58,2.64-5.56,4.89-8.62,7.55,1,2.6,2.16,5.4,3.68,9.22,17.29-27.64,42.63-48.15,56.85-77-.6,17.8-8.78,32.66-18.6,46.78S651,771.7,636,780.88l4,11.45c16.5-23,32.66-45.43,54.84-64.1-8.18,15.69-15.1,30.77-23.69,44.84-6.91,11.32-15.9,21.35-28.06,28.56.54,1.75,1.12,3.6,1.42,4.59l52.92-47.29c-10.21,25.85-26.87,44.43-48.64,58l9.12,46.56L648.27,860c-2.06-9.94-4.13-19.88-6.13-29.57L634.24,855,622,850.66c1.17-2.34,2.31-4.71,3.53-7,3.28-6.27,6.23-12.76,10-18.73,3.45-5.47,3.89-7.73.47-13-3,5.87-5.73,12.29-9.44,18.09-4,6.18-8.84,11.76-13.32,17.6l-14.91-5.32,35.82-38.09c-1-2.9-2.2-6.29-3.62-10.38-2.2,3.55-3.79,6.37-5.6,9-9.75,14.34-21.37,26.8-36.24,36l-18.42-6.56q29-22.32,58.09-44.72c-1.38-3.88-2.65-7.47-4.14-11.63-2.09,2.84-3.73,5.24-5.53,7.49-13.72,17.1-30.22,30.1-52.11,35-7.5,1.68-15.07,3-22.62,4.49l-16.66-5.94c5.55-2.6,11.07-5.31,16.67-7.81,18.23-8.15,36.71-15.78,54.63-24.53,8.11-4,15.16-10.09,22.91-15.39-.57-1.57-1.15-3.13-1.82-4.95C573.43,792.39,523.71,800.56,471,792.5c-.08-.44-.16-.89-.25-1.32,8-1.51,16.09-2.77,24-4.58,14.79-3.37,29.45-7.29,44.27-10.55,18-4,36.07-7.44,54.09-11.24,8-1.7,16-3.67,24.19-5.58-1.58-3.36-2.92-6.21-4.25-9.06-51.37,15.53-102.93,21.16-155.84,5.34.84-1.14,1-1.5,1.14-1.52,23.1-2,46.17-4.46,69.32-6,24.86-1.6,49.77-2.34,74.67-3.39,2.57-.12,5.17.22,8,.35l-5.64-11.81c-50,10.17-99.49,10-148.7-4.47,16-1.45,31.95-3.33,48-4.22,16.21-.89,32.49-1.46,48.7-1s32.31,2.49,48.91,3.87l-5.75-10.54c-11.85-.1-22.76-.07-33.67-.32-16.24-.37-32.49-1.47-48.72-1.25S481.19,717,465,717.55c40.84-21.45,83.21-19.66,127.82-7.58a41,41,0,0,1-2.75-3.53c-2.11-3.6-4.13-7.24-5.41-9.49-14.94-.49-28.85-.42-42.68-1.5-32.33-2.53-64.34.54-96.35,4.38-.88.11-1.76.14-2.64.21l-.61-1.28c4.85-2.64,9.46-5.93,14.59-7.8a173.52,173.52,0,0,1,82.36-8.83c13.74,1.74,27.31,4.89,41.08,7.43l-8.09-13.63c-19.17,2.82-38.2,1.37-57.13,0-26.42-1.86-52.77-4.56-79.15-6.8-3.95-.34-7.94-.16-12.73-.23a55.77,55.77,0,0,1,25.36-9.53c26.19-3.58,52.23-1.3,78.17,2.6,13.72,2.06,27.34,4.86,41.35,7.38-2-3.1-4-6.41-6.07-9.64-15.81,1.41-31.14-1.64-46.51-4.11-27.06-4.35-54.1-9-81.21-12.94-8-1.18-16.27-.61-25-.85a87.59,87.59,0,0,1,35.37-9.67c27.63-1.73,54.31,3.55,80.58,11.29,10.67,3.15,21,7.39,31.5,11.13l1-1.43c-2.73-3.93-5.43-7.89-8.25-11.76a3,3,0,0,0-2.06-.8c-21.83-1.43-42.66-7.73-63.59-13.31-26.19-7-52.32-14.12-80.47-16.41,11.26-4.57,22.07-6.48,33.09-5.75a294.06,294.06,0,0,1,101,24.88c1.67.75,3.28,1.61,6.2,3.06-3.75-5-6.67-8.87-9.69-12.71a3.6,3.6,0,0,0-2-1c-17.57-3.75-35.25-7-52.69-11.27-26.79-6.53-53.41-13.72-80.12-20.58-3.57-.92-7.21-1.5-10.84-2.64,7.53-3.07,15.42-3.69,23.43-3.55,19.73.36,38.7,5.13,57.45,10.6,18.14,5.28,36,11.49,54,17.28a6,6,0,0,0,1.29.12c-4.12-7.77-10.39-11.21-19-12.66-11.88-2-23.57-5.3-35.18-8.63-28-8.05-55.92-16.43-83.87-24.71-2.77-.82-5.46-1.93-9.25-3.28a101.93,101.93,0,0,1,39.11.23c25.8,4.92,51.07,11.71,75.35,21.87,4.42,1.86,8.78,3.86,13.33,5.5-3.62-4.88-7.57-8.32-14-10.25-18.1-5.4-35.87-12-53.56-18.63-23.63-8.89-47.06-18.29-70.58-27.48,0-.45,0-.89.05-1.34,7.06.17,14.19-.25,21.16.62,28.45,3.5,54.31,14.68,79.53,27.6,6.83,3.49,13.41,7.49,20.11,11.27.22-.32.45-.65.66-1-17.88-12-35.89-23.75-53.59-36s-35-24.89-52.15-37.79c44.42,5.24,74.24,32.91,101,65.29-4.82-7.29-10.09-14.33-14.38-21.92C462,525,455.5,511.46,448,498.43c-2.92-5.1-7.4-9.31-11.16-13.92a53.9,53.9,0,0,1,25.69,17.84c8.63,10.76,14.33,23.15,19.58,35.74,4,9.58,7.17,19.5,11.43,28.94,1.67,3.72,5.31,6.54,8.51,9.47-16.17-33.23-27.91-68.05-38.87-103.62,3.5,3.44,7.23,6.68,10.46,10.36,9.26,10.56,14.64,23.32,19.51,36.23,5.74,15.2,11.07,30.57,16.24,46,1.65,4.95,3.09,10.27,3.07,15.41,0,6.83,4,10.53,7.45,13.79L493.44,486a53,53,0,0,1,18.86,25.56c10.84,29.87,17.37,60.62,18.19,92.54.1,3.89,4.07,7.67,6.81,11.22-6.09-39.14-11.37-78.07-9.57-117.58l1.57-.49c2.78,6.87,6,13.61,8.27,20.63,7.49,22.91,9.6,46.65,10,70.58.15,9.42,1.06,19.11-.77,28.21-1.58,7.92.63,13.21,5.37,18.55.71.79,1.23,1.73,2.55,3.61-1-12-2-22.84-2.73-33.71-1.41-20.56-2.37-41.19,1.27-61.57,2-11.18,5.61-22.07,8.49-33.09l1.82.11c1.31,12,3.78,24.11,3.69,36.15-.2,26-1.45,51.93-2.9,77.86-.34,6-3.34,11.81-5,17.74a5.06,5.06,0,0,0,.23,3.63c2.3,3.8,4.87,7.44,7.89,12,2.78-50.27,8.53-99,30.15-144.58-.23,7.25-.35,14.51-.71,21.76A473.1,473.1,0,0,1,579.8,639c-2.22,7.9-5,15.62-7.45,23.47a5.38,5.38,0,0,0,.29,3.75c1.64,3,3.62,5.71,5.31,8.32C589.7,624.61,600.24,574.28,627.89,529.91Z"/></g><path class="cls-1" d="M685,780c-11.19,38-33.91,71.64-59,102.3a52.49,52.49,0,0,0,5.4-18.74c2.77-15.2,4.11-39.22-3.83-70.58-.25-1-.51-2-.77-3q-1.85-6.86-4.29-14.16c-.35-1-.71-2.07-1.08-3.12s-.69-1.93-1.05-2.91-.68-1.86-1-2.8-.7-1.83-1.06-2.75c-.45-1.13-.9-2.27-1.37-3.42-.34-.83-.68-1.65-1-2.48-.2-.48-.4-1-.61-1.44a305,305,0,0,0-14.09-28.67q-1.67-3-3.43-6-1.39-2.4-2.86-4.83c-.87-1.45-1.77-2.91-2.68-4.38q-5.57-8.91-12.06-18.2-1.34-1.92-2.72-3.84c-.76-1.06-1.53-2.11-2.3-3.17-1.13-1.55-2.29-3.1-3.46-4.67l0,0q-1.47-2-3-3.94c-.82-1.08-1.66-2.16-2.51-3.24q-1.86-2.38-3.78-4.78A583.62,583.62,0,0,0,518.78,623q-2.64-2.64-5.37-5.29l-.08-.08q-2.69-2.61-5.44-5.24-12.66-12.07-27-24.54c-1.93-1.67-3.89-3.36-5.87-5q-3.48-3-7.06-6-3.35-2.79-6.78-5.61l-.13-.11a179,179,0,0,1,46.46-5.52c.8,0,1.62,0,2.43,0,1.43,0,2.86.1,4.31.17l1.78.1.64,0,.25,0c1.17.08,2.34.18,3.52.28.68.05,1.36.12,2,.19l2.15.23,1.56.18,2,.25.31,0,1.81.26c.88.13,1.76.26,2.65.41l3.22.55.09,0,1.87.35c1.51.29,3,.61,4.57,1l.11,0,1.09.24.71.16,1.52.36.32.08c.83.2,1.65.41,2.48.63l.58.15c.82.21,1.64.44,2.47.67l1.91.55,1.68.5,1.69.52,1,.32.27.09c1.26.41,2.53.83,3.81,1.28.57.19,1.13.39,1.7.6.82.29,1.64.59,2.47.91l.32.12c.69.25,1.38.52,2.08.79l.31.12,2.3.92,2.14.9,1.79.76.48.22,1.69.75,2.05.94,1.76.83,2.43,1.18c.82.41,1.64.82,2.46,1.25s1.45.74,2.17,1.13l.85.45c.9.48,1.81,1,2.71,1.48l.16.09c1.1.61,2.19,1.24,3.29,1.88s2.2,1.29,3.3,2h0q6.45,3.92,12.95,8.54l2.72,2a273.66,273.66,0,0,1,28.37,24.47l.13.12,1.38,1.39q4.51,4.59,9,9.58h0c.53.57,1.05,1.15,1.57,1.74h0c.1.1.19.21.29.32,4.49,5.14,8.71,10.43,12.55,15.8h0q1.74,2.43,3.36,4.88,1.22,1.83,2.37,3.67C694.58,698.75,696.14,742,685,780Z"/><g class="cls-30"><path class="cls-29" d="M627.89,529.91l1.15.3c-.7,3.13-1.39,6.26-2.09,9.39-.74,3.33-1.5,6.65-2.23,10A759.47,759.47,0,0,1,595.79,650c-3.63,9.87-8.27,19.36-12.27,29.1a6.32,6.32,0,0,0,.09,4.59A66.37,66.37,0,0,0,588,691c11-43.84,27.1-85.67,51.41-124.32-2.74,12-5,24.2-8.33,36.07a533.47,533.47,0,0,1-33.66,89.52c-4.36,9-4.31,9,1.93,16.94,2.55-8.91,4.34-18.35,7.91-27,9-21.92,18.77-43.52,28.36-65.21,3.54-8,7.45-15.88,11.19-23.81l1.44.26c-1.2,8.1-1.75,16.37-3.72,24.28-6.2,24.7-15.46,48.35-25.85,71.57-2.86,6.36-5.29,12.92-8.23,19.23-1.54,3.31-3.75,6.31-5.93,9.91l6,10.21c2.63-10.43,4.08-21.16,8.07-30.87,6.86-16.73,15-33,23.15-49.13s17.09-32.28,26.21-49.4c-.26,3.93-.22,7.1-.7,10.17a194.14,194.14,0,0,1-15.63,50.49q-15.82,34.65-33.23,68.57c-3.52,6.84-2.68,11.77,2,17.38a32.41,32.41,0,0,0,1.23-3c8.76-30.24,21.71-58.6,37.6-85.74,5.12-8.73,8.89-18.24,13.11-27,1.91,8,1,16.87-1.59,25.44-5.58,18.82-14.13,36.39-23.52,53.55-7.34,13.44-15,26.74-22.73,40-2.41,4.13.51,6.44,1.69,9.15,15.21-25.42,30.59-50.59,45.31-76.14,3.67-6.39,5.2-14,7.91-21.63,1.86,10.34,1.51,20.24-1.88,29.58-9,24.91-20.67,48.43-39.46,67.68-2.58,2.64-5.56,4.89-8.62,7.55,1,2.6,2.16,5.4,3.68,9.22,17.29-27.64,42.63-48.15,56.85-77-.6,17.8-8.78,32.66-18.6,46.78S651,771.7,636,780.88l4,11.45c16.5-23,32.66-45.43,54.84-64.1-8.18,15.69-15.1,30.77-23.69,44.84-6.91,11.32-15.9,21.35-28.06,28.56.54,1.75,1.12,3.6,1.42,4.59l52.92-47.29c-10.21,25.85-26.87,44.43-48.64,58l9.12,46.56L648.27,860c-2.06-9.94-4.13-19.88-6.13-29.57L634.24,855,622,850.66c1.17-2.34,2.31-4.71,3.53-7,3.28-6.27,6.23-12.76,10-18.73,3.45-5.47,3.89-7.73.47-13-3,5.87-5.73,12.29-9.44,18.09-4,6.18-8.84,11.76-13.32,17.6l-14.91-5.32,35.82-38.09c-1-2.9-2.2-6.29-3.62-10.38-2.2,3.55-3.79,6.37-5.6,9-9.75,14.34-21.37,26.8-36.24,36l-18.42-6.56q29-22.32,58.09-44.72c-1.38-3.88-2.65-7.47-4.14-11.63-2.09,2.84-3.73,5.24-5.53,7.49-13.72,17.1-30.22,30.1-52.11,35-7.5,1.68-15.07,3-22.62,4.49l-16.66-5.94c5.55-2.6,11.07-5.31,16.67-7.81,18.23-8.15,36.71-15.78,54.63-24.53,8.11-4,15.16-10.09,22.91-15.39-.57-1.57-1.15-3.13-1.82-4.95C573.43,792.39,523.71,800.56,471,792.5c-.08-.44-.16-.89-.25-1.32,8-1.51,16.09-2.77,24-4.58,14.79-3.37,29.45-7.29,44.27-10.55,18-4,36.07-7.44,54.09-11.24,8-1.7,16-3.67,24.19-5.58-1.58-3.36-2.92-6.21-4.25-9.06-51.37,15.53-102.93,21.16-155.84,5.34.84-1.14,1-1.5,1.14-1.52,23.1-2,46.17-4.46,69.32-6,24.86-1.6,49.77-2.34,74.67-3.39,2.57-.12,5.17.22,8,.35l-5.64-11.81c-50,10.17-99.49,10-148.7-4.47,16-1.45,31.95-3.33,48-4.22,16.21-.89,32.49-1.46,48.7-1s32.31,2.49,48.91,3.87l-5.75-10.54c-11.85-.1-22.76-.07-33.67-.32-16.24-.37-32.49-1.47-48.72-1.25S481.19,717,465,717.55c40.84-21.45,83.21-19.66,127.82-7.58a41,41,0,0,1-2.75-3.53c-2.11-3.6-4.13-7.24-5.41-9.49-14.94-.49-28.85-.42-42.68-1.5-32.33-2.53-64.34.54-96.35,4.38-.88.11-1.76.14-2.64.21l-.61-1.28c4.85-2.64,9.46-5.93,14.59-7.8a173.52,173.52,0,0,1,82.36-8.83c13.74,1.74,27.31,4.89,41.08,7.43l-8.09-13.63c-19.17,2.82-38.2,1.37-57.13,0-26.42-1.86-52.77-4.56-79.15-6.8-3.95-.34-7.94-.16-12.73-.23a55.77,55.77,0,0,1,25.36-9.53c26.19-3.58,52.23-1.3,78.17,2.6,13.72,2.06,27.34,4.86,41.35,7.38-2-3.1-4-6.41-6.07-9.64-15.81,1.41-31.14-1.64-46.51-4.11-27.06-4.35-54.1-9-81.21-12.94-8-1.18-16.27-.61-25-.85a87.59,87.59,0,0,1,35.37-9.67c27.63-1.73,54.31,3.55,80.58,11.29,10.67,3.15,21,7.39,31.5,11.13l1-1.43c-2.73-3.93-5.43-7.89-8.25-11.76a3,3,0,0,0-2.06-.8c-21.83-1.43-42.66-7.73-63.59-13.31-26.19-7-52.32-14.12-80.47-16.41,11.26-4.57,22.07-6.48,33.09-5.75a294.06,294.06,0,0,1,101,24.88c1.67.75,3.28,1.61,6.2,3.06-3.75-5-6.67-8.87-9.69-12.71a3.6,3.6,0,0,0-2-1c-17.57-3.75-35.25-7-52.69-11.27-26.79-6.53-53.41-13.72-80.12-20.58-3.57-.92-7.21-1.5-10.84-2.64,7.53-3.07,15.42-3.69,23.43-3.55,19.73.36,38.7,5.13,57.45,10.6,18.14,5.28,36,11.49,54,17.28a6,6,0,0,0,1.29.12c-4.12-7.77-10.39-11.21-19-12.66-11.88-2-23.57-5.3-35.18-8.63-28-8.05-55.92-16.43-83.87-24.71-2.77-.82-5.46-1.93-9.25-3.28a101.93,101.93,0,0,1,39.11.23c25.8,4.92,51.07,11.71,75.35,21.87,4.42,1.86,8.78,3.86,13.33,5.5-3.62-4.88-7.57-8.32-14-10.25-18.1-5.4-35.87-12-53.56-18.63-23.63-8.89-47.06-18.29-70.58-27.48,0-.45,0-.89.05-1.34,7.06.17,14.19-.25,21.16.62,28.45,3.5,54.31,14.68,79.53,27.6,6.83,3.49,13.41,7.49,20.11,11.27.22-.32.45-.65.66-1-17.88-12-35.89-23.75-53.59-36s-35-24.89-52.15-37.79c44.42,5.24,74.24,32.91,101,65.29-4.82-7.29-10.09-14.33-14.38-21.92C462,525,455.5,511.46,448,498.43c-2.92-5.1-7.4-9.31-11.16-13.92a53.9,53.9,0,0,1,25.69,17.84c8.63,10.76,14.33,23.15,19.58,35.74,4,9.58,7.17,19.5,11.43,28.94,1.67,3.72,5.31,6.54,8.51,9.47-16.17-33.23-27.91-68.05-38.87-103.62,3.5,3.44,7.23,6.68,10.46,10.36,9.26,10.56,14.64,23.32,19.51,36.23,5.74,15.2,11.07,30.57,16.24,46,1.65,4.95,3.09,10.27,3.07,15.41,0,6.83,4,10.53,7.45,13.79L493.44,486a53,53,0,0,1,18.86,25.56c10.84,29.87,17.37,60.62,18.19,92.54.1,3.89,4.07,7.67,6.81,11.22-6.09-39.14-11.37-78.07-9.57-117.58l1.57-.49c2.78,6.87,6,13.61,8.27,20.63,7.49,22.91,9.6,46.65,10,70.58.15,9.42,1.06,19.11-.77,28.21-1.58,7.92.63,13.21,5.37,18.55.71.79,1.23,1.73,2.55,3.61-1-12-2-22.84-2.73-33.71-1.41-20.56-2.37-41.19,1.27-61.57,2-11.18,5.61-22.07,8.49-33.09l1.82.11c1.31,12,3.78,24.11,3.69,36.15-.2,26-1.45,51.93-2.9,77.86-.34,6-3.34,11.81-5,17.74a5.06,5.06,0,0,0,.23,3.63c2.3,3.8,4.87,7.44,7.89,12,2.78-50.27,8.53-99,30.15-144.58-.23,7.25-.35,14.51-.71,21.76A473.1,473.1,0,0,1,579.8,639c-2.22,7.9-5,15.62-7.45,23.47a5.38,5.38,0,0,0,.29,3.75c1.64,3,3.62,5.71,5.31,8.32C589.7,624.61,600.24,574.28,627.89,529.91Z"/></g><path class="cls-1" d="M461.07,571.15h0s76.91,66.73,131.56,194h0c14.48,14,25.7,31.11,31.28,50,4.65,15.78,9,32.54,7.41,48.32C638.91,822,635.75,714.26,461.07,571.15Z"/><g class="cls-31"><path class="cls-29" d="M627.89,529.91l1.15.3c-.7,3.13-1.39,6.26-2.09,9.39-.74,3.33-1.5,6.65-2.23,10A759.47,759.47,0,0,1,595.79,650c-3.63,9.87-8.27,19.36-12.27,29.1a6.32,6.32,0,0,0,.09,4.59A66.37,66.37,0,0,0,588,691c11-43.84,27.1-85.67,51.41-124.32-2.74,12-5,24.2-8.33,36.07a533.47,533.47,0,0,1-33.66,89.52c-4.36,9-4.31,9,1.93,16.94,2.55-8.91,4.34-18.35,7.91-27,9-21.92,18.77-43.52,28.36-65.21,3.54-8,7.45-15.88,11.19-23.81l1.44.26c-1.2,8.1-1.75,16.37-3.72,24.28-6.2,24.7-15.46,48.35-25.85,71.57-2.86,6.36-5.29,12.92-8.23,19.23-1.54,3.31-3.75,6.31-5.93,9.91l6,10.21c2.63-10.43,4.08-21.16,8.07-30.87,6.86-16.73,15-33,23.15-49.13s17.09-32.28,26.21-49.4c-.26,3.93-.22,7.1-.7,10.17a194.14,194.14,0,0,1-15.63,50.49q-15.82,34.65-33.23,68.57c-3.52,6.84-2.68,11.77,2,17.38a32.41,32.41,0,0,0,1.23-3c8.76-30.24,21.71-58.6,37.6-85.74,5.12-8.73,8.89-18.24,13.11-27,1.91,8,1,16.87-1.59,25.44-5.58,18.82-14.13,36.39-23.52,53.55-7.34,13.44-15,26.74-22.73,40-2.41,4.13.51,6.44,1.69,9.15,15.21-25.42,30.59-50.59,45.31-76.14,3.67-6.39,5.2-14,7.91-21.63,1.86,10.34,1.51,20.24-1.88,29.58-9,24.91-20.67,48.43-39.46,67.68-2.58,2.64-5.56,4.89-8.62,7.55,1,2.6,2.16,5.4,3.68,9.22,17.29-27.64,42.63-48.15,56.85-77-.6,17.8-8.78,32.66-18.6,46.78S651,771.7,636,780.88l4,11.45c16.5-23,32.66-45.43,54.84-64.1-8.18,15.69-15.1,30.77-23.69,44.84-6.91,11.32-15.9,21.35-28.06,28.56.54,1.75,1.12,3.6,1.42,4.59l52.92-47.29c-10.21,25.85-26.87,44.43-48.64,58l9.12,46.56L648.27,860c-2.06-9.94-4.13-19.88-6.13-29.57L634.24,855,622,850.66c1.17-2.34,2.31-4.71,3.53-7,3.28-6.27,6.23-12.76,10-18.73,3.45-5.47,3.89-7.73.47-13-3,5.87-5.73,12.29-9.44,18.09-4,6.18-8.84,11.76-13.32,17.6l-14.91-5.32,35.82-38.09c-1-2.9-2.2-6.29-3.62-10.38-2.2,3.55-3.79,6.37-5.6,9-9.75,14.34-21.37,26.8-36.24,36l-18.42-6.56q29-22.32,58.09-44.72c-1.38-3.88-2.65-7.47-4.14-11.63-2.09,2.84-3.73,5.24-5.53,7.49-13.72,17.1-30.22,30.1-52.11,35-7.5,1.68-15.07,3-22.62,4.49l-16.66-5.94c5.55-2.6,11.07-5.31,16.67-7.81,18.23-8.15,36.71-15.78,54.63-24.53,8.11-4,15.16-10.09,22.91-15.39-.57-1.57-1.15-3.13-1.82-4.95C573.43,792.39,523.71,800.56,471,792.5c-.08-.44-.16-.89-.25-1.32,8-1.51,16.09-2.77,24-4.58,14.79-3.37,29.45-7.29,44.27-10.55,18-4,36.07-7.44,54.09-11.24,8-1.7,16-3.67,24.19-5.58-1.58-3.36-2.92-6.21-4.25-9.06-51.37,15.53-102.93,21.16-155.84,5.34.84-1.14,1-1.5,1.14-1.52,23.1-2,46.17-4.46,69.32-6,24.86-1.6,49.77-2.34,74.67-3.39,2.57-.12,5.17.22,8,.35l-5.64-11.81c-50,10.17-99.49,10-148.7-4.47,16-1.45,31.95-3.33,48-4.22,16.21-.89,32.49-1.46,48.7-1s32.31,2.49,48.91,3.87l-5.75-10.54c-11.85-.1-22.76-.07-33.67-.32-16.24-.37-32.49-1.47-48.72-1.25S481.19,717,465,717.55c40.84-21.45,83.21-19.66,127.82-7.58a41,41,0,0,1-2.75-3.53c-2.11-3.6-4.13-7.24-5.41-9.49-14.94-.49-28.85-.42-42.68-1.5-32.33-2.53-64.34.54-96.35,4.38-.88.11-1.76.14-2.64.21l-.61-1.28c4.85-2.64,9.46-5.93,14.59-7.8a173.52,173.52,0,0,1,82.36-8.83c13.74,1.74,27.31,4.89,41.08,7.43l-8.09-13.63c-19.17,2.82-38.2,1.37-57.13,0-26.42-1.86-52.77-4.56-79.15-6.8-3.95-.34-7.94-.16-12.73-.23a55.77,55.77,0,0,1,25.36-9.53c26.19-3.58,52.23-1.3,78.17,2.6,13.72,2.06,27.34,4.86,41.35,7.38-2-3.1-4-6.41-6.07-9.64-15.81,1.41-31.14-1.64-46.51-4.11-27.06-4.35-54.1-9-81.21-12.94-8-1.18-16.27-.61-25-.85a87.59,87.59,0,0,1,35.37-9.67c27.63-1.73,54.31,3.55,80.58,11.29,10.67,3.15,21,7.39,31.5,11.13l1-1.43c-2.73-3.93-5.43-7.89-8.25-11.76a3,3,0,0,0-2.06-.8c-21.83-1.43-42.66-7.73-63.59-13.31-26.19-7-52.32-14.12-80.47-16.41,11.26-4.57,22.07-6.48,33.09-5.75a294.06,294.06,0,0,1,101,24.88c1.67.75,3.28,1.61,6.2,3.06-3.75-5-6.67-8.87-9.69-12.71a3.6,3.6,0,0,0-2-1c-17.57-3.75-35.25-7-52.69-11.27-26.79-6.53-53.41-13.72-80.12-20.58-3.57-.92-7.21-1.5-10.84-2.64,7.53-3.07,15.42-3.69,23.43-3.55,19.73.36,38.7,5.13,57.45,10.6,18.14,5.28,36,11.49,54,17.28a6,6,0,0,0,1.29.12c-4.12-7.77-10.39-11.21-19-12.66-11.88-2-23.57-5.3-35.18-8.63-28-8.05-55.92-16.43-83.87-24.71-2.77-.82-5.46-1.93-9.25-3.28a101.93,101.93,0,0,1,39.11.23c25.8,4.92,51.07,11.71,75.35,21.87,4.42,1.86,8.78,3.86,13.33,5.5-3.62-4.88-7.57-8.32-14-10.25-18.1-5.4-35.87-12-53.56-18.63-23.63-8.89-47.06-18.29-70.58-27.48,0-.45,0-.89.05-1.34,7.06.17,14.19-.25,21.16.62,28.45,3.5,54.31,14.68,79.53,27.6,6.83,3.49,13.41,7.49,20.11,11.27.22-.32.45-.65.66-1-17.88-12-35.89-23.75-53.59-36s-35-24.89-52.15-37.79c44.42,5.24,74.24,32.91,101,65.29-4.82-7.29-10.09-14.33-14.38-21.92C462,525,455.5,511.46,448,498.43c-2.92-5.1-7.4-9.31-11.16-13.92a53.9,53.9,0,0,1,25.69,17.84c8.63,10.76,14.33,23.15,19.58,35.74,4,9.58,7.17,19.5,11.43,28.94,1.67,3.72,5.31,6.54,8.51,9.47-16.17-33.23-27.91-68.05-38.87-103.62,3.5,3.44,7.23,6.68,10.46,10.36,9.26,10.56,14.64,23.32,19.51,36.23,5.74,15.2,11.07,30.57,16.24,46,1.65,4.95,3.09,10.27,3.07,15.41,0,6.83,4,10.53,7.45,13.79L493.44,486a53,53,0,0,1,18.86,25.56c10.84,29.87,17.37,60.62,18.19,92.54.1,3.89,4.07,7.67,6.81,11.22-6.09-39.14-11.37-78.07-9.57-117.58l1.57-.49c2.78,6.87,6,13.61,8.27,20.63,7.49,22.91,9.6,46.65,10,70.58.15,9.42,1.06,19.11-.77,28.21-1.58,7.92.63,13.21,5.37,18.55.71.79,1.23,1.73,2.55,3.61-1-12-2-22.84-2.73-33.71-1.41-20.56-2.37-41.19,1.27-61.57,2-11.18,5.61-22.07,8.49-33.09l1.82.11c1.31,12,3.78,24.11,3.69,36.15-.2,26-1.45,51.93-2.9,77.86-.34,6-3.34,11.81-5,17.74a5.06,5.06,0,0,0,.23,3.63c2.3,3.8,4.87,7.44,7.89,12,2.78-50.27,8.53-99,30.15-144.58-.23,7.25-.35,14.51-.71,21.76A473.1,473.1,0,0,1,579.8,639c-2.22,7.9-5,15.62-7.45,23.47a5.38,5.38,0,0,0,.29,3.75c1.64,3,3.62,5.71,5.31,8.32C589.7,624.61,600.24,574.28,627.89,529.91Z"/></g><path class="cls-1" d="M461.07,571.15C463,621,480.38,669.59,515.69,704.28c16.54,16.25,52.43,39.91,70.18,54.82q3.48,2.94,6.76,6.1h0C538,637.88,461.07,571.16,461.07,571.15Z"/><g class="cls-32"><path class="cls-29" d="M627.89,529.91l1.15.3c-.7,3.13-1.39,6.26-2.09,9.39-.74,3.33-1.5,6.65-2.23,10A759.47,759.47,0,0,1,595.79,650c-3.63,9.87-8.27,19.36-12.27,29.1a6.32,6.32,0,0,0,.09,4.59A66.37,66.37,0,0,0,588,691c11-43.84,27.1-85.67,51.41-124.32-2.74,12-5,24.2-8.33,36.07a533.47,533.47,0,0,1-33.66,89.52c-4.36,9-4.31,9,1.93,16.94,2.55-8.91,4.34-18.35,7.91-27,9-21.92,18.77-43.52,28.36-65.21,3.54-8,7.45-15.88,11.19-23.81l1.44.26c-1.2,8.1-1.75,16.37-3.72,24.28-6.2,24.7-15.46,48.35-25.85,71.57-2.86,6.36-5.29,12.92-8.23,19.23-1.54,3.31-3.75,6.31-5.93,9.91l6,10.21c2.63-10.43,4.08-21.16,8.07-30.87,6.86-16.73,15-33,23.15-49.13s17.09-32.28,26.21-49.4c-.26,3.93-.22,7.1-.7,10.17a194.14,194.14,0,0,1-15.63,50.49q-15.82,34.65-33.23,68.57c-3.52,6.84-2.68,11.77,2,17.38a32.41,32.41,0,0,0,1.23-3c8.76-30.24,21.71-58.6,37.6-85.74,5.12-8.73,8.89-18.24,13.11-27,1.91,8,1,16.87-1.59,25.44-5.58,18.82-14.13,36.39-23.52,53.55-7.34,13.44-15,26.74-22.73,40-2.41,4.13.51,6.44,1.69,9.15,15.21-25.42,30.59-50.59,45.31-76.14,3.67-6.39,5.2-14,7.91-21.63,1.86,10.34,1.51,20.24-1.88,29.58-9,24.91-20.67,48.43-39.46,67.68-2.58,2.64-5.56,4.89-8.62,7.55,1,2.6,2.16,5.4,3.68,9.22,17.29-27.64,42.63-48.15,56.85-77-.6,17.8-8.78,32.66-18.6,46.78S651,771.7,636,780.88l4,11.45c16.5-23,32.66-45.43,54.84-64.1-8.18,15.69-15.1,30.77-23.69,44.84-6.91,11.32-15.9,21.35-28.06,28.56.54,1.75,1.12,3.6,1.42,4.59l52.92-47.29c-10.21,25.85-26.87,44.43-48.64,58l9.12,46.56L648.27,860c-2.06-9.94-4.13-19.88-6.13-29.57L634.24,855,622,850.66c1.17-2.34,2.31-4.71,3.53-7,3.28-6.27,6.23-12.76,10-18.73,3.45-5.47,3.89-7.73.47-13-3,5.87-5.73,12.29-9.44,18.09-4,6.18-8.84,11.76-13.32,17.6l-14.91-5.32,35.82-38.09c-1-2.9-2.2-6.29-3.62-10.38-2.2,3.55-3.79,6.37-5.6,9-9.75,14.34-21.37,26.8-36.24,36l-18.42-6.56q29-22.32,58.09-44.72c-1.38-3.88-2.65-7.47-4.14-11.63-2.09,2.84-3.73,5.24-5.53,7.49-13.72,17.1-30.22,30.1-52.11,35-7.5,1.68-15.07,3-22.62,4.49l-16.66-5.94c5.55-2.6,11.07-5.31,16.67-7.81,18.23-8.15,36.71-15.78,54.63-24.53,8.11-4,15.16-10.09,22.91-15.39-.57-1.57-1.15-3.13-1.82-4.95C573.43,792.39,523.71,800.56,471,792.5c-.08-.44-.16-.89-.25-1.32,8-1.51,16.09-2.77,24-4.58,14.79-3.37,29.45-7.29,44.27-10.55,18-4,36.07-7.44,54.09-11.24,8-1.7,16-3.67,24.19-5.58-1.58-3.36-2.92-6.21-4.25-9.06-51.37,15.53-102.93,21.16-155.84,5.34.84-1.14,1-1.5,1.14-1.52,23.1-2,46.17-4.46,69.32-6,24.86-1.6,49.77-2.34,74.67-3.39,2.57-.12,5.17.22,8,.35l-5.64-11.81c-50,10.17-99.49,10-148.7-4.47,16-1.45,31.95-3.33,48-4.22,16.21-.89,32.49-1.46,48.7-1s32.31,2.49,48.91,3.87l-5.75-10.54c-11.85-.1-22.76-.07-33.67-.32-16.24-.37-32.49-1.47-48.72-1.25S481.19,717,465,717.55c40.84-21.45,83.21-19.66,127.82-7.58a41,41,0,0,1-2.75-3.53c-2.11-3.6-4.13-7.24-5.41-9.49-14.94-.49-28.85-.42-42.68-1.5-32.33-2.53-64.34.54-96.35,4.38-.88.11-1.76.14-2.64.21l-.61-1.28c4.85-2.64,9.46-5.93,14.59-7.8a173.52,173.52,0,0,1,82.36-8.83c13.74,1.74,27.31,4.89,41.08,7.43l-8.09-13.63c-19.17,2.82-38.2,1.37-57.13,0-26.42-1.86-52.77-4.56-79.15-6.8-3.95-.34-7.94-.16-12.73-.23a55.77,55.77,0,0,1,25.36-9.53c26.19-3.58,52.23-1.3,78.17,2.6,13.72,2.06,27.34,4.86,41.35,7.38-2-3.1-4-6.41-6.07-9.64-15.81,1.41-31.14-1.64-46.51-4.11-27.06-4.35-54.1-9-81.21-12.94-8-1.18-16.27-.61-25-.85a87.59,87.59,0,0,1,35.37-9.67c27.63-1.73,54.31,3.55,80.58,11.29,10.67,3.15,21,7.39,31.5,11.13l1-1.43c-2.73-3.93-5.43-7.89-8.25-11.76a3,3,0,0,0-2.06-.8c-21.83-1.43-42.66-7.73-63.59-13.31-26.19-7-52.32-14.12-80.47-16.41,11.26-4.57,22.07-6.48,33.09-5.75a294.06,294.06,0,0,1,101,24.88c1.67.75,3.28,1.61,6.2,3.06-3.75-5-6.67-8.87-9.69-12.71a3.6,3.6,0,0,0-2-1c-17.57-3.75-35.25-7-52.69-11.27-26.79-6.53-53.41-13.72-80.12-20.58-3.57-.92-7.21-1.5-10.84-2.64,7.53-3.07,15.42-3.69,23.43-3.55,19.73.36,38.7,5.13,57.45,10.6,18.14,5.28,36,11.49,54,17.28a6,6,0,0,0,1.29.12c-4.12-7.77-10.39-11.21-19-12.66-11.88-2-23.57-5.3-35.18-8.63-28-8.05-55.92-16.43-83.87-24.71-2.77-.82-5.46-1.93-9.25-3.28a101.93,101.93,0,0,1,39.11.23c25.8,4.92,51.07,11.71,75.35,21.87,4.42,1.86,8.78,3.86,13.33,5.5-3.62-4.88-7.57-8.32-14-10.25-18.1-5.4-35.87-12-53.56-18.63-23.63-8.89-47.06-18.29-70.58-27.48,0-.45,0-.89.05-1.34,7.06.17,14.19-.25,21.16.62,28.45,3.5,54.31,14.68,79.53,27.6,6.83,3.49,13.41,7.49,20.11,11.27.22-.32.45-.65.66-1-17.88-12-35.89-23.75-53.59-36s-35-24.89-52.15-37.79c44.42,5.24,74.24,32.91,101,65.29-4.82-7.29-10.09-14.33-14.38-21.92C462,525,455.5,511.46,448,498.43c-2.92-5.1-7.4-9.31-11.16-13.92a53.9,53.9,0,0,1,25.69,17.84c8.63,10.76,14.33,23.15,19.58,35.74,4,9.58,7.17,19.5,11.43,28.94,1.67,3.72,5.31,6.54,8.51,9.47-16.17-33.23-27.91-68.05-38.87-103.62,3.5,3.44,7.23,6.68,10.46,10.36,9.26,10.56,14.64,23.32,19.51,36.23,5.74,15.2,11.07,30.57,16.24,46,1.65,4.95,3.09,10.27,3.07,15.41,0,6.83,4,10.53,7.45,13.79L493.44,486a53,53,0,0,1,18.86,25.56c10.84,29.87,17.37,60.62,18.19,92.54.1,3.89,4.07,7.67,6.81,11.22-6.09-39.14-11.37-78.07-9.57-117.58l1.57-.49c2.78,6.87,6,13.61,8.27,20.63,7.49,22.91,9.6,46.65,10,70.58.15,9.42,1.06,19.11-.77,28.21-1.58,7.92.63,13.21,5.37,18.55.71.79,1.23,1.73,2.55,3.61-1-12-2-22.84-2.73-33.71-1.41-20.56-2.37-41.19,1.27-61.57,2-11.18,5.61-22.07,8.49-33.09l1.82.11c1.31,12,3.78,24.11,3.69,36.15-.2,26-1.45,51.93-2.9,77.86-.34,6-3.34,11.81-5,17.74a5.06,5.06,0,0,0,.23,3.63c2.3,3.8,4.87,7.44,7.89,12,2.78-50.27,8.53-99,30.15-144.58-.23,7.25-.35,14.51-.71,21.76A473.1,473.1,0,0,1,579.8,639c-2.22,7.9-5,15.62-7.45,23.47a5.38,5.38,0,0,0,.29,3.75c1.64,3,3.62,5.71,5.31,8.32C589.7,624.61,600.24,574.28,627.89,529.91Z"/></g><text class="cls-33" transform="translate(338.09 1022.83)">MY<tspan class="cls-34" x="228.95" y="0">BIL</tspan><tspan class="cls-35" x="485.77" y="0">L</tspan></text></g></g></svg>