<?xml version="1.0" encoding="utf-8"?>
<!-- Generator: Adobe Illustrator 25.0.0, SVG Export Plug-In . SVG Version: 6.00 Build 0)  -->
<svg version="1.1" id="Layer_5" xmlns="http://www.w3.org/2000/svg" xmlns:xlink="http://www.w3.org/1999/xlink" x="0px" y="0px"
	 viewBox="0 0 512 512" style="enable-background:new 0 0 512 512;" xml:space="preserve">
<style type="text/css">
	.st0{fill:#3C3950;}
</style>
<g>
	<path class="st0" d="M104,81.3l10.23,30.7H152V96h-26.23L104,30.7l-25.49,76.45L68.94,88H40v16h19.06l22.43,44.85L104,81.3z"/>
	<path class="st0" d="M464,384c22.06,0,40-17.94,40-40V136c0-19.44-13.95-35.65-32.37-39.23C467.94,51.62,430.08,16,384,16
		c-45.82,0-83.54,35.22-87.59,80H184c0-48.52-39.48-88-88-88S8,47.48,8,96c0,27.74,13.14,53.66,34.91,70.16
		C31.34,176.42,24,191.35,24,208v15.99v8v21.41c0,31.75,19.06,60.02,48,72.11v22.46c-28.6,16.06-48,46.65-48,81.71V504h182.85v-0.18
		c8.3-0.43,16.35-2.3,23.95-5.76l65.09-29.58c2.54-1.15,4.82-2.67,6.85-4.47H336c10.42,0,19.22-6.71,22.53-16H480
		c13.23,0,24-10.77,24-24s-10.77-24-24-24h-48c-4.42,0-8-3.58-8-8v-8H464z M464,368H187.9c-13.42-15.2-31.56-26.02-51.9-30.12
		v-11.76c3.99-1.34,7.67-3.4,10.91-6.12H488v24C488,357.23,477.23,368,464,368z M320,400h-14.11c-16.39,0-31.98,7.6-41.89,19.81V384
		h64v16.81C325.42,400.28,322.74,400,320,400z M214.51,444.98l-4.08-28.54c-1.67-11.68-5.52-22.61-11.06-32.44H248v45.76
		L214.51,444.98z M108.94,215.99l5.79-11.58c1.36-2.73,4.1-4.42,7.16-4.42H168c4.42,0,8,3.59,8,8s-3.58,8-8,8H108.94z M384,32
		c39.7,0,72,32.3,72,72s-32.3,72-72,72s-72-32.3-72-72S344.3,32,384,32z M296.41,112c4.06,44.78,41.77,80,87.59,80
		c45.38,0,82.82-34.53,87.5-78.68c9.55,3.17,16.5,12.08,16.5,22.68v168H157.41c1.22-4.1,1.79-8.42,1.34-12.82l-5.92-59.19H168
		c13.23,0,24-10.77,24-24s-10.77-24-24-24h-16.81c-1.11-5.44-3.44-10.41-6.52-14.81c19.96-13.25,33.41-33.82,37.7-57.18L296.41,112z
		 M24,96c0-39.7,32.3-72,72-72s72,32.3,72,72c0,25.66-13.51,48.85-35.38,61.81c-6.03-3.66-13.06-5.81-20.62-5.81H80
		c-7.98,0-15.55,1.7-22.42,4.72C36.83,143.56,24,120.72,24,96z M40,208c0-22.06,17.94-40,40-40h32.01
		c10.43,0,19.32,6.68,22.62,15.99h-12.74c-9.15,0-17.38,5.08-21.47,13.26l-9.37,18.74H40L40,208z M40,253.4v-21.41h21.93
		C58.1,237.91,56,244.78,56,252c0,9.73,3.94,19.26,10.83,26.14l5.17,5.17v24.34C52.53,296.83,40,276.29,40,253.4L40,253.4z
		 M78.14,266.83c-3.9-3.9-6.14-9.31-6.14-14.83c0-5.6,2.18-10.86,6.14-14.83l5.18-5.18h53.44l6.08,60.8
		c0.53,5.22-1.3,10.37-5.03,14.1c-3.25,3.25-7.76,5.12-12.36,5.12H104v16h16v8.1c-0.78-0.02-1.54-0.11-2.31-0.11
		c-10.38,0-20.34,1.77-29.69,4.9v-64.22L78.14,266.83z M224.18,483.5c-6.57,2.99-13.57,4.5-20.8,4.5
		c-22.38,0-41.74-14.41-48.17-35.84l-11.54-38.46l-15.33,4.59l11.54,38.46c3.78,12.6,11.07,23.2,20.47,31.25H40v-58.31
		C40,386.85,74.85,352,117.69,352c38.41,0,71.47,28.67,76.9,66.7l4.74,33.18l-10.64,4.84l6.62,14.56l47.37-21.54l9.37,21.07
		L224.18,483.5z M289.27,453.9l-22.65,10.3l-9.37-21.08l22.22-10.1c1.47-0.66,3.1-1.02,5.05-1.02c6.32,0,11.47,5.15,11.47,11.47
		C296,447.95,293.36,452.05,289.27,453.9z M336,448h-24.42c0.26-1.49,0.42-2.99,0.42-4.53c0-11.66-7.32-21.57-17.73-25.55
		c3.73-1.21,7.62-1.92,11.62-1.92H320c13.23,0,24,10.77,24,24C344,444.42,340.42,448,336,448L336,448z M432,416h48
		c4.42,0,8,3.58,8,8s-3.58,8-8,8H359.19c-1.98-9.7-7.57-18.02-15.19-23.79V384h64v8C408,405.23,418.77,416,432,416L432,416z"/>
	<path class="st0" d="M456,336h16v16h-16V336z"/>
	<path class="st0" d="M392,336h16v16h-16V336z"/>
	<path class="st0" d="M424,336h16v16h-16V336z"/>
	<path class="st0" d="M336,64h16v16h-16V64z"/>
	<path class="st0" d="M368,64h64v16h-64V64z"/>
	<path class="st0" d="M336,96h16v16h-16V96z"/>
	<path class="st0" d="M368,96h64v16h-64V96z"/>
	<path class="st0" d="M336,128h16v16h-16V128z"/>
	<path class="st0" d="M368,128h64v16h-64V128z"/>
	<path class="st0" d="M288,224h-80v64h80V224z M272,272h-48v-32h48V272z"/>
	<path class="st0" d="M208,192h80v16h-80V192z"/>
	<path class="st0" d="M208,160h80v16h-80V160z"/>
	<path class="st0" d="M208,128h80v16h-80V128z"/>
	<path class="st0" d="M304,272h16v16h-16V272z"/>
	<path class="st0" d="M336,272h136v16H336V272z"/>
	<path class="st0" d="M304,240h168v16H304V240z"/>
	<path class="st0" d="M304,208h168v16H304V208z"/>
</g>
</svg>
