<?xml version="1.0" encoding="utf-8"?>
<!-- Generator: Adobe Illustrator 25.0.0, SVG Export Plug-In . SVG Version: 6.00 Build 0)  -->
<svg version="1.1" id="Capa_1" xmlns="http://www.w3.org/2000/svg" xmlns:xlink="http://www.w3.org/1999/xlink" x="0px" y="0px"
	 viewBox="0 0 512 512" style="enable-background:new 0 0 512 512;" xml:space="preserve">
<style type="text/css">
	.st0{fill:#3C3950;}
</style>
<path class="st0" d="M451.65,0.36c-25.78,2.71-56.79,19.87-94.81,52.46c-68.79,58.96-149.93,160.76-202.18,234
	c-38.16-5.95-78.38,10.37-102.19,40.13C8.76,381.58,45.35,430.34,4.12,473.81c-7.18,7.57-4.62,20.01,4.98,24.11
	c67.45,28.88,153.66,10.88,194.11-31.77c24.72-26.06,38.17-64.54,31.41-100.76c72.28-55.46,172.15-140.96,228.7-211.88
	c31.32-39.28,47.21-70.87,48.58-96.59C513.76,22.27,486.87-3.35,451.65,0.36L451.65,0.36z M181.44,445.51
	c-27.36,28.85-87.9,45.65-141.77,31.29c30.12-48.04,4.23-91.12,36.21-131.11c26.25-32.81,79.03-41.99,109.71-11.32
	C221.44,370.22,204.74,420.94,181.44,445.51z M184.51,296.67c7.35-10.17,18.89-25.86,33.29-44.66l49.22,49.22
	c-18.12,14.91-33.26,26.86-43.08,34.49C215.1,319.85,201.42,305.62,184.51,296.67L184.51,296.67z M481.95,55.32
	c-3.37,63-143.84,186.02-191.8,226.62l-53.79-53.79c39.46-49.96,155.26-191.31,218.42-197.95
	C471.64,28.42,482.82,39.05,481.95,55.32z"/>
</svg>
