<?xml version="1.0" encoding="utf-8"?>
<!-- Generator: Adobe Illustrator 25.0.0, SVG Export Plug-In . SVG Version: 6.00 Build 0)  -->
<svg version="1.1" id="Layer_1" xmlns="http://www.w3.org/2000/svg" xmlns:xlink="http://www.w3.org/1999/xlink" x="0px" y="0px"
	 viewBox="0 0 512 512" style="enable-background:new 0 0 512 512;" xml:space="preserve">
<style type="text/css">
	.st0{fill:#3C3950;}
</style>
<g id="Outline">
	<path class="st0" d="M32,168H16v-32c0.02-22.08,17.92-39.98,40-40h272V80h-16c-4.42,0-8-3.58-8-8c0-2.12,0.84-4.16,2.34-5.66l48-48
		c3.12-3.12,8.19-3.12,11.31,0c0,0,0,0,0,0l48,48c3.12,3.12,3.12,8.19,0,11.31c-1.5,1.5-3.54,2.34-5.66,2.34h-16v16h32
		c22.08,0.02,39.98,17.92,40,40v160h-16V136c-0.02-13.25-10.75-23.98-24-24h-32v144h-16V72c0-4.42,3.58-8,8-8h4.69L360,35.31
		L331.31,64H336c4.42,0,8,3.58,8,8v192h-16V112H56c-13.25,0.02-23.98,10.75-24,24V168z M56,416h133.25l-19.2,64H152v16h176v-16
		h-18.05l-10.29-34.3l-15.33,4.6l8.91,29.7h-106.5l19.2-64H264v-16H56c-13.25-0.02-23.98-10.75-24-24v-8h224v-16H32V184H16v192
		C16.02,398.08,33.92,415.98,56,416z M296,280V152h-32v184H56v-16h32v-64c0-4.42,3.58-8,8-8h48c4.42,0,8,3.58,8,8v64h16V200
		c0-4.42,3.58-8,8-8h48c4.42,0,8,3.58,8,8v120h16V144c0-4.42,3.58-8,8-8h48c4.42,0,8,3.58,8,8v136H296z M136,264h-32v56h32V264z
		 M216,208h-32v112h32V208z M56,128v16h16v-16H56z M104,128H88v16h16V128z M120,128v16h16v-16H120z M488.97,455.03
		c4.49,4.51,7.01,10.61,7.03,16.97c0.01,13.24-10.71,23.99-23.96,24c-0.01,0-0.03,0-0.04,0c-6.35-0.06-12.44-2.58-16.97-7.03
		l-38.29-38.29c-45.7,26.96-104.6,11.77-131.56-33.93c-26.96-45.7-11.77-104.6,33.93-131.56c45.7-26.96,104.6-11.77,131.56,33.93
		c17.77,30.12,17.77,67.51,0,97.63L488.97,455.03z M448,368c0-44.18-35.82-80-80-80s-80,35.82-80,80s35.82,80,80,80
		C412.16,447.95,447.95,412.16,448,368z M477.65,466.35l-36.39-36.39c-3.45,4.07-7.23,7.86-11.31,11.31l36.39,36.39
		c3.04,3.2,8.1,3.33,11.3,0.29c3.2-3.04,3.33-8.1,0.29-11.3C477.85,466.55,477.75,466.45,477.65,466.35L477.65,466.35z M432,368
		c0,35.35-28.65,64-64,64s-64-28.65-64-64s28.65-64,64-64C403.33,304.04,431.96,332.67,432,368z M416,368c0-26.51-21.49-48-48-48
		s-48,21.49-48,48s21.49,48,48,48C394.5,415.97,415.97,394.5,416,368z M336,368h16c0.01-8.83,7.17-15.99,16-16v-16
		C350.34,336.02,336.02,350.34,336,368z M440,64h16c-0.03-26.5-21.5-47.97-48-48v16C425.66,32.02,439.98,46.34,440,64z"/>
</g>
</svg>
