<?xml version="1.0" encoding="utf-8"?>
<!-- Generator: Adobe Illustrator 25.0.0, SVG Export Plug-In . SVG Version: 6.00 Build 0)  -->
<svg version="1.1" id="Capa_1" xmlns="http://www.w3.org/2000/svg" xmlns:xlink="http://www.w3.org/1999/xlink" x="0px" y="0px"
	 viewBox="0 0 512 512" style="enable-background:new 0 0 512 512;" xml:space="preserve">
<style type="text/css">
	.st0{fill:#3C3950;}
</style>
<g>
	<path class="st0" d="M393.06,154.78h11.95v47.18c0,4.1,3.32,7.42,7.42,7.42c4.1,0,7.42-3.32,7.42-7.42v-47.18h11.95
		c4.1,0,7.42-3.32,7.42-7.42c0-4.1-3.32-7.42-7.42-7.42h-11.95v-21.56c0-4.14,3.37-7.51,7.51-7.51h17.59c4.1,0,7.42-3.32,7.42-7.42
		c0-4.1-3.32-7.42-7.42-7.42h-17.59c-12.33,0-22.36,10.03-22.36,22.36v21.56h-11.95c-4.1,0-7.42,3.32-7.42,7.42
		C385.64,151.45,388.96,154.78,393.06,154.78z M258.67,43c4.1,0,7.42-3.32,7.42-7.42s-3.32-7.42-7.42-7.42
		c-4.1,0-7.42,3.32-7.42,7.42S254.57,43,258.67,43z M98.33,171.96c12.28,0,22.27-9.99,22.27-22.27s-9.99-22.27-22.27-22.27
		s-22.27,9.99-22.27,22.27S86.05,171.96,98.33,171.96z M98.33,142.27c4.09,0,7.42,3.33,7.42,7.42s-3.33,7.42-7.42,7.42
		c-4.09,0-7.42-3.33-7.42-7.42S94.23,142.27,98.33,142.27z M128.01,201.65c12.28,0,22.27-9.99,22.27-22.27v-59.37
		c0-12.28-9.99-22.27-22.27-22.27H68.64c-12.28,0-22.27,9.99-22.27,22.27v59.37c0,12.28,9.99,22.27,22.27,22.27H128.01z
		 M61.22,179.38v-59.37c0-4.09,3.33-7.42,7.42-7.42h59.37c4.09,0,7.42,3.33,7.42,7.42v59.37c0,4.09-3.33,7.42-7.42,7.42H68.64
		C64.55,186.8,61.22,183.47,61.22,179.38z M143.31,311.59c-3.6-2.71-8.37-3.17-12.45-1.19c-1,0.48-2.05,0.85-3.12,1.09
		c-1.31,0.29-2.64,0.4-3.98,0.32c-4.37-4.02-9.94-6.43-15.95-6.84c-7.01-0.5-13.8,1.78-19.11,6.4c-4.9,4.26-8.01,10.11-8.83,16.45
		c-8.64-1.39-16.55-5.76-22.38-12.51c-2.39-2.77-6.1-4.01-9.67-3.24c-3.55,0.77-6.39,3.41-7.41,6.9
		c-2.5,8.48-7.77,34.46,14.17,51.79c-4.19,1.28-8.96,1.18-11.4,5.42c-2.2,3.82-1.02,8.32-0.13,10.67c1.75,4.58,6.33,7.87,13.6,9.79
		c3.97,1.05,9.15,1.73,15,1.73c13.55,0,30.63-3.65,44.17-14.78c13.49-11.09,19-26.22,21.23-37.69c3.46-3.95,6.21-8.4,8.17-13.27
		c1.23-3.05,2.13-6.24,2.69-9.49C148.64,318.7,146.89,314.28,143.31,311.59L143.31,311.59z M124.77,337.27
		c-1.05,1.09-1.75,2.47-1.99,3.96c-1.52,9.17-5.59,21.98-16.41,30.88c-13.08,10.76-31.5,12.27-42.09,10.91
		c3.53-1.47,6.92-3.29,10.07-5.43c2.23-1.51,3.46-4.12,3.23-6.8c-0.24-2.68-1.92-5.03-4.38-6.12c-18.48-8.21-21.39-22.2-20.24-33.16
		c9.61,7.78,21.7,11.97,34.3,11.62c4.02-0.1,7.23-3.4,7.23-7.42v-4.22c0-0.03,0-0.07,0-0.1c-0.05-3.38,1.39-6.6,3.95-8.82
		c2.31-2.01,5.27-3,8.34-2.79c3.06,0.21,5.86,1.61,7.87,3.92c1.08,1.24,2.54,2.09,4.15,2.41c4.39,0.87,8.84,0.76,13.13-0.35
		C130.41,330.06,127.98,333.97,124.77,337.27L124.77,337.27z M419.01,258.64c-0.18,0-0.35,0.01-0.53,0.01v-15.97
		c0.18,0,0.35,0.01,0.53,0.01c51.27,0,92.99-41.71,92.99-92.99c0-51.48-42.05-93.27-93.51-92.98v-7.04c0-25.92-21.09-47-47-47
		H145.86c-25.92,0-47,21.09-47,47v7.04c-18.18-0.11-35.82,5.04-51.02,14.88c-3.44,2.23-4.42,6.82-2.19,10.26
		c2.23,3.44,6.82,4.42,10.26,2.19c12.63-8.18,27.3-12.51,42.42-12.51c43.09,0,78.14,35.06,78.14,78.14s-35.06,78.14-78.14,78.14
		s-78.14-35.06-78.14-78.14c0-15.62,4.59-30.7,13.28-43.59c2.29-3.4,1.39-8.01-2.01-10.3c-3.4-2.29-8.01-1.39-10.3,2.01
		c-10.34,15.36-15.81,33.3-15.81,51.89c0,51.27,41.71,92.99,92.99,92.99c0.18,0,0.35-0.01,0.53-0.01v16.16
		c-1.94-0.12-3.89-0.19-5.87-0.19C41.71,258.64,0,300.36,0,351.63s41.71,92.99,92.99,92.99c1.97,0,3.92-0.07,5.87-0.19v17.9
		c0,25.92,21.09,47,47,47h225.62c25.92,0,47-21.09,47-47v-17.71c0.18,0,0.35,0.01,0.53,0.01c51.27,0,92.99-41.71,92.99-92.99
		S470.29,258.64,419.01,258.64z M419.01,71.55c43.09,0,78.14,35.06,78.14,78.14s-35.06,78.14-78.14,78.14s-78.14-35.06-78.14-78.14
		S375.92,71.55,419.01,71.55z M403.64,241.4v18.5c-5.07,0.84-10.04,2.09-14.84,3.73v-25.99
		C393.58,239.29,398.54,240.55,403.64,241.4L403.64,241.4z M128.54,54.62v7.13c-4.78-1.65-9.74-2.91-14.84-3.77v-8.31
		c0-17.73,14.43-32.16,32.16-32.16h225.62c17.73,0,32.16,14.43,32.16,32.16v8.31c-5.1,0.85-10.06,2.12-14.84,3.77v-7.13
		c0-12.28-9.99-22.27-22.27-22.27h-27.26c-8.46,0-15.34,6.88-15.34,15.34c0,3.28-2.67,5.96-5.96,5.96H199.36
		c-3.28,0-5.96-2.67-5.96-5.96c0-4.1-1.59-7.95-4.51-10.87c-2.9-2.88-6.75-4.47-10.83-4.47H150.8
		C138.53,32.36,128.54,42.34,128.54,54.62z M113.7,241.4c5.1-0.85,10.06-2.12,14.84-3.77v28.07c-4.76-1.98-9.72-3.57-14.84-4.74
		V241.4z M92.99,429.77c-43.09,0-78.14-35.06-78.14-78.15c0-43.09,35.06-78.14,78.14-78.14s78.14,35.06,78.14,78.14
		C171.13,397.17,135.18,429.77,92.99,429.77z M403.64,462.33c0,17.73-14.43,32.16-32.16,32.16H145.86
		c-17.73,0-32.16-14.43-32.16-32.16v-20.03c5.12-1.17,10.08-2.76,14.84-4.74v19.83c0,12.28,9.99,22.27,22.27,22.27h215.73
		c12.28,0,22.27-9.99,22.27-22.27v-17.8c4.78,1.65,9.74,2.91,14.84,3.77V462.33z M419.01,429.77c-43.09,0-78.14-35.06-78.14-78.15
		c0-6.7,0.85-13.34,2.52-19.76c1.03-3.97-1.34-8.02-5.31-9.05c-3.97-1.04-8.02,1.34-9.05,5.31c-1.99,7.63-3,15.54-3,23.5
		c0,34.94,19.37,65.43,47.93,81.32v24.43c0,4.09-3.33,7.42-7.42,7.42H150.81c-4.09,0-7.42-3.33-7.42-7.42v-27.64
		c25.61-16.58,42.59-45.4,42.59-78.11S169,290.1,143.39,273.52v-42.51c28.56-15.89,47.93-46.38,47.93-81.32
		s-19.37-65.43-47.93-81.32V54.62c0-4.09,3.33-7.42,7.42-7.42h27.26c0.14,0,0.27,0.05,0.35,0.14c0.13,0.13,0.14,0.26,0.14,0.35
		c0,11.47,9.33,20.8,20.8,20.8h118.61c11.47,0,20.8-9.33,20.8-20.8c0-0.27,0.22-0.49,0.49-0.49h27.26c4.09,0,7.42,3.33,7.42,7.42
		v13.75c-28.56,15.89-47.93,46.38-47.93,81.32c0,34.96,19.39,65.47,47.98,81.35c-0.03,0.28-0.05,0.56-0.05,0.85v38.33
		c-10.94,6.07-20.69,14.39-28.63,24.68c-2.5,3.25-1.9,7.91,1.35,10.41c3.25,2.5,7.91,1.9,10.41-1.35
		c14.93-19.38,37.18-30.48,61.93-30.48c43.09,0,78.14,35.06,78.14,78.14C497.16,394.72,462.1,429.77,419.01,429.77L419.01,429.77z
		 M285.87,253.55c-3.5-2.12-8.07-1.01-10.2,2.49c-1.38,2.27-3.31,4.21-5.54,5.65c-2.14,1.39-4.94,1.43-7.12,0.1l-11.11-6.74
		c-2.21-1.34-3.43-3.93-3.18-6.54c0.25-2.58,1.09-5.12,2.44-7.34c2.13-3.5,1.01-8.07-2.49-10.2c-3.5-2.13-8.07-1.01-10.2,2.49
		c-2.5,4.12-4.07,8.83-4.53,13.66l-0.01,0.15c-0.78,8.17,3.24,16.21,10.26,20.47l11.11,6.74c3.42,2.08,7.3,3.11,11.18,3.11
		c4.09,0,8.18-1.15,11.71-3.44c4.1-2.65,7.63-6.23,10.16-10.4C290.49,260.24,289.37,255.67,285.87,253.55z M458.07,343.67
		l-52.04-30.06c-6.73-3.96-15.5,1.19-15.44,8.92v60.12c-0.07,7.71,8.77,12.85,15.44,8.92l52.04-30.06
		C464.79,357.69,464.77,347.47,458.07,343.67z M405.42,374.77v-44.36l38.4,22.18L405.42,374.77z M256.87,188.79
		c-34.49,0.9-63.17,28.57-65.3,62.99c-0.54,8.77,0.6,17.4,3.38,25.67l-7.9,22.48c-1.47,4.17-0.43,8.7,2.69,11.82
		c3.12,3.12,7.65,4.15,11.82,2.69l15.67-5.51c12.3,9.64,27.67,14.69,43.3,14.27c35.92-0.97,65.25-31.02,65.37-66.98
		c0.06-18.34-7.13-35.49-20.24-48.31C292.55,195.1,275.21,188.3,256.87,188.79L256.87,188.79z M260.13,308.37
		c-12.26,0.31-24.27-3.65-33.85-11.2c-2.62-2.07-5.77-3.14-8.96-3.14c-1.59,0-3.2,0.27-4.74,0.81l-9.12,3.21l5.57-15.84
		c1.06-3.02,1.08-6.33,0.06-9.32c-2.21-6.49-3.12-13.28-2.69-20.18c1.66-26.81,24-48.37,50.87-49.07
		c14.31-0.39,27.81,4.92,38.03,14.9c10.22,9.99,15.82,23.36,15.77,37.65C310.96,284.2,288.12,307.61,260.13,308.37L260.13,308.37z"
		/>
</g>
</svg>
