<?xml version="1.0" encoding="utf-8"?>
<!-- Generator: Adobe Illustrator 25.0.0, SVG Export Plug-In . SVG Version: 6.00 Build 0)  -->
<svg version="1.1" id="Layer_1" xmlns="http://www.w3.org/2000/svg" xmlns:xlink="http://www.w3.org/1999/xlink" x="0px" y="0px"
	 viewBox="0 0 424 424" style="enable-background:new 0 0 424 424;" xml:space="preserve">
<style type="text/css">
	.st0{fill:#3C3950;}
</style>
<path class="st0" d="M167.29,297.13c-1.6,0-3.21-0.55-4.53-1.67l-45.3-38.57c-1.56-1.33-2.46-3.28-2.46-5.33c0-2.05,0.9-4,2.46-5.33
	l45.3-38.57c2.94-2.51,7.36-2.15,9.87,0.79c2.5,2.95,2.15,7.36-0.79,9.87l-39.04,33.24l39.04,33.24c2.95,2.51,3.3,6.93,0.79,9.87
	C171.24,296.3,169.27,297.13,167.29,297.13z"/>
<path class="st0" d="M256.71,297.13c-1.98,0-3.95-0.84-5.33-2.46c-2.51-2.94-2.15-7.36,0.79-9.87l39.04-33.24l-39.04-33.24
	c-2.94-2.5-3.3-6.92-0.79-9.87c2.5-2.94,6.93-3.3,9.86-0.79l45.3,38.57c1.56,1.33,2.46,3.28,2.46,5.33c0,2.05-0.9,4-2.46,5.33
	l-45.3,38.57C259.93,296.58,258.31,297.13,256.71,297.13z"/>
<path class="st0" d="M195.96,326.06c-0.48,0-0.96-0.05-1.45-0.15c-3.78-0.8-6.2-4.51-5.41-8.29l28.23-134.04
	c0.8-3.78,4.51-6.2,8.29-5.41c3.78,0.8,6.2,4.51,5.41,8.29L202.8,320.5C202.11,323.8,199.2,326.06,195.96,326.06z"/>
<path class="st0" d="M377,399.09H47c-25.91,0-47-21.08-47-47V72c0-25.91,21.09-47,47-47h330c25.91,0,47,21.09,47,47v280.09
	C424,378,402.91,399.09,377,399.09z M47,39c-18.2,0-33,14.8-33,33v280.09c0,18.2,14.8,33,33,33h330c18.2,0,33-14.8,33-33V72
	c0-18.2-14.8-33-33-33H47z"/>
<path class="st0" d="M417,137.09H7c-3.87,0-7-3.13-7-7c0-3.86,3.13-7,7-7h410c3.87,0,7,3.14,7,7
	C424,133.96,420.87,137.09,417,137.09z"/>
<path class="st0" d="M119.6,103.59c-12.21,0-22.15-9.94-22.15-22.15c0-12.21,9.94-22.15,22.15-22.15c12.21,0,22.15,9.94,22.15,22.15
	C141.75,93.65,131.82,103.59,119.6,103.59z M119.6,73.29c-4.49,0-8.15,3.66-8.15,8.15s3.66,8.15,8.15,8.15
	c4.5,0,8.15-3.66,8.15-8.15S124.1,73.29,119.6,73.29z"/>
<path class="st0" d="M51.54,103.38c-12.21,0-22.15-9.94-22.15-22.15s9.94-22.15,22.15-22.15s22.15,9.94,22.15,22.15
	S63.75,103.38,51.54,103.38z M51.54,73.07c-4.49,0-8.15,3.66-8.15,8.15c0,4.5,3.66,8.15,8.15,8.15c4.5,0,8.15-3.66,8.15-8.15
	C59.69,76.73,56.04,73.07,51.54,73.07z"/>
<path class="st0" d="M187.66,103.8c-12.21,0-22.15-9.94-22.15-22.15c0-12.21,9.94-22.15,22.15-22.15c12.21,0,22.15,9.94,22.15,22.15
	C209.82,93.87,199.88,103.8,187.66,103.8z M187.66,73.5c-4.49,0-8.15,3.66-8.15,8.15s3.66,8.15,8.15,8.15c4.5,0,8.15-3.66,8.15-8.15
	S192.16,73.5,187.66,73.5z"/>
</svg>
